<svg width="300" height="191" viewBox="0 0 300 191" fill="none" xmlns="http://www.w3.org/2000/svg">
<path d="M299.919 17.9377L300 171.912C300.009 181.812 291.971 189.85 282.062 189.859L18.0362 190.002C16.3892 190.002 14.787 189.778 13.2743 189.357C5.67491 187.281 0.0895171 180.335 0.0805661 172.073L7.4768e-06 18.0988C-0.00894347 8.19903 8.02005 0.152126 17.9377 0.152126L281.973 0.00891113C285.508 0.00891113 288.829 1.03827 291.604 2.82846C296.608 5.99709 299.919 11.5735 299.919 17.9377Z" fill="url(#paint0_linear_509_266)"/>
<path opacity="0.53" d="M207.948 189.903L18.0362 190.002C16.3892 190.002 14.787 189.778 13.2743 189.357L97.5206 105.021C100.036 102.497 103.106 100.868 106.337 100.179C112.12 98.8721 118.448 100.483 122.959 105.012L207.948 189.903Z" fill="url(#paint1_linear_509_266)"/>
<path opacity="0.53" d="M82.304 68.7343L0.0716133 151.056L7.46849e-06 18.1077C-0.00894348 8.19904 8.02901 0.161092 17.9288 0.152141L39.0977 0.143188L82.295 43.2957C89.3305 50.3043 89.3394 61.7078 82.304 68.7343Z" fill="url(#paint2_linear_509_266)"/>
<path opacity="0.53" d="M155.478 0.0716553L129.654 25.9309C122.637 32.9664 111.233 32.9753 104.216 25.9488L78.3566 0.116409L155.478 0.0716553Z" fill="url(#paint3_linear_509_266)"/>
<path opacity="0.53" d="M299.919 17.9377L299.991 155.451C295.166 155.639 290.27 153.903 286.583 150.206L177.336 41.0759C170.301 34.0584 170.292 22.6459 177.318 15.6194L192.875 0.0447541L281.964 0C285.499 0 288.82 1.02936 291.595 2.81955C296.608 5.99714 299.919 11.5736 299.919 17.9377Z" fill="url(#paint4_linear_509_266)"/>
<path d="M283.815 151.196L283.824 152.696L281.692 152.614L282.938 154.322L281.61 155.126L280.553 153.211L279.506 155.135L278.196 154.34L279.406 152.623L277.301 152.732L277.292 151.232L279.397 151.341L278.169 149.615L279.478 148.811L280.544 150.726L281.592 148.802L282.929 149.597L281.701 151.332L283.815 151.196Z" fill="#FBE5C8"/>
<path d="M272.83 151.241L272.839 152.741L270.707 152.66L271.953 154.367L270.625 155.171L269.569 153.256L268.521 155.18L267.211 154.385L268.421 152.669L266.316 152.777L266.307 151.277L268.412 151.386L267.184 149.66L268.493 148.856L269.559 150.772L270.607 148.847L271.944 149.642L270.716 151.377L272.83 151.241Z" fill="#FBE5C8"/>
<path d="M261.854 151.286L261.863 152.786L259.731 152.705L260.978 154.412L259.65 155.216L258.593 153.301L257.545 155.225L256.235 154.43L257.445 152.714L255.341 152.813L255.331 151.314L257.436 151.422L256.208 149.697L257.518 148.893L258.575 150.808L259.622 148.884L260.959 149.679L259.722 151.413L261.854 151.286Z" fill="#FBE5C8"/>
<path d="M265.499 135.993H264.618C264.566 135.74 264.475 135.517 264.344 135.325C264.217 135.134 264.06 134.973 263.876 134.842C263.693 134.71 263.491 134.61 263.268 134.544C263.046 134.478 262.814 134.445 262.572 134.445C262.132 134.445 261.733 134.556 261.376 134.778C261.021 135.001 260.738 135.329 260.527 135.762C260.319 136.195 260.214 136.727 260.214 137.357C260.214 137.986 260.319 138.518 260.527 138.951C260.738 139.384 261.021 139.712 261.376 139.935C261.733 140.157 262.132 140.268 262.572 140.268C262.814 140.268 263.046 140.235 263.268 140.169C263.491 140.103 263.693 140.005 263.876 139.874C264.06 139.742 264.217 139.58 264.344 139.388C264.475 139.194 264.566 138.971 264.618 138.72H265.499C265.432 139.092 265.312 139.425 265.136 139.718C264.961 140.012 264.743 140.261 264.483 140.467C264.223 140.671 263.93 140.826 263.606 140.933C263.284 141.039 262.939 141.092 262.572 141.092C261.952 141.092 261.401 140.941 260.918 140.638C260.435 140.335 260.055 139.904 259.778 139.345C259.501 138.786 259.362 138.124 259.362 137.357C259.362 136.59 259.501 135.927 259.778 135.368C260.055 134.809 260.435 134.378 260.918 134.075C261.401 133.772 261.952 133.621 262.572 133.621C262.939 133.621 263.284 133.674 263.606 133.781C263.93 133.887 264.223 134.043 264.483 134.249C264.743 134.453 264.961 134.701 265.136 134.995C265.312 135.286 265.432 135.619 265.499 135.993ZM272.774 135.993H271.893C271.841 135.74 271.75 135.517 271.62 135.325C271.492 135.134 271.336 134.973 271.151 134.842C270.969 134.71 270.766 134.61 270.544 134.544C270.321 134.478 270.089 134.445 269.848 134.445C269.407 134.445 269.009 134.556 268.651 134.778C268.296 135.001 268.013 135.329 267.802 135.762C267.594 136.195 267.49 136.727 267.49 137.357C267.49 137.986 267.594 138.518 267.802 138.951C268.013 139.384 268.296 139.712 268.651 139.935C269.009 140.157 269.407 140.268 269.848 140.268C270.089 140.268 270.321 140.235 270.544 140.169C270.766 140.103 270.969 140.005 271.151 139.874C271.336 139.742 271.492 139.58 271.62 139.388C271.75 139.194 271.841 138.971 271.893 138.72H272.774C272.708 139.092 272.587 139.425 272.412 139.718C272.237 140.012 272.019 140.261 271.758 140.467C271.498 140.671 271.206 140.826 270.881 140.933C270.559 141.039 270.215 141.092 269.848 141.092C269.228 141.092 268.676 140.941 268.193 140.638C267.71 140.335 267.33 139.904 267.053 139.345C266.776 138.786 266.638 138.124 266.638 137.357C266.638 136.59 266.776 135.927 267.053 135.368C267.33 134.809 267.71 134.378 268.193 134.075C268.676 133.772 269.228 133.621 269.848 133.621C270.215 133.621 270.559 133.674 270.881 133.781C271.206 133.887 271.498 134.043 271.758 134.249C272.019 134.453 272.237 134.701 272.412 134.995C272.587 135.286 272.708 135.619 272.774 135.993ZM274.495 133.72L276.654 139.842H276.74L278.899 133.72H279.822L277.152 140.993H276.243L273.572 133.72H274.495Z" fill="#FBE5C8"/>
<path d="M224.401 151.196L224.41 152.696L222.278 152.614L223.525 154.322L222.197 155.126L221.131 153.211L220.083 155.135L218.764 154.34L219.974 152.623L217.87 152.732L217.861 151.232L219.965 151.341L218.737 149.615L220.047 148.811L221.113 150.726L222.161 148.802L223.498 149.597L222.269 151.332L224.401 151.196Z" fill="#FBE5C8"/>
<path d="M213.425 151.25L213.434 152.75L211.302 152.669L212.549 154.376L211.221 155.18L210.164 153.265L209.116 155.189L207.806 154.394L209.017 152.678L206.912 152.786L206.903 151.286L209.008 151.395L207.779 149.669L209.089 148.865L210.155 150.781L211.203 148.856L212.54 149.651L211.311 151.386L213.425 151.25Z" fill="#FBE5C8"/>
<path d="M197.912 158.475L197.198 158.493L202.672 146.054L203.395 146.036L197.912 158.475Z" fill="#FBE5C8"/>
<path d="M193.96 151.296L193.969 152.795L191.837 152.714L193.083 154.421L191.755 155.225L190.698 153.31L189.65 155.234L188.341 154.439L189.551 152.723L187.446 152.831L187.437 151.332L189.542 151.44L188.313 149.715L189.623 148.911L190.689 150.826L191.737 148.902L193.074 149.697L191.846 151.431L193.96 151.296Z" fill="#FBE5C8"/>
<path d="M182.984 151.341L182.993 152.84L180.861 152.759L182.107 154.466L180.779 155.27L179.722 153.355L178.675 155.279L177.365 154.484L178.575 152.768L176.47 152.867L176.461 151.368L178.566 151.476L177.338 149.751L178.647 148.947L179.704 150.862L180.752 148.938L182.089 149.733L180.852 151.467L182.984 151.341Z" fill="#FBE5C8"/>
<path d="M174.527 140.993V133.72H178.916V134.501H175.408V136.959H178.689V137.74H175.408V140.212H178.973V140.993H174.527ZM181.015 135.538L182.322 137.768L183.629 135.538H184.594L182.833 138.266L184.594 140.993H183.629L182.322 138.876L181.015 140.993H180.049L181.782 138.266L180.049 135.538H181.015ZM185.79 143.038V135.538H186.6V136.405H186.699C186.761 136.31 186.846 136.189 186.955 136.043C187.066 135.893 187.225 135.761 187.431 135.645C187.639 135.527 187.921 135.467 188.276 135.467C188.735 135.467 189.14 135.582 189.491 135.812C189.841 136.041 190.114 136.367 190.311 136.788C190.507 137.21 190.606 137.707 190.606 138.28C190.606 138.858 190.507 139.358 190.311 139.782C190.114 140.203 189.842 140.53 189.494 140.762C189.146 140.992 188.745 141.107 188.29 141.107C187.94 141.107 187.659 141.049 187.449 140.933C187.238 140.814 187.076 140.68 186.962 140.531C186.849 140.38 186.761 140.254 186.699 140.155H186.628V143.038H185.79ZM186.614 138.266C186.614 138.678 186.675 139.041 186.795 139.356C186.916 139.668 187.092 139.913 187.324 140.091C187.556 140.266 187.84 140.354 188.177 140.354C188.527 140.354 188.819 140.261 189.054 140.077C189.291 139.89 189.468 139.639 189.586 139.324C189.707 139.007 189.768 138.654 189.768 138.266C189.768 137.882 189.708 137.536 189.59 137.229C189.474 136.919 189.298 136.674 189.061 136.494C188.827 136.311 188.532 136.22 188.177 136.22C187.836 136.22 187.549 136.307 187.317 136.479C187.085 136.65 186.91 136.889 186.792 137.197C186.673 137.502 186.614 137.858 186.614 138.266ZM191.884 140.993V135.538H192.722V140.993H191.884ZM192.31 134.629C192.147 134.629 192.006 134.574 191.888 134.462C191.772 134.351 191.714 134.217 191.714 134.061C191.714 133.905 191.772 133.771 191.888 133.66C192.006 133.549 192.147 133.493 192.31 133.493C192.474 133.493 192.613 133.549 192.729 133.66C192.848 133.771 192.907 133.905 192.907 134.061C192.907 134.217 192.848 134.351 192.729 134.462C192.613 134.574 192.474 134.629 192.31 134.629ZM194.257 140.993V135.538H195.067V136.362H195.124C195.223 136.092 195.403 135.873 195.663 135.705C195.924 135.537 196.217 135.453 196.544 135.453C196.606 135.453 196.683 135.454 196.775 135.457C196.867 135.459 196.937 135.463 196.984 135.467V136.32C196.956 136.313 196.891 136.302 196.789 136.288C196.69 136.271 196.584 136.263 196.473 136.263C196.208 136.263 195.971 136.318 195.763 136.43C195.557 136.539 195.393 136.69 195.273 136.884C195.154 137.076 195.095 137.295 195.095 137.541V140.993H194.257ZM198.684 143.038C198.542 143.038 198.415 143.027 198.304 143.003C198.192 142.982 198.115 142.96 198.073 142.939L198.286 142.2C198.489 142.252 198.669 142.271 198.826 142.257C198.982 142.243 199.12 142.173 199.241 142.048C199.364 141.925 199.477 141.724 199.578 141.447L199.735 141.021L197.718 135.538H198.627L200.132 139.885H200.189L201.695 135.538H202.604L200.289 141.788C200.185 142.07 200.056 142.303 199.902 142.488C199.748 142.675 199.569 142.813 199.365 142.903C199.164 142.993 198.937 143.038 198.684 143.038ZM208.881 140.993H206.636V133.72H208.98C209.686 133.72 210.289 133.866 210.791 134.157C211.293 134.446 211.678 134.861 211.945 135.403C212.213 135.943 212.347 136.59 212.347 137.342C212.347 138.1 212.212 138.752 211.942 139.299C211.672 139.844 211.279 140.263 210.763 140.556C210.247 140.847 209.619 140.993 208.881 140.993ZM207.517 140.212H208.824C209.425 140.212 209.924 140.096 210.319 139.864C210.714 139.632 211.009 139.301 211.203 138.873C211.397 138.444 211.494 137.934 211.494 137.342C211.494 136.755 211.398 136.25 211.207 135.826C211.015 135.4 210.728 135.073 210.347 134.846C209.966 134.616 209.491 134.501 208.923 134.501H207.517V140.212ZM215.315 141.121C214.97 141.121 214.656 141.056 214.374 140.925C214.093 140.793 213.869 140.602 213.703 140.354C213.537 140.103 213.455 139.8 213.455 139.445C213.455 139.132 213.516 138.879 213.639 138.685C213.762 138.488 213.927 138.334 214.133 138.223C214.339 138.112 214.566 138.029 214.815 137.974C215.066 137.918 215.318 137.873 215.571 137.84C215.902 137.797 216.171 137.765 216.377 137.744C216.585 137.72 216.737 137.681 216.832 137.626C216.929 137.572 216.977 137.477 216.977 137.342V137.314C216.977 136.964 216.881 136.691 216.69 136.497C216.5 136.303 216.213 136.206 215.827 136.206C215.427 136.206 215.113 136.294 214.886 136.469C214.658 136.644 214.499 136.831 214.406 137.03L213.611 136.746C213.753 136.414 213.942 136.156 214.179 135.972C214.418 135.785 214.678 135.654 214.96 135.581C215.244 135.505 215.524 135.467 215.798 135.467C215.973 135.467 216.175 135.489 216.402 135.531C216.632 135.572 216.853 135.656 217.066 135.783C217.281 135.911 217.46 136.104 217.602 136.362C217.744 136.62 217.815 136.966 217.815 137.399V140.993H216.977V140.254H216.935C216.878 140.373 216.783 140.499 216.651 140.634C216.518 140.769 216.342 140.884 216.121 140.979C215.901 141.073 215.633 141.121 215.315 141.121ZM215.443 140.368C215.775 140.368 216.054 140.303 216.281 140.173C216.511 140.042 216.684 139.874 216.8 139.668C216.918 139.462 216.977 139.246 216.977 139.018V138.251C216.942 138.294 216.864 138.333 216.743 138.369C216.625 138.402 216.487 138.431 216.331 138.457C216.177 138.481 216.027 138.502 215.88 138.521C215.736 138.538 215.618 138.552 215.528 138.564C215.311 138.592 215.107 138.639 214.918 138.702C214.731 138.764 214.579 138.858 214.463 138.983C214.349 139.106 214.293 139.274 214.293 139.487C214.293 139.778 214.4 139.999 214.616 140.148C214.834 140.295 215.109 140.368 215.443 140.368ZM221.717 135.538V136.249H218.89V135.538H221.717ZM219.714 134.232H220.552V139.43C220.552 139.667 220.587 139.845 220.655 139.963C220.726 140.079 220.816 140.157 220.925 140.197C221.037 140.235 221.154 140.254 221.277 140.254C221.369 140.254 221.445 140.25 221.504 140.24C221.563 140.228 221.611 140.219 221.646 140.212L221.817 140.965C221.76 140.986 221.68 141.007 221.579 141.028C221.477 141.052 221.348 141.064 221.192 141.064C220.955 141.064 220.723 141.013 220.496 140.911C220.271 140.809 220.084 140.654 219.934 140.446C219.788 140.238 219.714 139.975 219.714 139.658V134.232ZM225.206 141.107C224.681 141.107 224.227 140.991 223.846 140.759C223.467 140.524 223.175 140.197 222.969 139.778C222.765 139.357 222.664 138.867 222.664 138.308C222.664 137.75 222.765 137.257 222.969 136.831C223.175 136.402 223.461 136.069 223.828 135.83C224.198 135.588 224.628 135.467 225.121 135.467C225.405 135.467 225.686 135.515 225.963 135.609C226.24 135.704 226.492 135.858 226.719 136.071C226.946 136.282 227.127 136.561 227.262 136.909C227.397 137.257 227.465 137.686 227.465 138.195V138.55H223.26V137.825H226.612C226.612 137.518 226.551 137.243 226.428 137.001C226.307 136.76 226.134 136.569 225.909 136.43C225.687 136.29 225.424 136.22 225.121 136.22C224.787 136.22 224.498 136.303 224.254 136.469C224.013 136.632 223.827 136.845 223.697 137.108C223.567 137.371 223.502 137.652 223.502 137.953V138.436C223.502 138.848 223.573 139.197 223.715 139.484C223.859 139.768 224.059 139.984 224.315 140.134C224.57 140.28 224.868 140.354 225.206 140.354C225.426 140.354 225.625 140.323 225.803 140.261C225.983 140.197 226.138 140.103 226.268 139.977C226.398 139.849 226.499 139.691 226.57 139.501L227.379 139.729C227.294 140.003 227.151 140.245 226.95 140.453C226.749 140.659 226.5 140.82 226.204 140.936C225.908 141.05 225.575 141.107 225.206 141.107Z" fill="#FBE5C8"/>
<path d="M20.8755 160.17V145.624H25.9608C26.974 145.624 27.8097 145.799 28.4679 146.15C29.126 146.495 29.6161 146.962 29.938 147.549C30.26 148.131 30.421 148.778 30.421 149.488C30.421 150.113 30.3097 150.629 30.0872 151.036C29.8694 151.443 29.5806 151.765 29.2207 152.002C28.8656 152.239 28.4797 152.414 28.063 152.528V152.67C28.5081 152.698 28.9556 152.854 29.4054 153.138C29.8552 153.423 30.2316 153.83 30.5346 154.36C30.8377 154.89 30.9892 155.539 30.9892 156.306C30.9892 157.035 30.8235 157.691 30.492 158.273C30.1606 158.856 29.6374 159.317 28.9224 159.658C28.2075 159.999 27.2771 160.17 26.1312 160.17H20.8755ZM22.6369 158.607H26.1312C27.2818 158.607 28.0986 158.385 28.5815 157.94C29.0692 157.49 29.313 156.945 29.313 156.306C29.313 155.814 29.1876 155.359 28.9366 154.942C28.6857 154.521 28.3282 154.185 27.8642 153.934C27.4002 153.678 26.8509 153.55 26.2165 153.55H22.6369V158.607ZM22.6369 152.016H25.904C26.4343 152.016 26.9125 151.912 27.3386 151.704C27.7695 151.495 28.1104 151.202 28.3613 150.823C28.617 150.444 28.7449 149.999 28.7449 149.488C28.7449 148.849 28.5223 148.307 28.0773 147.861C27.6322 147.412 26.9267 147.187 25.9608 147.187H22.6369V152.016ZM38.0879 160.397C37.1031 160.397 36.2389 160.163 35.4956 159.694C34.7569 159.225 34.1793 158.569 33.7626 157.726C33.3507 156.884 33.1447 155.899 33.1447 154.772C33.1447 153.636 33.3507 152.644 33.7626 151.796C34.1793 150.949 34.7569 150.29 35.4956 149.822C36.2389 149.353 37.1031 149.119 38.0879 149.119C39.0728 149.119 39.9345 149.353 40.6731 149.822C41.4165 150.29 41.9942 150.949 42.4061 151.796C42.8228 152.644 43.0311 153.636 43.0311 154.772C43.0311 155.899 42.8228 156.884 42.4061 157.726C41.9942 158.569 41.4165 159.225 40.6731 159.694C39.9345 160.163 39.0728 160.397 38.0879 160.397ZM38.0879 158.891C38.836 158.891 39.4515 158.7 39.9345 158.316C40.4174 157.932 40.7749 157.428 41.0069 156.803C41.2389 156.178 41.3549 155.501 41.3549 154.772C41.3549 154.043 41.2389 153.363 41.0069 152.734C40.7749 152.104 40.4174 151.595 39.9345 151.207C39.4515 150.818 38.836 150.624 38.0879 150.624C37.3398 150.624 36.7243 150.818 36.2413 151.207C35.7584 151.595 35.4009 152.104 35.1689 152.734C34.9369 153.363 34.8209 154.043 34.8209 154.772C34.8209 155.501 34.9369 156.178 35.1689 156.803C35.4009 157.428 35.7584 157.932 36.2413 158.316C36.7243 158.7 37.3398 158.891 38.0879 158.891ZM45.817 160.17V145.624H47.4931V150.994H47.6351C47.7582 150.804 47.9287 150.563 48.1465 150.269C48.369 149.971 48.6863 149.706 49.0982 149.474C49.5149 149.237 50.0783 149.119 50.7885 149.119C51.7071 149.119 52.5168 149.348 53.2175 149.807C53.9183 150.267 54.4652 150.918 54.8581 151.761C55.2511 152.603 55.4476 153.598 55.4476 154.744C55.4476 155.899 55.2511 156.9 54.8581 157.748C54.4652 158.591 53.9206 159.244 53.2246 159.708C52.5286 160.167 51.726 160.397 50.817 160.397C50.1162 160.397 49.5551 160.281 49.1337 160.049C48.7123 159.812 48.388 159.545 48.1607 159.246C47.9334 158.943 47.7582 158.692 47.6351 158.494H47.4363V160.17H45.817ZM47.4647 154.715C47.4647 155.539 47.5854 156.266 47.8269 156.896C48.0684 157.521 48.4211 158.011 48.8851 158.366C49.3491 158.716 49.9173 158.891 50.5897 158.891C51.2904 158.891 51.8752 158.707 52.3439 158.337C52.8174 157.963 53.1725 157.461 53.4093 156.832C53.6508 156.197 53.7715 155.492 53.7715 154.715C53.7715 153.948 53.6531 153.257 53.4164 152.641C53.1844 152.021 52.8316 151.531 52.3581 151.171C51.8894 150.807 51.2999 150.624 50.5897 150.624C49.9079 150.624 49.3349 150.797 48.8709 151.143C48.4069 151.484 48.0565 151.962 47.8198 152.577C47.583 153.188 47.4647 153.901 47.4647 154.715ZM58.2388 160.17V145.624H59.915V150.994H60.057C60.1801 150.804 60.3506 150.563 60.5684 150.269C60.7909 149.971 61.1081 149.706 61.5201 149.474C61.9367 149.237 62.5002 149.119 63.2104 149.119C64.129 149.119 64.9386 149.348 65.6394 149.807C66.3402 150.267 66.887 150.918 67.28 151.761C67.673 152.603 67.8695 153.598 67.8695 154.744C67.8695 155.899 67.673 156.9 67.28 157.748C66.887 158.591 66.3425 159.244 65.6465 159.708C64.9505 160.167 64.1479 160.397 63.2388 160.397C62.5381 160.397 61.977 160.281 61.5556 160.049C61.1342 159.812 60.8098 159.545 60.5826 159.246C60.3553 158.943 60.1801 158.692 60.057 158.494H59.8581V160.17H58.2388ZM59.8866 154.715C59.8866 155.539 60.0073 156.266 60.2488 156.896C60.4902 157.521 60.843 158.011 61.307 158.366C61.771 158.716 62.3392 158.891 63.0116 158.891C63.7123 158.891 64.2971 158.707 64.7658 158.337C65.2393 157.963 65.5944 157.461 65.8312 156.832C66.0726 156.197 66.1934 155.492 66.1934 154.715C66.1934 153.948 66.075 153.257 65.8383 152.641C65.6063 152.021 65.2535 151.531 64.78 151.171C64.3113 150.807 63.7218 150.624 63.0116 150.624C62.3297 150.624 61.7568 150.797 61.2928 151.143C60.8288 151.484 60.4784 151.962 60.2417 152.577C60.0049 153.188 59.8866 153.901 59.8866 154.715ZM71.1223 164.261C70.8383 164.261 70.5849 164.237 70.3624 164.19C70.1399 164.147 69.986 164.104 69.9008 164.062L70.3269 162.584C70.7341 162.689 71.0939 162.726 71.4064 162.698C71.7189 162.67 71.9959 162.53 72.2374 162.279C72.4836 162.033 72.7085 161.633 72.9121 161.079L73.2246 160.226L69.1905 149.261H71.0087L74.0201 157.954H74.1337L77.1451 149.261H78.9633L74.3326 161.761C74.1242 162.324 73.8662 162.79 73.5584 163.16C73.2507 163.534 72.8932 163.811 72.486 163.991C72.0835 164.171 71.629 164.261 71.1223 164.261ZM87.6245 160.17H85.7779L91.1188 145.624H92.937L98.2779 160.17H96.4313L92.0847 147.925H91.9711L87.6245 160.17ZM88.3063 154.488H95.7495V156.05H88.3063V154.488ZM101.566 149.261L104.18 153.721L106.794 149.261H108.725L105.203 154.715L108.725 160.17H106.794L104.18 155.937L101.566 160.17H99.6344L103.1 154.715L99.6344 149.261H101.566ZM115.242 160.397C114.191 160.397 113.284 160.165 112.521 159.701C111.764 159.232 111.179 158.579 110.767 157.741C110.36 156.898 110.156 155.918 110.156 154.8C110.156 153.683 110.36 152.698 110.767 151.846C111.179 150.989 111.752 150.321 112.486 149.843C113.225 149.36 114.086 149.119 115.071 149.119C115.639 149.119 116.2 149.213 116.754 149.403C117.308 149.592 117.813 149.9 118.267 150.326C118.722 150.747 119.084 151.306 119.354 152.002C119.624 152.698 119.759 153.555 119.759 154.573V155.283H111.35V153.834H118.054C118.054 153.219 117.931 152.67 117.685 152.187C117.443 151.704 117.098 151.323 116.648 151.043C116.203 150.764 115.677 150.624 115.071 150.624C114.404 150.624 113.826 150.79 113.338 151.121C112.855 151.448 112.484 151.874 112.223 152.4C111.963 152.925 111.833 153.489 111.833 154.09V155.056C111.833 155.88 111.975 156.578 112.259 157.151C112.548 157.719 112.948 158.153 113.459 158.451C113.97 158.744 114.565 158.891 115.242 158.891C115.682 158.891 116.08 158.83 116.435 158.707C116.795 158.579 117.105 158.389 117.365 158.138C117.626 157.883 117.827 157.566 117.969 157.187L119.588 157.641C119.418 158.191 119.131 158.673 118.729 159.09C118.326 159.502 117.829 159.824 117.237 160.056C116.646 160.283 115.98 160.397 115.242 160.397ZM123.985 145.624V160.17H122.308V145.624H123.985ZM127.055 160.17V149.261H128.674V150.908H128.787C128.986 150.369 129.346 149.931 129.867 149.594C130.388 149.258 130.975 149.09 131.628 149.09C131.751 149.09 131.905 149.092 132.09 149.097C132.275 149.102 132.414 149.109 132.509 149.119V150.823C132.452 150.809 132.322 150.788 132.118 150.759C131.92 150.726 131.709 150.709 131.486 150.709C130.956 150.709 130.483 150.821 130.066 151.043C129.654 151.261 129.327 151.564 129.086 151.952C128.849 152.336 128.731 152.774 128.731 153.266V160.17H127.055ZM138.596 160.397C137.611 160.397 136.747 160.163 136.003 159.694C135.265 159.225 134.687 158.569 134.27 157.726C133.858 156.884 133.653 155.899 133.653 154.772C133.653 153.636 133.858 152.644 134.27 151.796C134.687 150.949 135.265 150.29 136.003 149.822C136.747 149.353 137.611 149.119 138.596 149.119C139.581 149.119 140.442 149.353 141.181 149.822C141.924 150.29 142.502 150.949 142.914 151.796C143.331 152.644 143.539 153.636 143.539 154.772C143.539 155.899 143.331 156.884 142.914 157.726C142.502 158.569 141.924 159.225 141.181 159.694C140.442 160.163 139.581 160.397 138.596 160.397ZM138.596 158.891C139.344 158.891 139.959 158.7 140.442 158.316C140.925 157.932 141.283 157.428 141.515 156.803C141.747 156.178 141.863 155.501 141.863 154.772C141.863 154.043 141.747 153.363 141.515 152.734C141.283 152.104 140.925 151.595 140.442 151.207C139.959 150.818 139.344 150.624 138.596 150.624C137.848 150.624 137.232 150.818 136.749 151.207C136.266 151.595 135.909 152.104 135.677 152.734C135.445 153.363 135.329 154.043 135.329 154.772C135.329 155.501 135.445 156.178 135.677 156.803C135.909 157.428 136.266 157.932 136.749 158.316C137.232 158.7 137.848 158.891 138.596 158.891ZM150.217 160.397C149.308 160.397 148.505 160.167 147.809 159.708C147.113 159.244 146.569 158.591 146.176 157.748C145.783 156.9 145.586 155.899 145.586 154.744C145.586 153.598 145.783 152.603 146.176 151.761C146.569 150.918 147.115 150.267 147.816 149.807C148.517 149.348 149.327 149.119 150.245 149.119C150.955 149.119 151.517 149.237 151.928 149.474C152.345 149.706 152.662 149.971 152.88 150.269C153.103 150.563 153.276 150.804 153.399 150.994H153.541V145.624H155.217V160.17H153.597V158.494H153.399C153.276 158.692 153.1 158.943 152.873 159.246C152.646 159.545 152.321 159.812 151.9 160.049C151.479 160.281 150.918 160.397 150.217 160.397ZM150.444 158.891C151.116 158.891 151.685 158.716 152.149 158.366C152.613 158.011 152.965 157.521 153.207 156.896C153.448 156.266 153.569 155.539 153.569 154.715C153.569 153.901 153.451 153.188 153.214 152.577C152.977 151.962 152.627 151.484 152.163 151.143C151.699 150.797 151.126 150.624 150.444 150.624C149.734 150.624 149.142 150.807 148.669 151.171C148.2 151.531 147.847 152.021 147.61 152.641C147.378 153.257 147.262 153.948 147.262 154.715C147.262 155.492 147.381 156.197 147.617 156.832C147.859 157.461 148.214 157.963 148.683 158.337C149.156 158.707 149.743 158.891 150.444 158.891Z" fill="#FBE5C8"/>
<path d="M26.9823 135.993H26.1016C26.0495 135.74 25.9584 135.517 25.8282 135.325C25.7004 135.134 25.5441 134.973 25.3594 134.842C25.1772 134.71 24.9747 134.61 24.7522 134.544C24.5297 134.478 24.2977 134.445 24.0562 134.445C23.6158 134.445 23.2169 134.556 22.8594 134.778C22.5043 135.001 22.2214 135.329 22.0107 135.762C21.8024 136.195 21.6982 136.727 21.6982 137.357C21.6982 137.986 21.8024 138.518 22.0107 138.951C22.2214 139.384 22.5043 139.712 22.8594 139.935C23.2169 140.157 23.6158 140.268 24.0562 140.268C24.2977 140.268 24.5297 140.235 24.7522 140.169C24.9747 140.103 25.1772 140.005 25.3594 139.874C25.5441 139.742 25.7004 139.58 25.8282 139.388C25.9584 139.194 26.0495 138.971 26.1016 138.72H26.9823C26.916 139.092 26.7953 139.425 26.6201 139.718C26.4449 140.012 26.2271 140.261 25.9667 140.467C25.7063 140.671 25.4139 140.826 25.0896 140.933C24.7676 141.039 24.4231 141.092 24.0562 141.092C23.4359 141.092 22.8843 140.941 22.4013 140.638C21.9184 140.335 21.5384 139.904 21.2614 139.345C20.9844 138.786 20.846 138.124 20.846 137.357C20.846 136.59 20.9844 135.927 21.2614 135.368C21.5384 134.809 21.9184 134.378 22.4013 134.075C22.8843 133.772 23.4359 133.621 24.0562 133.621C24.4231 133.621 24.7676 133.674 25.0896 133.781C25.4139 133.887 25.7063 134.043 25.9667 134.249C26.2271 134.453 26.4449 134.701 26.6201 134.995C26.7953 135.286 26.916 135.619 26.9823 135.993ZM29.8969 141.121C29.5513 141.121 29.2376 141.056 28.9559 140.925C28.6741 140.793 28.4504 140.602 28.2847 140.354C28.119 140.103 28.0361 139.8 28.0361 139.445C28.0361 139.132 28.0977 138.879 28.2208 138.685C28.3439 138.488 28.5084 138.334 28.7144 138.223C28.9203 138.112 29.1476 138.029 29.3962 137.974C29.6471 137.918 29.8993 137.873 30.1526 137.84C30.484 137.797 30.7527 137.765 30.9587 137.744C31.167 137.72 31.3185 137.681 31.4132 137.626C31.5103 137.572 31.5588 137.477 31.5588 137.342V137.314C31.5588 136.964 31.463 136.691 31.2712 136.497C31.0818 136.303 30.7942 136.206 30.4083 136.206C30.0082 136.206 29.6945 136.294 29.4672 136.469C29.2399 136.644 29.0801 136.831 28.9878 137.03L28.1924 136.746C28.3344 136.414 28.5238 136.156 28.7605 135.972C28.9997 135.785 29.2601 135.654 29.5418 135.581C29.8259 135.505 30.1052 135.467 30.3799 135.467C30.5551 135.467 30.7563 135.489 30.9836 135.531C31.2132 135.572 31.4346 135.656 31.6476 135.783C31.8631 135.911 32.0418 136.104 32.1838 136.362C32.3259 136.62 32.3969 136.966 32.3969 137.399V140.993H31.5588V140.254H31.5162C31.4594 140.373 31.3647 140.499 31.2321 140.634C31.0996 140.769 30.9232 140.884 30.703 140.979C30.4828 141.073 30.2141 141.121 29.8969 141.121ZM30.0247 140.368C30.3562 140.368 30.6355 140.303 30.8628 140.173C31.0925 140.042 31.2653 139.874 31.3813 139.668C31.4997 139.462 31.5588 139.246 31.5588 139.018V138.251C31.5233 138.294 31.4452 138.333 31.3245 138.369C31.2061 138.402 31.0688 138.431 30.9125 138.457C30.7587 138.481 30.6083 138.502 30.4615 138.521C30.3171 138.538 30.1999 138.552 30.11 138.564C29.8922 138.592 29.6886 138.639 29.4992 138.702C29.3122 138.764 29.1606 138.858 29.0446 138.983C28.931 139.106 28.8742 139.274 28.8742 139.487C28.8742 139.778 28.9819 139.999 29.1973 140.148C29.4151 140.295 29.6909 140.368 30.0247 140.368ZM33.9266 140.993V135.538H34.7362V136.362H34.793C34.8925 136.092 35.0724 135.873 35.3328 135.705C35.5932 135.537 35.8868 135.453 36.2135 135.453C36.275 135.453 36.352 135.454 36.4443 135.457C36.5366 135.459 36.6065 135.463 36.6538 135.467V136.32C36.6254 136.313 36.5603 136.302 36.4585 136.288C36.3591 136.271 36.2537 136.263 36.1425 136.263C35.8773 136.263 35.6406 136.318 35.4322 136.43C35.2263 136.539 35.0629 136.69 34.9422 136.884C34.8238 137.076 34.7646 137.295 34.7646 137.541V140.993H33.9266ZM39.5409 141.107C39.0864 141.107 38.6851 140.992 38.3371 140.762C37.9891 140.53 37.7168 140.203 37.5203 139.782C37.3238 139.358 37.2256 138.858 37.2256 138.28C37.2256 137.707 37.3238 137.21 37.5203 136.788C37.7168 136.367 37.9902 136.041 38.3406 135.812C38.691 135.582 39.0958 135.467 39.5551 135.467C39.9102 135.467 40.1908 135.527 40.3967 135.645C40.6051 135.761 40.7637 135.893 40.8726 136.043C40.9839 136.189 41.0703 136.31 41.1318 136.405H41.2028V133.72H42.0409V140.993H41.2312V140.155H41.1318C41.0703 140.254 40.9827 140.38 40.869 140.531C40.7554 140.68 40.5932 140.814 40.3825 140.933C40.1718 141.049 39.8913 141.107 39.5409 141.107ZM39.6545 140.354C39.9907 140.354 40.2748 140.266 40.5068 140.091C40.7388 139.913 40.9152 139.668 41.0359 139.356C41.1567 139.041 41.217 138.678 41.217 138.266C41.217 137.858 41.1579 137.502 41.0395 137.197C40.9211 136.889 40.7459 136.65 40.5139 136.479C40.2819 136.307 39.9955 136.22 39.6545 136.22C39.2994 136.22 39.0035 136.311 38.7668 136.494C38.5324 136.674 38.356 136.919 38.2376 137.229C38.1216 137.536 38.0636 137.882 38.0636 138.266C38.0636 138.654 38.1228 139.007 38.2412 139.324C38.3619 139.639 38.5395 139.89 38.7739 140.077C39.0106 140.261 39.3042 140.354 39.6545 140.354ZM47.3428 137.712V140.993H46.5047V133.72H47.3428V136.391H47.4138C47.5416 136.109 47.7334 135.885 47.9891 135.719C48.2471 135.551 48.5904 135.467 49.0189 135.467C49.3906 135.467 49.7161 135.542 49.9955 135.691C50.2748 135.838 50.4914 136.064 50.6453 136.369C50.8016 136.672 50.8797 137.058 50.8797 137.527V140.993H50.0416V137.584C50.0416 137.151 49.9292 136.816 49.7043 136.579C49.4817 136.34 49.1728 136.22 48.7774 136.22C48.5028 136.22 48.2566 136.278 48.0388 136.394C47.8233 136.51 47.6529 136.679 47.5274 136.902C47.4043 137.125 47.3428 137.394 47.3428 137.712ZM54.6288 141.107C54.1364 141.107 53.7043 140.989 53.3326 140.755C52.9633 140.521 52.6745 140.193 52.4662 139.771C52.2602 139.35 52.1572 138.858 52.1572 138.294C52.1572 137.726 52.2602 137.23 52.4662 136.806C52.6745 136.382 52.9633 136.053 53.3326 135.819C53.7043 135.585 54.1364 135.467 54.6288 135.467C55.1212 135.467 55.5521 135.585 55.9214 135.819C56.2931 136.053 56.5819 136.382 56.7879 136.806C56.9962 137.23 57.1004 137.726 57.1004 138.294C57.1004 138.858 56.9962 139.35 56.7879 139.771C56.5819 140.193 56.2931 140.521 55.9214 140.755C55.5521 140.989 55.1212 141.107 54.6288 141.107ZM54.6288 140.354C55.0029 140.354 55.3106 140.258 55.5521 140.066C55.7936 139.874 55.9723 139.622 56.0883 139.31C56.2043 138.997 56.2623 138.659 56.2623 138.294C56.2623 137.929 56.2043 137.59 56.0883 137.275C55.9723 136.96 55.7936 136.706 55.5521 136.511C55.3106 136.317 55.0029 136.22 54.6288 136.22C54.2547 136.22 53.947 136.317 53.7055 136.511C53.464 136.706 53.2853 136.96 53.1693 137.275C53.0533 137.59 52.9953 137.929 52.9953 138.294C52.9953 138.659 53.0533 138.997 53.1693 139.31C53.2853 139.622 53.464 139.874 53.7055 140.066C53.947 140.258 54.2547 140.354 54.6288 140.354ZM59.2178 133.72V140.993H58.3797V133.72H59.2178ZM62.8124 141.107C62.3578 141.107 61.9566 140.992 61.6086 140.762C61.2605 140.53 60.9883 140.203 60.7918 139.782C60.5953 139.358 60.4971 138.858 60.4971 138.28C60.4971 137.707 60.5953 137.21 60.7918 136.788C60.9883 136.367 61.2617 136.041 61.6121 135.812C61.9625 135.582 62.3673 135.467 62.8266 135.467C63.1817 135.467 63.4622 135.527 63.6682 135.645C63.8765 135.761 64.0352 135.893 64.1441 136.043C64.2553 136.189 64.3417 136.31 64.4033 136.405H64.4743V133.72H65.3124V140.993H64.5027V140.155H64.4033C64.3417 140.254 64.2542 140.38 64.1405 140.531C64.0269 140.68 63.8647 140.814 63.654 140.933C63.4433 141.049 63.1628 141.107 62.8124 141.107ZM62.926 140.354C63.2622 140.354 63.5463 140.266 63.7783 140.091C64.0103 139.913 64.1867 139.668 64.3074 139.356C64.4282 139.041 64.4885 138.678 64.4885 138.266C64.4885 137.858 64.4293 137.502 64.311 137.197C64.1926 136.889 64.0174 136.65 63.7854 136.479C63.5534 136.307 63.2669 136.22 62.926 136.22C62.5709 136.22 62.275 136.311 62.0382 136.494C61.8039 136.674 61.6275 136.919 61.5091 137.229C61.3931 137.536 61.3351 137.882 61.3351 138.266C61.3351 138.654 61.3943 139.007 61.5127 139.324C61.6334 139.639 61.811 139.89 62.0453 140.077C62.2821 140.261 62.5756 140.354 62.926 140.354ZM69.2506 141.107C68.725 141.107 68.2717 140.991 67.8905 140.759C67.5117 140.524 67.2194 140.197 67.0134 139.778C66.8098 139.357 66.708 138.867 66.708 138.308C66.708 137.75 66.8098 137.257 67.0134 136.831C67.2194 136.402 67.5058 136.069 67.8728 135.83C68.2421 135.588 68.673 135.467 69.1654 135.467C69.4495 135.467 69.73 135.515 70.007 135.609C70.284 135.704 70.5361 135.858 70.7634 136.071C70.9907 136.282 71.1718 136.561 71.3067 136.909C71.4417 137.257 71.5091 137.686 71.5091 138.195V138.55H67.3046V137.825H70.6569C70.6569 137.518 70.5953 137.243 70.4722 137.001C70.3515 136.76 70.1786 136.569 69.9537 136.43C69.7312 136.29 69.4684 136.22 69.1654 136.22C68.8316 136.22 68.5427 136.303 68.2989 136.469C68.0574 136.632 67.8716 136.845 67.7414 137.108C67.6112 137.371 67.5461 137.652 67.5461 137.953V138.436C67.5461 138.848 67.6171 139.197 67.7591 139.484C67.9035 139.768 68.1036 139.984 68.3593 140.134C68.6149 140.28 68.9121 140.354 69.2506 140.354C69.4708 140.354 69.6696 140.323 69.8472 140.261C70.0271 140.197 70.1822 140.103 70.3124 139.977C70.4426 139.849 70.5432 139.691 70.6142 139.501L71.4239 139.729C71.3387 140.003 71.1954 140.245 70.9942 140.453C70.793 140.659 70.5444 140.82 70.2485 140.936C69.9525 141.05 69.6199 141.107 69.2506 141.107ZM72.784 140.993V135.538H73.5936V136.362H73.6505C73.7499 136.092 73.9298 135.873 74.1902 135.705C74.4506 135.537 74.7442 135.453 75.0709 135.453C75.1325 135.453 75.2094 135.454 75.3017 135.457C75.3941 135.459 75.4639 135.463 75.5113 135.467V136.32C75.4828 136.313 75.4177 136.302 75.3159 136.288C75.2165 136.271 75.1112 136.263 74.9999 136.263C74.7347 136.263 74.498 136.318 74.2897 136.43C74.0837 136.539 73.9203 136.69 73.7996 136.884C73.6812 137.076 73.6221 137.295 73.6221 137.541V140.993H72.784ZM80.1553 137.712V140.993H79.3172V135.538H80.1268V136.391H80.1979C80.3257 136.114 80.5198 135.891 80.7803 135.723C81.0407 135.553 81.3768 135.467 81.7888 135.467C82.1581 135.467 82.4812 135.543 82.7582 135.695C83.0352 135.844 83.2507 136.071 83.4045 136.376C83.5584 136.679 83.6354 137.063 83.6354 137.527V140.993H82.7973V137.584C82.7973 137.155 82.686 136.822 82.4635 136.582C82.241 136.341 81.9356 136.22 81.5473 136.22C81.2798 136.22 81.0407 136.278 80.83 136.394C80.6216 136.51 80.4571 136.679 80.3364 136.902C80.2156 137.125 80.1553 137.394 80.1553 137.712ZM86.7719 141.121C86.4263 141.121 86.1126 141.056 85.8309 140.925C85.5491 140.793 85.3254 140.602 85.1597 140.354C84.994 140.103 84.9111 139.8 84.9111 139.445C84.9111 139.132 84.9727 138.879 85.0958 138.685C85.2189 138.488 85.3834 138.334 85.5894 138.223C85.7953 138.112 86.0226 138.029 86.2712 137.974C86.5221 137.918 86.7743 137.873 87.0276 137.84C87.359 137.797 87.6277 137.765 87.8337 137.744C88.042 137.72 88.1935 137.681 88.2882 137.626C88.3853 137.572 88.4338 137.477 88.4338 137.342V137.314C88.4338 136.964 88.338 136.691 88.1462 136.497C87.9568 136.303 87.6692 136.206 87.2833 136.206C86.8832 136.206 86.5695 136.294 86.3422 136.469C86.1149 136.644 85.9551 136.831 85.8628 137.03L85.0674 136.746C85.2094 136.414 85.3988 136.156 85.6355 135.972C85.8747 135.785 86.1351 135.654 86.4168 135.581C86.7009 135.505 86.9802 135.467 87.2549 135.467C87.4301 135.467 87.6313 135.489 87.8586 135.531C88.0882 135.572 88.3096 135.656 88.5226 135.783C88.7381 135.911 88.9168 136.104 89.0588 136.362C89.2009 136.62 89.2719 136.966 89.2719 137.399V140.993H88.4338V140.254H88.3912C88.3344 140.373 88.2397 140.499 88.1071 140.634C87.9746 140.769 87.7982 140.884 87.578 140.979C87.3578 141.073 87.0891 141.121 86.7719 141.121ZM86.8997 140.368C87.2312 140.368 87.5105 140.303 87.7378 140.173C87.9675 140.042 88.1403 139.874 88.2563 139.668C88.3747 139.462 88.4338 139.246 88.4338 139.018V138.251C88.3983 138.294 88.3202 138.333 88.1995 138.369C88.0811 138.402 87.9438 138.431 87.7875 138.457C87.6337 138.481 87.4833 138.502 87.3365 138.521C87.1921 138.538 87.0749 138.552 86.985 138.564C86.7672 138.592 86.5636 138.639 86.3742 138.702C86.1872 138.764 86.0356 138.858 85.9196 138.983C85.806 139.106 85.7492 139.274 85.7492 139.487C85.7492 139.778 85.8569 139.999 86.0723 140.148C86.2901 140.295 86.5659 140.368 86.8997 140.368ZM90.8016 140.993V135.538H91.6112V136.391H91.6822C91.7959 136.099 91.9794 135.873 92.2327 135.712C92.486 135.549 92.7902 135.467 93.1453 135.467C93.5052 135.467 93.8046 135.549 94.0437 135.712C94.2852 135.873 94.4734 136.099 94.6084 136.391H94.6652C94.8049 136.109 95.0144 135.885 95.2937 135.719C95.5731 135.551 95.9081 135.467 96.2987 135.467C96.7864 135.467 97.1853 135.62 97.4955 135.925C97.8056 136.228 97.9607 136.701 97.9607 137.342V140.993H97.1226V137.342C97.1226 136.94 97.0125 136.652 96.7923 136.479C96.5722 136.307 96.3129 136.22 96.0146 136.22C95.6311 136.22 95.334 136.336 95.1233 136.568C94.9126 136.798 94.8072 137.089 94.8072 137.442V140.993H93.955V137.257C93.955 136.947 93.8544 136.697 93.6531 136.508C93.4519 136.316 93.1927 136.22 92.8754 136.22C92.6576 136.22 92.454 136.278 92.2646 136.394C92.0776 136.51 91.9261 136.671 91.8101 136.877C91.6964 137.081 91.6396 137.316 91.6396 137.584V140.993H90.8016ZM101.78 141.107C101.254 141.107 100.801 140.991 100.42 140.759C100.041 140.524 99.7486 140.197 99.5427 139.778C99.3391 139.357 99.2373 138.867 99.2373 138.308C99.2373 137.75 99.3391 137.257 99.5427 136.831C99.7486 136.402 100.035 136.069 100.402 135.83C100.771 135.588 101.202 135.467 101.695 135.467C101.979 135.467 102.259 135.515 102.536 135.609C102.813 135.704 103.065 135.858 103.293 136.071C103.52 136.282 103.701 136.561 103.836 136.909C103.971 137.257 104.038 137.686 104.038 138.195V138.55H99.8339V137.825H103.186C103.186 137.518 103.125 137.243 103.001 137.001C102.881 136.76 102.708 136.569 102.483 136.43C102.26 136.29 101.998 136.22 101.695 136.22C101.361 136.22 101.072 136.303 100.828 136.469C100.587 136.632 100.401 136.845 100.271 137.108C100.14 137.371 100.075 137.652 100.075 137.953V138.436C100.075 138.848 100.146 139.197 100.288 139.484C100.433 139.768 100.633 139.984 100.889 140.134C101.144 140.28 101.441 140.354 101.78 140.354C102 140.354 102.199 140.323 102.376 140.261C102.556 140.197 102.711 140.103 102.842 139.977C102.972 139.849 103.073 139.691 103.144 139.501L103.953 139.729C103.868 140.003 103.725 140.245 103.524 140.453C103.322 140.659 103.074 140.82 102.778 140.936C102.482 141.05 102.149 141.107 101.78 141.107Z" fill="#FBE5C8"/>
<path d="M183.096 100V98.0114L189.248 91.6371C189.905 90.9446 190.447 90.3379 190.873 89.8171C191.305 89.2904 191.628 88.7902 191.841 88.3168C192.054 87.8433 192.16 87.3402 192.16 86.8075C192.16 86.2038 192.018 85.683 191.734 85.245C191.45 84.8011 191.062 84.4608 190.571 84.2241C190.08 83.9814 189.527 83.8601 188.911 83.8601C188.26 83.8601 187.692 83.9933 187.207 84.2596C186.721 84.5259 186.348 84.9018 186.088 85.3871C185.828 85.8724 185.697 86.4406 185.697 87.0916H183.078C183.078 85.9848 183.333 85.0172 183.842 84.1886C184.351 83.36 185.049 82.7178 185.937 82.2621C186.825 81.8004 187.834 81.5696 188.964 81.5696C190.107 81.5696 191.113 81.7975 191.983 82.2532C192.859 82.703 193.542 83.3185 194.034 84.0998C194.525 84.8751 194.77 85.7511 194.77 86.7276C194.77 87.4023 194.643 88.0623 194.389 88.7074C194.14 89.3525 193.705 90.0716 193.084 90.8647C192.462 91.6519 191.598 92.6077 190.491 93.7322L186.878 97.5142V97.6474H195.063V100H183.096ZM204.758 100.249C203.539 100.249 202.45 100.038 201.491 99.6183C200.538 99.198 199.783 98.6151 199.227 97.8693C198.677 97.1177 198.381 96.2476 198.339 95.2592H201.127C201.163 95.7978 201.343 96.2654 201.669 96.6619C202 97.0526 202.432 97.3544 202.965 97.5675C203.497 97.7805 204.089 97.8871 204.74 97.8871C205.456 97.8871 206.09 97.7628 206.64 97.5142C207.196 97.2656 207.631 96.9194 207.945 96.4755C208.259 96.0257 208.416 95.5078 208.416 94.9219C208.416 94.3123 208.259 93.7766 207.945 93.315C207.637 92.8474 207.185 92.4805 206.587 92.2141C205.995 91.9478 205.279 91.8146 204.438 91.8146H202.903V89.5774H204.438C205.113 89.5774 205.705 89.4561 206.214 89.2134C206.729 88.9708 207.131 88.6334 207.421 88.2013C207.711 87.7634 207.856 87.2514 207.856 86.6655C207.856 86.1032 207.729 85.6149 207.475 85.2006C207.226 84.7804 206.871 84.4519 206.409 84.2152C205.954 83.9785 205.415 83.8601 204.794 83.8601C204.202 83.8601 203.648 83.9696 203.133 84.1886C202.624 84.4016 202.21 84.7094 201.89 85.1119C201.571 85.5084 201.399 85.9848 201.376 86.5412H198.721C198.751 85.5587 199.041 84.6946 199.591 83.9489C200.147 83.2031 200.881 82.6201 201.793 82.1999C202.704 81.7797 203.716 81.5696 204.829 81.5696C205.995 81.5696 207.001 81.7975 207.848 82.2532C208.7 82.703 209.357 83.3037 209.818 84.0554C210.286 84.8071 210.517 85.6297 210.511 86.5234C210.517 87.5414 210.233 88.4055 209.659 89.1158C209.09 89.826 208.333 90.3024 207.386 90.5451V90.6871C208.593 90.8706 209.528 91.35 210.191 92.1254C210.86 92.9007 211.192 93.8625 211.186 95.0107C211.192 96.0109 210.913 96.9076 210.351 97.7006C209.795 98.4937 209.034 99.1181 208.069 99.5739C207.105 100.024 206.001 100.249 204.758 100.249ZM214.16 96.4489V94.2294L222.017 81.8182H223.765V85.0852H222.656L217.036 93.9808V94.1229H227.805V96.4489H214.16ZM222.78 100V95.7741L222.798 94.7621V81.8182H225.399V100H222.78ZM236.9 100.249C235.788 100.249 234.787 100.036 233.9 99.6094C233.018 99.1773 232.313 98.5855 231.787 97.8338C231.26 97.0821 230.979 96.224 230.943 95.2592H233.607C233.672 96.0405 234.018 96.6826 234.645 97.1857C235.273 97.6888 236.024 97.9403 236.9 97.9403C237.599 97.9403 238.217 97.7805 238.756 97.4609C239.3 97.1354 239.726 96.6886 240.034 96.1204C240.348 95.5522 240.505 94.9041 240.505 94.1761C240.505 93.4363 240.345 92.7764 240.025 92.1964C239.706 91.6164 239.265 91.1606 238.702 90.8292C238.146 90.4978 237.507 90.3291 236.785 90.3232C236.234 90.3232 235.681 90.4179 235.125 90.6072C234.568 90.7966 234.119 91.0452 233.775 91.353L231.263 90.9801L232.284 81.8182H242.28V84.1708H234.565L233.988 89.2578H234.095C234.45 88.9145 234.92 88.6275 235.506 88.3967C236.098 88.1658 236.732 88.0504 237.406 88.0504C238.513 88.0504 239.499 88.3138 240.363 88.8406C241.233 89.3673 241.916 90.0864 242.413 90.9979C242.916 91.9034 243.165 92.9451 243.159 94.1229C243.165 95.3007 242.899 96.3512 242.36 97.2745C241.827 98.1978 241.088 98.9258 240.141 99.4585C239.2 99.9852 238.119 100.249 236.9 100.249Z" fill="#FBE5C8"/>
<path d="M173.674 90.7535L173.683 92.2531L171.551 92.1718L172.797 93.8792L171.469 94.6832L170.412 92.768L169.365 94.6922L168.055 93.8972L169.265 92.1809L167.16 92.2802L167.151 90.7806L169.256 90.889L168.028 89.1636L169.337 88.3596L170.394 90.2748L171.442 88.3506L172.779 89.1455L171.542 90.88L173.674 90.7535Z" fill="#FBE5C8"/>
<path d="M162.698 90.7987L162.707 92.2983L160.575 92.217L161.821 93.9243L160.494 94.7283L159.437 92.8132L158.389 94.7374L157.079 93.9424L158.289 92.226L156.184 92.3344L156.175 90.8348L158.28 90.9432L157.052 89.2178L158.362 88.4138L159.428 90.329L160.475 88.4048L161.812 89.1997L160.584 90.9342L162.698 90.7987Z" fill="#FBE5C8"/>
<path d="M151.713 90.8439L151.722 92.3435L149.59 92.2622L150.837 93.9695L149.509 94.7735L148.452 92.8584L147.404 94.7825L146.094 93.9876L147.304 92.2712L145.2 92.3796L145.191 90.88L147.295 90.9884L146.067 89.263L147.377 88.459L148.434 90.3741L149.482 88.45L150.818 89.2449L149.581 90.9794L151.713 90.8439Z" fill="#FBE5C8"/>
<path d="M140.737 90.889L140.746 92.3886L138.614 92.3073L139.861 94.0147L138.533 94.8187L137.476 92.9035L136.428 94.8277L135.118 94.0327L136.329 92.3164L134.224 92.4248L134.215 90.9252L136.319 91.0336L135.091 89.3081L136.401 88.5042L137.458 90.4193L138.506 88.4951L139.843 89.2901L138.605 91.0245L140.737 90.889Z" fill="#FBE5C8"/>
<path d="M122.155 90.9703L122.164 92.4699L120.032 92.3886L121.278 94.096L119.95 94.9L118.885 92.9848L117.837 94.909L116.518 94.114L117.728 92.3977L115.623 92.5061L115.614 91.0065L117.719 91.1149L116.491 89.3894L117.8 88.5855L118.866 90.5006L119.914 88.5764L121.251 89.3714L120.023 91.1058L122.155 90.9703Z" fill="#FBE5C8"/>
<path d="M111.179 91.0245L111.188 92.5241L109.056 92.4428L110.303 94.1502L108.975 94.9542L107.918 93.039L106.87 94.9632L105.56 94.1682L106.77 92.4518L104.666 92.5603L104.657 91.0607L106.761 91.1691L105.533 89.4436L106.843 88.6396L107.909 90.5548L108.957 88.6306L110.294 89.4256L109.065 91.16L111.179 91.0245Z" fill="#FBE5C8"/>
<path d="M100.194 91.0697L100.203 92.5693L98.0709 92.488L99.3176 94.1953L97.9896 94.9993L96.9327 93.0842L95.8848 95.0084L94.5749 94.2134L95.7854 92.497L93.6806 92.6054L93.6715 91.1058L95.7764 91.2142L94.5478 89.4888L95.8577 88.6848L96.9237 90.5999L97.9716 88.6758L99.3085 89.4707L98.08 91.2052L100.194 91.0697Z" fill="#FBE5C8"/>
<path d="M89.2181 91.1149L89.2271 92.6145L87.0951 92.5331L88.3418 94.2405L87.0138 95.0445L85.9569 93.1294L84.909 95.0535L83.5991 94.2586L84.8096 92.5422L82.7048 92.6416L82.6958 91.142L84.8006 91.2504L83.572 89.5249L84.8819 88.7209L85.9388 90.6361L86.9867 88.7119L88.3237 89.5069L87.0861 91.2413L89.2181 91.1149Z" fill="#FBE5C8"/>
<path d="M49.2514 93.3952C50.032 93.3952 50.6649 92.7624 50.6649 91.9818C50.6649 91.2012 50.032 90.5684 49.2514 90.5684C48.4708 90.5684 47.838 91.2012 47.838 91.9818C47.838 92.7624 48.4708 93.3952 49.2514 93.3952Z" fill="#FBE5C8" stroke="#FBE5C8" stroke-linecap="round" stroke-linejoin="round"/>
<path d="M61.9724 91.9818C61.9724 91.9818 56.3186 100.462 49.2514 100.462C42.1842 100.462 36.5304 91.9818 36.5304 91.9818C36.5304 91.9818 42.1842 83.5011 49.2514 83.5011C56.3186 83.5011 61.9724 91.9818 61.9724 91.9818Z" stroke="#FBE5C8" stroke-linecap="round" stroke-linejoin="round"/>
<path d="M251.905 47.1801C258.286 47.1801 263.459 42.0072 263.459 35.6261C263.459 29.2449 258.286 24.072 251.905 24.072C245.524 24.072 240.351 29.2449 240.351 35.6261C240.351 42.0072 245.524 47.1801 251.905 47.1801Z" fill="#FBE5C8"/>
<path d="M267.362 47.1172C260.993 47.1443 255.78 41.9861 255.753 35.6083C255.726 29.2306 260.893 24.0272 267.262 24.0001C273.631 23.973 278.843 29.1312 278.87 35.509C278.898 41.8867 273.739 47.0901 267.362 47.1172ZM267.28 27.8484C263.034 27.8665 259.593 31.3354 259.611 35.5903C259.629 39.8361 263.098 43.2779 267.353 43.2599C271.598 43.2418 275.04 39.7729 275.022 35.518C275.004 31.2722 271.526 27.8304 267.28 27.8484Z" fill="#FBE5C8"/>
<path d="M20.7614 68.0342V53.4887H25.8466C26.8598 53.4887 27.6955 53.6639 28.3537 54.0143C29.0118 54.3599 29.5019 54.8263 29.8239 55.4134C30.1458 55.9958 30.3068 56.6421 30.3068 57.3524C30.3068 57.9774 30.1955 58.4935 29.973 58.9007C29.7552 59.3079 29.4664 59.6298 29.1065 59.8666C28.7514 60.1033 28.3655 60.2785 27.9489 60.3921V60.5342C28.3939 60.5626 28.8414 60.7188 29.2912 61.0029C29.741 61.287 30.1174 61.6942 30.4205 62.2245C30.7235 62.7548 30.875 63.4035 30.875 64.1705C30.875 64.8997 30.7093 65.5555 30.3778 66.1379C30.0464 66.7203 29.5232 67.1819 28.8082 67.5228C28.0933 67.8637 27.1629 68.0342 26.017 68.0342H20.7614ZM22.5227 66.4717H26.017C27.1676 66.4717 27.9844 66.2491 28.4673 65.8041C28.955 65.3543 29.1989 64.8097 29.1989 64.1705C29.1989 63.6781 29.0734 63.2236 28.8224 62.8069C28.5715 62.3855 28.214 62.0493 27.75 61.7984C27.286 61.5427 26.7367 61.4149 26.1023 61.4149H22.5227V66.4717ZM22.5227 59.8808H25.7898C26.3201 59.8808 26.7983 59.7766 27.2244 59.5683C27.6553 59.3599 27.9962 59.0664 28.2472 58.6876C28.5028 58.3088 28.6307 57.8637 28.6307 57.3524C28.6307 56.7132 28.4081 56.171 27.9631 55.7259C27.518 55.2761 26.8125 55.0512 25.8466 55.0512H22.5227V59.8808ZM36.7521 68.2899C36.0608 68.2899 35.4335 68.1597 34.87 67.8992C34.3066 67.6341 33.8591 67.2529 33.5277 66.7558C33.1963 66.2539 33.0305 65.6478 33.0305 64.9376C33.0305 64.3126 33.1536 63.806 33.3999 63.4177C33.6461 63.0247 33.9751 62.7169 34.3871 62.4944C34.799 62.2719 35.2536 62.1061 35.7507 61.9972C36.2526 61.8836 36.7569 61.7936 37.2635 61.7274C37.9264 61.6421 38.4638 61.5782 38.8757 61.5356C39.2924 61.4883 39.5954 61.4101 39.7848 61.3012C39.9789 61.1923 40.076 61.0029 40.076 60.733V60.6762C40.076 59.9755 39.8842 59.431 39.5007 59.0427C39.1219 58.6544 38.5466 58.4603 37.7749 58.4603C36.9747 58.4603 36.3473 58.6355 35.8928 58.9859C35.4382 59.3363 35.1186 59.7103 34.9339 60.108L33.343 59.5399C33.6271 58.877 34.0059 58.3609 34.4794 57.9916C34.9576 57.6175 35.4785 57.3571 36.0419 57.2103C36.6101 57.0588 37.1688 56.983 37.718 56.983C38.0684 56.983 38.4709 57.0257 38.9254 57.1109C39.3847 57.1914 39.8274 57.3595 40.2536 57.6151C40.6844 57.8708 41.0419 58.2567 41.326 58.7728C41.6101 59.2889 41.7521 59.9802 41.7521 60.8467V68.0342H40.076V66.5569H39.9908C39.8771 66.7936 39.6877 67.047 39.4226 67.3169C39.1574 67.5867 38.8047 67.8164 38.3643 68.0058C37.924 68.1952 37.3866 68.2899 36.7521 68.2899ZM37.0078 66.7842C37.6707 66.7842 38.2294 66.654 38.6839 66.3936C39.1432 66.1331 39.4889 65.797 39.7209 65.385C39.9576 64.9731 40.076 64.5399 40.076 64.0853V62.5512C40.005 62.6365 39.8487 62.7146 39.6072 62.7856C39.3705 62.8519 39.0959 62.9111 38.7834 62.9632C38.4756 63.0105 38.175 63.0531 37.8814 63.091C37.5926 63.1241 37.3582 63.1526 37.1783 63.1762C36.7427 63.233 36.3355 63.3254 35.9567 63.4532C35.5826 63.5763 35.2796 63.7633 35.0476 64.0143C34.8203 64.2605 34.7067 64.5967 34.7067 65.0228C34.7067 65.6052 34.9221 66.0455 35.353 66.3438C35.7886 66.6374 36.3402 66.7842 37.0078 66.7842ZM46.4876 53.4887V68.0342H44.8114V53.4887H46.4876ZM52.7678 68.2899C52.0765 68.2899 51.4491 68.1597 50.8857 67.8992C50.3222 67.6341 49.8748 67.2529 49.5433 66.7558C49.2119 66.2539 49.0462 65.6478 49.0462 64.9376C49.0462 64.3126 49.1693 63.806 49.4155 63.4177C49.6617 63.0247 49.9908 62.7169 50.4027 62.4944C50.8146 62.2719 51.2692 62.1061 51.7663 61.9972C52.2682 61.8836 52.7725 61.7936 53.2791 61.7274C53.942 61.6421 54.4794 61.5782 54.8913 61.5356C55.308 61.4883 55.611 61.4101 55.8004 61.3012C55.9946 61.1923 56.0916 61.0029 56.0916 60.733V60.6762C56.0916 59.9755 55.8999 59.431 55.5163 59.0427C55.1375 58.6544 54.5623 58.4603 53.7905 58.4603C52.9903 58.4603 52.3629 58.6355 51.9084 58.9859C51.4538 59.3363 51.1342 59.7103 50.9496 60.108L49.3587 59.5399C49.6428 58.877 50.0215 58.3609 50.495 57.9916C50.9732 57.6175 51.4941 57.3571 52.0575 57.2103C52.6257 57.0588 53.1844 56.983 53.7337 56.983C54.084 56.983 54.4865 57.0257 54.9411 57.1109C55.4003 57.1914 55.843 57.3595 56.2692 57.6151C56.7 57.8708 57.0575 58.2567 57.3416 58.7728C57.6257 59.2889 57.7678 59.9802 57.7678 60.8467V68.0342H56.0916V66.5569H56.0064C55.8928 66.7936 55.7034 67.047 55.4382 67.3169C55.1731 67.5867 54.8203 67.8164 54.38 68.0058C53.9396 68.1952 53.4022 68.2899 52.7678 68.2899ZM53.0234 66.7842C53.6863 66.7842 54.245 66.654 54.6996 66.3936C55.1589 66.1331 55.5045 65.797 55.7365 65.385C55.9732 64.9731 56.0916 64.5399 56.0916 64.0853V62.5512C56.0206 62.6365 55.8643 62.7146 55.6229 62.7856C55.3861 62.8519 55.1115 62.9111 54.799 62.9632C54.4912 63.0105 54.1906 63.0531 53.897 63.091C53.6082 63.1241 53.3738 63.1526 53.1939 63.1762C52.7583 63.233 52.3511 63.3254 51.9723 63.4532C51.5982 63.5763 51.2952 63.7633 51.0632 64.0143C50.8359 64.2605 50.7223 64.5967 50.7223 65.0228C50.7223 65.6052 50.9377 66.0455 51.3686 66.3438C51.8042 66.6374 52.3558 66.7842 53.0234 66.7842ZM62.5032 61.4717V68.0342H60.8271V57.1251H62.4464V58.8296H62.5884C62.8441 58.2757 63.2324 57.8306 63.7532 57.4944C64.274 57.1535 64.9464 56.983 65.7702 56.983C66.5089 56.983 67.1552 57.1346 67.7092 57.4376C68.2631 57.7359 68.694 58.1904 69.0018 58.8012C69.3095 59.4073 69.4634 60.1743 69.4634 61.1024V68.0342H67.7873V61.216C67.7873 60.359 67.5647 59.6914 67.1197 59.2132C66.6746 58.7302 66.0638 58.4887 65.2873 58.4887C64.7522 58.4887 64.274 58.6047 63.8526 58.8367C63.436 59.0687 63.1069 59.4073 62.8654 59.8524C62.6239 60.2974 62.5032 60.8372 62.5032 61.4717ZM76.9581 68.2615C75.9354 68.2615 75.0547 68.02 74.3161 67.537C73.5774 67.0541 73.0092 66.3888 72.6115 65.5413C72.2138 64.6937 72.0149 63.7255 72.0149 62.6365C72.0149 61.5285 72.2185 60.5508 72.6257 59.7032C73.0376 58.8509 73.6106 58.1857 74.3445 57.7075C75.0831 57.2245 75.9448 56.983 76.9297 56.983C77.6967 56.983 78.388 57.1251 79.0036 57.4092C79.6191 57.6933 80.1233 58.091 80.5163 58.6024C80.9093 59.1137 81.1532 59.7103 81.2479 60.3921H79.5717C79.4439 59.895 79.1598 59.4546 78.7195 59.0711C78.2839 58.6829 77.6967 58.4887 76.9581 58.4887C76.3047 58.4887 75.7318 58.6592 75.2393 59.0001C74.7517 59.3363 74.3705 59.8121 74.0959 60.4276C73.826 61.0384 73.6911 61.7558 73.6911 62.5796C73.6911 63.4224 73.8236 64.1563 74.0888 64.7813C74.3587 65.4063 74.7375 65.8917 75.2251 66.2373C75.7176 66.5829 76.2952 66.7558 76.9581 66.7558C77.3937 66.7558 77.7891 66.68 78.1442 66.5285C78.4993 66.377 78.8 66.1592 79.0462 65.8751C79.2924 65.591 79.4676 65.2501 79.5717 64.8524H81.2479C81.1532 65.4963 80.9188 66.0763 80.5447 66.5924C80.1754 67.1038 79.6854 67.511 79.0746 67.814C78.4685 68.1123 77.763 68.2615 76.9581 68.2615ZM88.272 68.2615C87.2209 68.2615 86.3142 68.0294 85.5518 67.5654C84.7943 67.0967 84.2095 66.4433 83.7976 65.6052C83.3904 64.7624 83.1868 63.7823 83.1868 62.6649C83.1868 61.5474 83.3904 60.5626 83.7976 59.7103C84.2095 58.8533 84.7824 58.1857 85.5163 57.7075C86.255 57.2245 87.1167 56.983 88.1016 56.983C88.6697 56.983 89.2308 57.0777 89.7848 57.2671C90.3388 57.4565 90.843 57.7643 91.2976 58.1904C91.7521 58.6118 92.1143 59.1705 92.3842 59.8666C92.6541 60.5626 92.7891 61.4196 92.7891 62.4376V63.1478H84.38V61.699H91.0845C91.0845 61.0834 90.9614 60.5342 90.7152 60.0512C90.4737 59.5683 90.1281 59.1871 89.6783 58.9078C89.2332 58.6284 88.7076 58.4887 88.1016 58.4887C87.4339 58.4887 86.8563 58.6544 86.3686 58.9859C85.8857 59.3126 85.514 59.7387 85.2536 60.2643C84.9931 60.7899 84.8629 61.3533 84.8629 61.9546V62.9205C84.8629 63.7444 85.005 64.4428 85.2891 65.0157C85.5779 65.5839 85.978 66.0171 86.4893 66.3154C87.0007 66.609 87.5949 66.7558 88.272 66.7558C88.7124 66.7558 89.1101 66.6942 89.4652 66.5711C89.825 66.4433 90.1352 66.2539 90.3956 66.0029C90.656 65.7472 90.8572 65.43 90.9993 65.0512L92.6186 65.5058C92.4482 66.055 92.1617 66.538 91.7592 66.9546C91.3568 67.3666 90.8596 67.6885 90.2678 67.9205C89.6759 68.1478 89.0107 68.2615 88.272 68.2615ZM109.856 58.6308L109.202 60.0512H99.9411L100.452 58.6308H109.856ZM108.634 61.4717L107.981 62.8921H99.9411L100.452 61.4717H108.634ZM111.532 54.7955L110.85 56.2728C110.547 55.9982 110.228 55.7615 109.891 55.5626C109.555 55.3637 109.202 55.2098 108.833 55.1009C108.464 54.992 108.076 54.9376 107.668 54.9376C106.863 54.9376 106.139 55.1601 105.495 55.6052C104.851 56.0503 104.342 56.7061 103.968 57.5725C103.594 58.439 103.407 59.502 103.407 60.7615C103.407 62.0209 103.594 63.0839 103.968 63.9504C104.342 64.8169 104.851 65.4726 105.495 65.9177C106.139 66.3628 106.863 66.5853 107.668 66.5853C108.085 66.5853 108.478 66.5309 108.847 66.422C109.221 66.3131 109.569 66.1639 109.891 65.9745C110.218 65.7851 110.519 65.5721 110.793 65.3353L111.504 66.8126C111.006 67.2813 110.424 67.6365 109.756 67.8779C109.089 68.1147 108.393 68.233 107.668 68.233C106.504 68.233 105.471 67.93 104.572 67.324C103.677 66.7179 102.974 65.8561 102.462 64.7387C101.956 63.6213 101.702 62.2955 101.702 60.7615C101.702 59.2274 101.956 57.9016 102.462 56.7842C102.974 55.6668 103.677 54.805 104.572 54.199C105.471 53.5929 106.504 53.2899 107.668 53.2899C108.421 53.2899 109.124 53.4201 109.778 53.6805C110.436 53.9409 111.021 54.3126 111.532 54.7955ZM114.236 68.0342V66.7558L119.037 61.5001C119.601 60.8846 120.065 60.3495 120.429 59.895C120.794 59.4357 121.064 59.0048 121.239 58.6024C121.419 58.1952 121.509 57.769 121.509 57.324C121.509 56.8126 121.386 56.3699 121.14 55.9958C120.898 55.6218 120.567 55.3329 120.145 55.1293C119.724 54.9258 119.25 54.824 118.725 54.824C118.166 54.824 117.678 54.94 117.262 55.172C116.85 55.3992 116.53 55.7188 116.303 56.1308C116.08 56.5427 115.969 57.0257 115.969 57.5796H114.293C114.293 56.7274 114.489 55.9793 114.882 55.3353C115.275 54.6914 115.81 54.1895 116.488 53.8296C117.169 53.4698 117.934 53.2899 118.782 53.2899C119.634 53.2899 120.389 53.4698 121.047 53.8296C121.705 54.1895 122.221 54.6748 122.596 55.2856C122.97 55.8964 123.157 56.5758 123.157 57.324C123.157 57.859 123.06 58.3822 122.865 58.8936C122.676 59.4002 122.345 59.966 121.871 60.591C121.402 61.2113 120.751 61.9688 119.918 62.8637L116.651 66.358V66.4717H123.412V68.0342H114.236ZM127.596 68.1478C127.245 68.1478 126.944 68.0223 126.694 67.7714C126.443 67.5204 126.317 67.2198 126.317 66.8694C126.317 66.519 126.443 66.2184 126.694 65.9674C126.944 65.7165 127.245 65.591 127.596 65.591C127.946 65.591 128.247 65.7165 128.498 65.9674C128.748 66.2184 128.874 66.519 128.874 66.8694C128.874 67.1014 128.815 67.3145 128.696 67.5086C128.583 67.7027 128.429 67.859 128.235 67.9774C128.045 68.091 127.832 68.1478 127.596 68.1478ZM132.015 68.0342L138.521 55.1649V55.0512H131.021V53.4887H140.339V55.1365L133.862 68.0342H132.015ZM147.336 68.233C146.503 68.233 145.752 68.0673 145.085 67.7359C144.417 67.4044 143.882 66.9499 143.48 66.3722C143.077 65.7946 142.857 65.1365 142.819 64.3978H144.524C144.59 65.056 144.888 65.6005 145.419 66.0313C145.954 66.4575 146.593 66.6705 147.336 66.6705C147.933 66.6705 148.463 66.5309 148.927 66.2515C149.396 65.9722 149.763 65.5886 150.028 65.1009C150.298 64.6085 150.433 64.0522 150.433 63.4319C150.433 62.7974 150.293 62.2316 150.014 61.7345C149.739 61.2326 149.36 60.8372 148.877 60.5484C148.395 60.2596 147.843 60.1128 147.223 60.108C146.778 60.1033 146.321 60.172 145.852 60.314C145.383 60.4513 144.997 60.6289 144.694 60.8467L143.047 60.6478L143.927 53.4887H151.484V55.0512H145.404L144.893 59.341H144.978C145.277 59.1043 145.651 58.9078 146.1 58.7515C146.55 58.5953 147.019 58.5171 147.507 58.5171C148.397 58.5171 149.19 58.7302 149.886 59.1563C150.587 59.5777 151.136 60.1554 151.534 60.8893C151.936 61.6232 152.137 62.4613 152.137 63.4035C152.137 64.3315 151.929 65.1601 151.512 65.8893C151.1 66.6137 150.532 67.1866 149.808 67.608C149.083 68.0247 148.26 68.233 147.336 68.233ZM159.703 68.233C158.633 68.233 157.722 67.9419 156.969 67.3595C156.216 66.7723 155.641 65.9224 155.243 64.8097C154.845 63.6923 154.646 62.3429 154.646 60.7615C154.646 59.1895 154.845 57.8472 155.243 56.7345C155.645 55.617 156.223 54.7648 156.976 54.1776C157.733 53.5858 158.643 53.2899 159.703 53.2899C160.764 53.2899 161.67 53.5858 162.423 54.1776C163.181 54.7648 163.759 55.617 164.156 56.7345C164.559 57.8472 164.76 59.1895 164.76 60.7615C164.76 62.3429 164.561 63.6923 164.163 64.8097C163.766 65.9224 163.19 66.7723 162.438 67.3595C161.685 67.9419 160.773 68.233 159.703 68.233ZM159.703 66.6705C160.764 66.6705 161.588 66.1592 162.175 65.1365C162.762 64.1137 163.055 62.6554 163.055 60.7615C163.055 59.502 162.92 58.4295 162.651 57.5441C162.385 56.6587 162.002 55.984 161.5 55.52C161.003 55.056 160.404 54.824 159.703 54.824C158.652 54.824 157.83 55.3424 157.239 56.3793C156.647 57.4115 156.351 58.8722 156.351 60.7615C156.351 62.0209 156.483 63.091 156.749 63.9717C157.014 64.8524 157.395 65.5223 157.892 65.9816C158.394 66.4409 158.998 66.6705 159.703 66.6705ZM169.479 66.0455L169.366 66.8126C169.285 67.3524 169.162 67.93 168.996 68.5455C168.835 69.1611 168.667 69.7411 168.492 70.2856C168.317 70.8301 168.173 71.2633 168.059 71.5853H166.781C166.842 71.2823 166.923 70.8822 167.022 70.385C167.121 69.8879 167.221 69.3315 167.32 68.716C167.424 68.1052 167.51 67.4802 167.576 66.841L167.661 66.0455H169.479ZM176.793 68.233C175.723 68.233 174.811 67.9419 174.059 67.3595C173.306 66.7723 172.73 65.9224 172.333 64.8097C171.935 63.6923 171.736 62.3429 171.736 60.7615C171.736 59.1895 171.935 57.8472 172.333 56.7345C172.735 55.617 173.313 54.7648 174.066 54.1776C174.823 53.5858 175.732 53.2899 176.793 53.2899C177.854 53.2899 178.76 53.5858 179.513 54.1776C180.271 54.7648 180.848 55.617 181.246 56.7345C181.649 57.8472 181.85 59.1895 181.85 60.7615C181.85 62.3429 181.651 63.6923 181.253 64.8097C180.855 65.9224 180.28 66.7723 179.527 67.3595C178.775 67.9419 177.863 68.233 176.793 68.233ZM176.793 66.6705C177.854 66.6705 178.677 66.1592 179.265 65.1365C179.852 64.1137 180.145 62.6554 180.145 60.7615C180.145 59.502 180.01 58.4295 179.74 57.5441C179.475 56.6587 179.092 55.984 178.59 55.52C178.093 55.056 177.494 54.824 176.793 54.824C175.742 54.824 174.92 55.3424 174.328 56.3793C173.737 57.4115 173.441 58.8722 173.441 60.7615C173.441 62.0209 173.573 63.091 173.838 63.9717C174.104 64.8524 174.485 65.5223 174.982 65.9816C175.484 66.4409 176.087 66.6705 176.793 66.6705ZM189.662 53.4887V68.0342H187.901V55.3353H187.816L184.265 57.6933V55.9035L187.901 53.4887H189.662Z" fill="#FBE5C8"/>
<path d="M22.5227 31.1352V45.6807H20.7614V31.1352H22.5227ZM37.5884 31.1352V45.6807H35.8839L27.9577 34.2602H27.8157V45.6807H26.0543V31.1352H27.7589L35.7134 42.5841H35.8555V31.1352H37.5884ZM51.0561 35.6807C50.8999 35.2024 50.6939 34.7739 50.4382 34.3952C50.1873 34.0116 49.8866 33.6849 49.5362 33.415C49.1906 33.1452 48.7976 32.9392 48.3572 32.7971C47.9169 32.6551 47.4339 32.5841 46.9084 32.5841C46.0466 32.5841 45.263 32.8066 44.5575 33.2517C43.852 33.6968 43.291 34.3525 42.8743 35.219C42.4576 36.0855 42.2493 37.1485 42.2493 38.4079C42.2493 39.6674 42.46 40.7304 42.8814 41.5969C43.3028 42.4633 43.8733 43.1191 44.593 43.5642C45.3127 44.0093 46.1224 44.2318 47.022 44.2318C47.8554 44.2318 48.5893 44.0542 49.2237 43.6991C49.8629 43.3393 50.3601 42.8327 50.7152 42.1792C51.075 41.5211 51.255 40.747 51.255 39.8568L51.7947 39.9704H47.4197V38.4079H52.9595V39.9704C52.9595 41.1684 52.7038 42.21 52.1925 43.0954C51.6858 43.9809 50.9851 44.6674 50.0902 45.1551C49.2 45.6381 48.1773 45.8795 47.022 45.8795C45.7341 45.8795 44.6025 45.5765 43.6271 44.9704C42.6565 44.3644 41.8989 43.5026 41.3544 42.3852C40.8146 41.2678 40.5447 39.942 40.5447 38.4079C40.5447 37.2574 40.6986 36.2228 41.0064 35.3042C41.3189 34.3809 41.7592 33.595 42.3274 32.9463C42.8956 32.2976 43.5679 31.8005 44.3445 31.4548C45.121 31.1092 45.9756 30.9363 46.9084 30.9363C47.6754 30.9363 48.3904 31.0523 49.0533 31.2844C49.7209 31.5116 50.3151 31.836 50.8359 32.2574C51.3615 32.674 51.7995 33.1736 52.1499 33.7559C52.5002 34.3336 52.7417 34.9752 52.8743 35.6807H51.0561ZM61.6012 45.6807V31.1352H66.6864C67.6997 31.1352 68.5354 31.3104 69.1935 31.6608C69.8517 32.0064 70.3417 32.4728 70.6637 33.0599C70.9857 33.6423 71.1467 34.2886 71.1467 34.9988C71.1467 35.6238 71.0354 36.1399 70.8129 36.5471C70.5951 36.9543 70.3062 37.2763 69.9464 37.5131C69.5913 37.7498 69.2054 37.925 68.7887 38.0386V38.1807C69.2338 38.2091 69.6812 38.3653 70.131 38.6494C70.5808 38.9335 70.9573 39.3407 71.2603 39.871C71.5633 40.4013 71.7148 41.05 71.7148 41.817C71.7148 42.5462 71.5491 43.202 71.2177 43.7844C70.8862 44.3667 70.363 44.8284 69.6481 45.1693C68.9331 45.5102 68.0027 45.6807 66.8569 45.6807H61.6012ZM63.3626 44.1182H66.8569C68.0075 44.1182 68.8242 43.8956 69.3072 43.4506C69.7949 43.0007 70.0387 42.4562 70.0387 41.817C70.0387 41.3246 69.9132 40.8701 69.6623 40.4534C69.4113 40.032 69.0539 39.6958 68.5898 39.4449C68.1258 39.1892 67.5766 39.0613 66.9421 39.0613H63.3626V44.1182ZM63.3626 37.5273H66.6296C67.1599 37.5273 67.6381 37.4231 68.0643 37.2148C68.4951 37.0064 68.8361 36.7129 69.087 36.3341C69.3427 35.9553 69.4705 35.5102 69.4705 34.9988C69.4705 34.3596 69.248 33.8175 68.8029 33.3724C68.3578 32.9226 67.6523 32.6977 66.6864 32.6977H63.3626V37.5273ZM77.592 45.9363C76.9007 45.9363 76.2733 45.8061 75.7099 45.5457C75.1464 45.2806 74.699 44.8994 74.3675 44.4023C74.0361 43.9004 73.8704 43.2943 73.8704 42.5841C73.8704 41.9591 73.9935 41.4524 74.2397 41.0642C74.4859 40.6712 74.815 40.3634 75.2269 40.1409C75.6388 39.9184 76.0934 39.7526 76.5906 39.6437C77.0924 39.5301 77.5967 39.4401 78.1033 39.3738C78.7662 39.2886 79.3036 39.2247 79.7156 39.1821C80.1322 39.1347 80.4353 39.0566 80.6246 38.9477C80.8188 38.8388 80.9158 38.6494 80.9158 38.3795V38.3227C80.9158 37.622 80.7241 37.0774 80.3406 36.6892C79.9618 36.3009 79.3865 36.1068 78.6147 36.1068C77.8145 36.1068 77.1871 36.282 76.7326 36.6324C76.2781 36.9827 75.9585 37.3568 75.7738 37.7545L74.1829 37.1863C74.467 36.5235 74.8458 36.0074 75.3192 35.6381C75.7975 35.264 76.3183 35.0036 76.8817 34.8568C77.4499 34.7053 78.0086 34.6295 78.5579 34.6295C78.9083 34.6295 79.3107 34.6721 79.7653 34.7574C80.2246 34.8379 80.6673 35.0059 81.0934 35.2616C81.5243 35.5173 81.8817 35.9032 82.1658 36.4193C82.4499 36.9354 82.592 37.6267 82.592 38.4932V45.6807H80.9158V44.2034H80.8306C80.717 44.4401 80.5276 44.6934 80.2624 44.9633C79.9973 45.2332 79.6445 45.4629 79.2042 45.6523C78.7638 45.8416 78.2264 45.9363 77.592 45.9363ZM77.8477 44.4307C78.5105 44.4307 79.0692 44.3005 79.5238 44.04C79.9831 43.7796 80.3287 43.4434 80.5607 43.0315C80.7975 42.6196 80.9158 42.1863 80.9158 41.7318V40.1977C80.8448 40.2829 80.6886 40.3611 80.4471 40.4321C80.2103 40.4984 79.9357 40.5576 79.6232 40.6096C79.3155 40.657 79.0148 40.6996 78.7212 40.7375C78.4324 40.7706 78.198 40.799 78.0181 40.8227C77.5825 40.8795 77.1753 40.9719 76.7965 41.0997C76.4225 41.2228 76.1194 41.4098 75.8874 41.6608C75.6602 41.907 75.5465 42.2432 75.5465 42.6693C75.5465 43.2517 75.762 43.692 76.1928 43.9903C76.6284 44.2839 77.18 44.4307 77.8477 44.4307ZM87.3274 39.1182V45.6807H85.6513V34.7716H87.2706V36.4761H87.4126C87.6683 35.9221 88.0566 35.4771 88.5774 35.1409C89.0982 34.8 89.7706 34.6295 90.5945 34.6295C91.3331 34.6295 91.9794 34.781 92.5334 35.0841C93.0874 35.3824 93.5182 35.8369 93.826 36.4477C94.1338 37.0538 94.2876 37.8208 94.2876 38.7488V45.6807H92.6115V38.8625C92.6115 38.0055 92.389 37.3379 91.9439 36.8596C91.4988 36.3767 90.888 36.1352 90.1115 36.1352C89.5765 36.1352 89.0982 36.2512 88.6768 36.4832C88.2602 36.7152 87.9311 37.0538 87.6896 37.4988C87.4482 37.9439 87.3274 38.4837 87.3274 39.1182ZM98.913 41.7034L98.8846 39.6295H99.2255L103.998 34.7716H106.072L100.987 39.9136H100.845L98.913 41.7034ZM97.3505 45.6807V31.1352H99.0266V45.6807H97.3505ZM104.282 45.6807L100.021 40.2829L101.214 39.1182L106.413 45.6807H104.282Z" fill="#FBE5C8"/>
<defs>
<linearGradient id="paint0_linear_509_266" x1="32.8801" y1="212.256" x2="267.122" y2="-22.2429" gradientUnits="userSpaceOnUse">
<stop stop-color="#00252E"/>
<stop offset="1" stop-color="#83F8A6"/>
</linearGradient>
<linearGradient id="paint1_linear_509_266" x1="13.2528" y1="144.899" x2="207.923" y2="144.793" gradientUnits="userSpaceOnUse">
<stop stop-color="#02CAFD"/>
<stop offset="1" stop-color="#83F8A6"/>
</linearGradient>
<linearGradient id="paint2_linear_509_266" x1="-35.0418" y1="115.981" x2="59.9075" y2="20.9275" gradientUnits="userSpaceOnUse">
<stop stop-color="#02CAFD"/>
<stop offset="1" stop-color="#83F8A6"/>
</linearGradient>
<linearGradient id="paint3_linear_509_266" x1="97.6454" y1="19.3875" x2="136.188" y2="-19.1972" gradientUnits="userSpaceOnUse">
<stop stop-color="#02CAFD"/>
<stop offset="1" stop-color="#83F8A6"/>
</linearGradient>
<linearGradient id="paint4_linear_509_266" x1="467.037" y1="182.029" x2="132.381" y2="-15.7997" gradientUnits="userSpaceOnUse">
<stop stop-color="#02CAFD"/>
<stop offset="1" stop-color="#83F8A6"/>
</linearGradient>
</defs>
</svg>
