<svg width="22" height="22" viewBox="0 0 22 22" fill="none" xmlns="http://www.w3.org/2000/svg">
<path d="M20.0923 8.48929H1.9077C1.04616 8.48929 0.67693 7.55082 1.35385 7.10467L10.4462 1.15082C10.614 1.05207 10.8052 1 11 1C11.1948 1 11.386 1.05207 11.5539 1.15082L20.6462 7.10467C21.3231 7.55082 20.9539 8.48929 20.0923 8.48929Z" stroke="#52706E" stroke-linecap="round" stroke-linejoin="round"/>
<path d="M20.2308 16.9508H1.76923C1.3444 16.9508 1 17.2952 1 17.7201V20.0278C1 20.4526 1.3444 20.797 1.76923 20.797H20.2308C20.6556 20.797 21 20.4526 21 20.0278V17.7201C21 17.2952 20.6556 16.9508 20.2308 16.9508Z" stroke="#52706E" stroke-linecap="round" stroke-linejoin="round"/>
<path d="M3.30769 8.48929V16.9508" stroke="#52706E" stroke-linecap="round" stroke-linejoin="round"/>
<path d="M7.15389 8.48929V16.9508" stroke="#52706E" stroke-linecap="round" stroke-linejoin="round"/>
<path d="M11 8.48929V16.9508" stroke="#52706E" stroke-linecap="round" stroke-linejoin="round"/>
<path d="M14.8461 8.48929V16.9508" stroke="#52706E" stroke-linecap="round" stroke-linejoin="round"/>
<path d="M18.6923 8.48929V16.9508" stroke="#52706E" stroke-linecap="round" stroke-linejoin="round"/>
</svg>
