<svg width="13" height="22" viewBox="0 0 13 22" fill="none" xmlns="http://www.w3.org/2000/svg">
<path d="M7.47692 10.1538C8.346 10.1039 9.1636 9.72549 9.76407 9.09524C10.3645 8.46498 10.703 7.63004 10.7108 6.75956C10.7186 5.88909 10.3952 5.04819 9.80621 4.40724C9.21716 3.7663 8.4065 3.37323 7.53846 3.30769H2.24615C1.91565 3.30769 1.59869 3.43898 1.36499 3.67268C1.13129 3.90638 1 4.22335 1 4.55385V17C1 17.3305 1.13129 17.6475 1.36499 17.8812C1.59869 18.1149 1.91565 18.2462 2.24615 18.2462H7.47692C8.55003 18.2462 9.57918 17.8199 10.338 17.0611C11.0968 16.3023 11.5231 15.2731 11.5231 14.2C11.5231 13.1269 11.0968 12.0977 10.338 11.3389C9.57918 10.5801 8.55003 10.1538 7.47692 10.1538V10.1538Z" stroke="#52706E" stroke-linecap="round" stroke-linejoin="round"/>
<path d="M3.38458 3.30769V1" stroke="#52706E" stroke-linecap="round" stroke-linejoin="round"/>
<path d="M7.23074 3.30769V1" stroke="#52706E" stroke-linecap="round" stroke-linejoin="round"/>
<path d="M3.38458 21V18.6923" stroke="#52706E" stroke-linecap="round" stroke-linejoin="round"/>
<path d="M7.23074 21V18.6923" stroke="#52706E" stroke-linecap="round" stroke-linejoin="round"/>
<path d="M7.53846 10.1538H1" stroke="#52706E" stroke-linecap="round" stroke-linejoin="round"/>
</svg>
