<svg width="28" height="27" viewBox="0 0 28 27" fill="none" xmlns="http://www.w3.org/2000/svg">
<path d="M3.05518 16.4631V25.4424C3.05518 25.707 3.16029 25.9608 3.34739 26.1479C3.5345 26.335 3.78827 26.4401 4.05287 26.4401H24.0068C24.2714 26.4401 24.5252 26.335 24.7123 26.1479C24.8994 25.9608 25.0045 25.707 25.0045 25.4424V16.4631" stroke="#52706E" stroke-linecap="round" stroke-linejoin="round"/>
<path d="M16.0254 16.4631V26.4401" stroke="#52706E" stroke-linecap="round" stroke-linejoin="round"/>
<path d="M3.05518 19.4563H16.0252" stroke="#52706E" stroke-linecap="round" stroke-linejoin="round"/>
<path d="M1.06006 7.48388L4.05315 0.5H24.0071L27.0002 7.48388H1.06006Z" stroke="#52706E" stroke-linecap="round" stroke-linejoin="round"/>
<path d="M9.54029 7.48389V9.47928C9.54029 10.5377 9.11983 11.5528 8.37142 12.3012C7.623 13.0496 6.60792 13.4701 5.5495 13.4701H4.99079C3.93237 13.4701 2.91729 13.0496 2.16888 12.3012C1.42046 11.5528 1 10.5377 1 9.47928V7.48389" stroke="#52706E" stroke-linecap="round" stroke-linejoin="round"/>
<path d="M18.5198 7.48389V9.47928C18.5198 10.5377 18.0993 11.5528 17.3509 12.3012C16.6025 13.0496 15.5874 13.4701 14.529 13.4701H13.5313C12.4729 13.4701 11.4578 13.0496 10.7094 12.3012C9.96098 11.5528 9.54053 10.5377 9.54053 9.47928V7.48389" stroke="#52706E" stroke-linecap="round" stroke-linejoin="round"/>
<path d="M27 7.48389V9.47928C27 10.5377 26.5795 11.5528 25.8311 12.3012C25.0827 13.0496 24.0676 13.4701 23.0092 13.4701H22.5103C21.4519 13.4701 20.4368 13.0496 19.6884 12.3012C18.94 11.5528 18.5195 10.5377 18.5195 9.47928V7.48389" stroke="#52706E" stroke-linecap="round" stroke-linejoin="round"/>
</svg>
