<svg width="27" height="23" viewBox="0 0 27 23" fill="none" xmlns="http://www.w3.org/2000/svg">
<path d="M23.205 8.0144C23.9371 8.6695 24.5537 9.30532 25.0161 9.80627C25.3356 10.1603 25.5125 10.6203 25.5125 11.0972C25.5125 11.5741 25.3356 12.0341 25.0161 12.3881C22.993 14.5653 18.3881 18.8042 13.0125 18.8042H12.2418" stroke="#52706E" stroke-linecap="round" stroke-linejoin="round"/>
<path d="M6.98175 17.1278C4.74988 15.8778 2.73324 14.2775 1.00885 12.388C0.689324 12.034 0.512451 11.574 0.512451 11.0971C0.512451 10.6202 0.689324 10.1602 1.00885 9.80618C3.03193 7.62897 7.63684 3.39014 13.0125 3.39014C15.1314 3.43442 17.2053 4.01085 19.0431 5.0664" stroke="#52706E" stroke-linecap="round" stroke-linejoin="round"/>
<path d="M23.6093 0.5L2.41516 21.6942" stroke="#52706E" stroke-linecap="round" stroke-linejoin="round"/>
<path d="M10.2957 13.8137C9.57205 13.0944 9.16324 12.1174 9.15894 11.097C9.15894 10.075 9.56493 9.09486 10.2876 8.37219C11.0103 7.64952 11.9904 7.24353 13.0124 7.24353C14.0328 7.24783 15.0098 7.65665 15.7291 8.38031" stroke="#52706E" stroke-linecap="round" stroke-linejoin="round"/>
<path d="M16.3648 13.0238C16.0218 13.6101 15.5299 14.0953 14.939 14.4303" stroke="#52706E" stroke-linecap="round" stroke-linejoin="round"/>
</svg>
