<svg width="22" height="22" viewBox="0 0 22 22" fill="none" xmlns="http://www.w3.org/2000/svg">
<path d="M6.4012 10.2374L1.45572 15.1367C1.31132 15.2799 1.1967 15.4503 1.11849 15.6381C1.04027 15.8258 1 16.0272 1 16.2306C1 16.4339 1.04027 16.6353 1.11849 16.823C1.1967 17.0108 1.31132 17.1812 1.45572 17.3244L4.7219 20.5906C4.86512 20.735 5.03552 20.8496 5.22326 20.9278C5.411 21.006 5.61237 21.0463 5.81576 21.0463C6.01914 21.0463 6.22051 21.006 6.40826 20.9278C6.596 20.8496 6.76639 20.735 6.90962 20.5906L11.8089 15.6451" stroke="#52706E" stroke-linecap="round" stroke-linejoin="round"/>
<path d="M15.645 11.8089L20.5443 6.90962C20.6887 6.76639 20.8033 6.596 20.8815 6.40826C20.9597 6.22051 21 6.01914 21 5.81576C21 5.61237 20.9597 5.411 20.8815 5.22326C20.8033 5.03552 20.6887 4.86512 20.5443 4.7219L17.3243 1.45572C17.1811 1.31132 17.0107 1.1967 16.823 1.11849C16.6352 1.04027 16.4339 1 16.2305 1C16.0271 1 15.8257 1.04027 15.638 1.11849C15.4502 1.1967 15.2798 1.31132 15.1366 1.45572L10.2373 6.4012" stroke="#52706E" stroke-linecap="round" stroke-linejoin="round"/>
<path d="M14.1045 7.94189L7.94186 14.1045" stroke="#52706E" stroke-linecap="round" stroke-linejoin="round"/>
</svg>
