<svg width="21" height="21" viewBox="0 0 21 21" fill="none" xmlns="http://www.w3.org/2000/svg">
<path d="M18.9615 5.11536H2.03846C1.18879 5.11536 0.5 5.80415 0.5 6.65382V18.9615C0.5 19.8112 1.18879 20.5 2.03846 20.5H18.9615C19.8112 20.5 20.5 19.8112 20.5 18.9615V6.65382C20.5 5.80415 19.8112 5.11536 18.9615 5.11536Z" stroke="#52706E" stroke-linecap="round" stroke-linejoin="round"/>
<path d="M7.42311 0.5H13.577C13.985 0.5 14.3763 0.662087 14.6648 0.950605C14.9533 1.23912 15.1154 1.63044 15.1154 2.03846V5.11538H5.88464V2.03846C5.88464 1.63044 6.04673 1.23912 6.33525 0.950605C6.62377 0.662087 7.01508 0.5 7.42311 0.5Z" stroke="#52706E" stroke-linecap="round" stroke-linejoin="round"/>
<path d="M5.11536 10.5H15.8846" stroke="#52706E" stroke-linecap="round" stroke-linejoin="round"/>
<path d="M5.11536 15.1154H15.8846" stroke="#52706E" stroke-linecap="round" stroke-linejoin="round"/>
</svg>
