<svg width="60" height="61" viewBox="0 0 60 61" fill="none" xmlns="http://www.w3.org/2000/svg">
<g clip-path="url(#clip0_325_470)">
<path d="M59.5499 29.4801C57.87 27.8604 56.2815 26.1516 54.6016 24.5319C54.1082 24.1516 53.935 23.485 54.1829 22.9122C54.8736 20.5728 55.4729 18.2335 56.1323 15.8941C56.3128 15.3237 56.2214 15.0854 55.5932 14.9338C53.1937 14.3345 50.8255 13.6149 48.3946 13.0132C47.7039 12.864 47.4344 12.503 47.2851 11.8724C46.6859 9.53309 46.0264 7.25391 45.456 4.91456C45.2755 4.22383 45.0661 4.07461 44.3754 4.28399C42.036 4.94344 39.6678 5.54272 37.3285 6.1444C36.9386 6.26474 36.5776 6.35379 36.219 5.99519C34.2984 4.01925 32.2887 2.12996 30.4307 0.0601685C30.219 0.0649819 30.0072 0.045728 29.8002 0C29.8122 0.158845 29.7304 0.312876 29.5908 0.389892C27.7906 2.15884 25.9927 3.9278 24.2214 5.72804C23.882 6.1444 23.3092 6.29121 22.811 6.08905C20.4717 5.4296 18.1323 4.83032 15.793 4.16847C15.1335 3.98797 14.864 4.1083 14.6835 4.79904C14.0842 7.13839 13.3934 9.47774 12.7942 11.8171C12.7316 12.3081 12.3537 12.7004 11.8652 12.7774C9.49693 13.3767 7.18646 14.0361 4.81823 14.6065C4.03844 14.787 3.82906 15.0566 4.06733 15.8652C4.75806 18.1757 5.29717 20.5439 5.95661 22.8833C6.16841 23.3815 6.0216 23.9567 5.5956 24.2936C3.82665 26.0024 2.11546 27.7738 0.346506 29.4825C-0.132435 29.9326 -0.103554 30.2022 0.346506 30.6522C2.08658 32.361 3.76648 34.1011 5.50415 35.8099C5.93255 36.1276 6.0938 36.6955 5.89404 37.1889C5.23459 39.4994 4.6642 41.8075 3.97346 44.1179C3.73279 44.9266 3.85313 45.2587 4.72436 45.4681C7.06371 46.0385 9.3429 46.7268 11.6822 47.2972C12.373 47.4464 12.6425 47.8075 12.7918 48.438C13.391 50.8062 14.0505 53.1167 14.6522 55.4849C14.8014 56.0842 15.0132 56.2359 15.6125 56.0553C17.9229 55.3959 20.2599 54.8568 22.5703 54.1949C23.1841 53.9639 23.8772 54.1588 24.2791 54.6739C25.9277 56.3827 27.6076 58.0337 29.2587 59.7425C29.7689 60.2816 30.0673 60.3129 30.6088 59.7714C32.2575 58.0313 33.9975 56.3827 35.6774 54.6426C36.0553 54.1444 36.7171 53.9615 37.2972 54.1925C39.6076 54.8833 41.9157 55.4513 44.2262 56.1131C44.8856 56.2936 45.1552 56.1733 45.3357 55.4825C45.9061 53.1721 46.6257 50.864 47.1961 48.5535C47.3453 47.8628 47.675 47.5933 48.3369 47.444C50.6762 46.8736 52.9554 46.2142 55.2948 45.6438C55.9855 45.4946 56.1949 45.225 55.9855 44.503C55.3261 42.1637 54.7268 39.7641 54.0649 37.3959C53.8531 36.8977 53.9999 36.3225 54.4259 35.9856C56.1347 34.3369 57.8146 32.5969 59.5547 30.9483C60.1805 30.3514 60.1203 30.0505 59.5499 29.4801ZM15.0733 28.1324C15.0733 28.1348 15.0733 28.1372 15.0733 28.1396C15.0637 29.1576 14.231 29.9735 13.2129 29.9639H11.3525C10.5727 29.9639 9.79296 29.9639 8.98429 29.9928C8.56552 29.9928 8.44518 29.8436 8.53423 29.4224C8.74362 28.5535 8.953 27.8628 10.0938 27.6823C11.5643 27.4729 12.9723 26.9627 14.4115 26.5415C14.9217 26.4212 15.1311 26.4813 15.0709 27.0205C15.0445 27.3815 15.0733 27.7714 15.0733 28.1324ZM14.9843 44.4958C13.7472 43.3309 12.6401 42.2551 11.5041 41.1793C12.4644 40.6402 13.3934 40.13 14.2936 39.5908C14.8038 39.29 14.9843 39.3502 14.9843 39.9807C14.9554 41.444 14.9843 42.941 14.9843 44.4958ZM11.6558 40.5487C11.2948 40.7581 11.2057 40.6691 11.1167 40.3081C10.8471 39.2274 10.5174 38.1492 10.2478 37.0686C10.1877 36.8279 10.1588 36.5295 10.397 36.3779C10.6377 36.2286 10.8158 36.438 10.9963 36.5271C12.2262 37.2178 13.456 37.9374 14.8664 38.7172C13.7256 39.3478 12.6738 39.9182 11.6558 40.5487ZM9.37659 24.4717C9.07575 25.2226 8.02641 25.3405 7.33808 25.8219C6.64735 24.0529 6.64735 24.0529 7.84831 22.8231C8.68826 21.9831 9.52822 21.1745 10.3682 20.3345C10.4452 20.2864 10.5246 20.2479 10.6088 20.2142C10.1853 21.7136 9.9157 23.1528 9.37659 24.4717ZM11.1744 19.8845C11.2346 19.6149 11.444 19.6751 11.5932 19.7641C12.6137 20.3634 13.6028 20.9627 14.7412 21.6245C13.1215 22.5535 11.651 23.3935 9.97346 24.2936C10.3946 22.7028 10.7845 21.2924 11.1744 19.8845ZM8.02641 27.7714C7.69669 27.7714 7.69669 27.4416 7.63652 27.2322C7.3068 26.2431 7.36696 26.1829 9.1672 25.432C8.99873 26.1227 8.83748 26.6907 8.7003 27.2322C8.65457 27.562 8.35854 27.8002 8.02641 27.7714ZM6.22617 28.2816C5.08538 28.5824 3.94699 28.852 2.80619 29.1215L2.71714 29.0012L6.85674 26.5728C7.54747 27.8628 7.51618 27.9519 6.22617 28.2816ZM7.09741 28.5223C7.87719 28.3418 7.63652 29.1528 7.78814 29.4825C7.93736 29.8123 7.72798 29.9615 7.36937 29.9615H2.47888C2.47888 29.9013 2.45 29.8123 2.45 29.7521C3.97828 29.3622 5.50655 28.9121 7.09741 28.5223ZM8.2719 31.3598C8.57033 32.4934 8.86877 33.6269 9.20812 34.8496C6.93375 33.7425 7.22737 34.3658 8.2719 31.3598ZM7.49933 34.58C8.25024 34.5511 9.59801 35.8099 9.59801 36.5006C9.40547 37.0108 8.99873 37.4898 8.60884 38.0313C8.57996 38.0313 8.54867 38.0602 8.51979 38.0602C8.21895 38.1203 6.75084 36.3201 6.81101 35.9904C6.83989 35.9302 6.83989 35.87 6.87118 35.8099C7.07816 35.3887 6.83989 34.6089 7.49933 34.58ZM8.15878 39.5283C8.45962 39.0782 8.66901 38.8977 9.08778 39.4079C9.47527 39.8508 9.88441 40.2695 10.3176 40.6667C10.4668 40.8472 10.7677 40.9964 10.3778 41.2371C8.66901 42.1973 6.92894 43.1865 5.22015 44.1468C5.17202 44.1035 5.13351 44.0529 5.09982 43.9976C6.10583 42.4982 7.12629 41.0277 8.15878 39.5283ZM9.82665 37.2491C10.0962 38.2094 10.3369 39.1697 10.6064 40.1877C8.65698 38.8087 8.59681 38.6282 9.82665 37.2491ZM10.5463 35.1793C10.2165 35.6895 9.85553 35.4801 9.7376 35.059C9.31883 33.6197 8.92894 32.1805 8.56793 30.7413C8.41871 30.2623 8.83748 30.3803 9.07816 30.3803H13.8459C12.6738 32.0915 11.6245 33.651 10.5463 35.1793ZM14.8038 26.0024C12.9747 26.4813 11.1455 26.9627 9.22497 27.4729C9.3453 25.7328 9.94458 24.5945 11.5354 23.9639C12.734 23.485 13.8146 22.7052 15.1046 21.9856V25.5836C15.1311 25.7786 15.0011 25.9639 14.8038 26.0024ZM15.0733 16.7942V21.2635C13.9638 20.633 12.9747 20.0337 12.0144 19.4633C11.6847 19.2828 11.5956 19.1023 11.9253 18.7726C12.734 17.9928 13.5138 17.213 14.2936 16.4043C14.4404 16.1901 14.7196 16.1155 14.953 16.2238C15.1937 16.3153 15.0733 16.5848 15.0733 16.7942ZM11.7448 18.0241C12.0457 15.8941 12.1949 15.7449 13.7544 16.2238C13.0637 16.8544 12.3754 17.4537 11.7448 18.0241ZM14.8351 6.47894C14.8952 6.50782 14.9843 6.50782 15.0445 6.53911V10.5271C15.0445 12.1757 15.0445 12.1757 13.2153 12.4164C13.7544 10.4067 14.2936 8.4284 14.8351 6.47894ZM12.8543 13.6462C12.9747 12.8664 13.5739 12.9555 14.0842 12.7461C14.953 12.3851 15.1335 12.775 15.0445 13.5259V13.8869C15.0445 15.5066 14.2358 16.1059 12.734 15.5668C12.5535 15.5066 12.4332 15.4464 12.4644 15.2659C12.5848 14.7244 12.7653 14.1853 12.8543 13.6462ZM5.95661 14.876C8.09861 14.3369 10.2454 13.7665 12.4957 13.1961C12.3152 13.9158 12.166 14.4862 12.0168 15.0854C11.8964 15.5644 11.5378 15.4753 11.2081 15.4464C9.46805 15.2972 7.69909 15.1769 5.93014 15.0277C5.9518 14.9795 5.96143 14.9266 5.95661 14.876ZM11.2346 15.8941C11.6534 15.923 11.7448 16.0746 11.6534 16.4934C11.1143 18.9531 11.1431 18.9531 9.01317 17.6919C7.90367 17.0325 6.76287 16.373 5.53303 15.6534C7.54747 15.4753 9.40547 15.8051 11.2346 15.8941ZM4.72677 16.0457C4.69789 15.9567 4.69789 15.8965 4.6666 15.8051C4.75565 15.8051 4.81582 15.8339 4.90728 15.8339C6.70752 16.8833 8.53664 17.9639 10.3946 19.0132C10.5751 19.1336 10.8447 19.1937 10.5439 19.5235C9.31402 20.7822 8.11546 22.0722 6.9145 23.3622C6.79897 23.3237 6.68826 23.2756 6.58477 23.213C5.95662 20.8135 5.35734 18.4452 4.72677 16.0457ZM6.28634 24.3827C6.37539 24.4717 6.46684 24.503 6.46684 24.5319C6.88562 26.0626 6.88562 26.0626 5.50656 26.8424C4.4861 27.4416 3.43676 28.012 2.29837 28.6426C3.67743 27.1408 4.96745 25.7617 6.28634 24.3827ZM1.42954 30.3803C3.35012 30.3803 5.23941 30.3803 7.15758 30.3514C7.66781 30.3514 7.87719 30.4404 7.66781 31.0421C7.36696 31.8508 7.39825 33.1408 6.85914 33.4103C6.22858 33.7401 5.35974 32.7509 4.60884 32.361C3.52822 31.7906 2.47888 31.1312 1.40066 30.5319C1.41029 30.4813 1.42232 30.4308 1.42954 30.3803ZM2.17804 31.7016L2.20692 31.6727C3.7376 32.2431 5.05649 33.2034 6.46444 33.9831C6.85433 34.1925 6.76528 34.7341 6.19488 35.8724C4.81823 34.4886 3.43676 33.1697 2.17804 31.7016ZM6.49572 37.0084C6.58477 37.0373 6.67623 37.0373 6.70511 37.0686C8.26468 38.568 8.26468 38.568 7.03483 40.3369C6.37539 41.2972 5.68465 42.2262 5.02521 43.1552L4.87599 43.0349L6.49572 37.0084ZM4.6666 45.0156C6.76528 43.8171 8.65457 42.7365 10.5751 41.6558C10.8158 41.5066 10.9362 41.5355 11.0252 41.8363C11.4753 43.5451 11.9253 45.225 12.4356 47.1143C9.76648 46.3658 7.33568 45.7064 4.6666 45.0156ZM14.9073 53.7738C14.8471 53.7738 14.7869 53.8026 14.7268 53.8026C14.1877 51.8532 13.6774 49.9037 13.1383 47.8941H13.1263C13.3357 47.8652 13.3958 47.8339 13.468 47.8652C14.9073 48.1949 14.9073 48.1949 14.9073 49.6943V53.7738ZM14.9554 47.6558C14.746 47.6847 14.7147 47.716 14.7147 47.716C13.3958 47.6269 12.6762 46.9651 12.4957 45.6173C12.3152 44.4765 11.9566 43.3983 11.8363 42.1973C12.7966 43.1576 13.8146 44.0578 14.6859 45.1071C15.314 45.8556 14.7147 46.787 14.9554 47.6558ZM15.0733 33.2611L14.9843 37.4609C14.9843 38 14.8952 38.2407 14.3248 37.8797C13.3044 37.2804 12.2863 36.6811 11.2346 36.1396C10.7845 35.8989 10.7845 35.6895 11.0541 35.2996C12.1034 33.8002 13.1528 32.3008 14.1732 30.7702C14.2912 30.5054 14.5776 30.3562 14.864 30.4091C15.2827 30.4693 15.0733 30.799 15.0733 31.0084C15.1046 31.7593 15.0733 32.5102 15.0733 33.2611ZM40.8664 19.1047C39.9662 18.5054 38.8567 18.2647 38.4668 17.0951C38.3104 16.7605 38.3224 16.3706 38.4957 16.0457C39.2755 14.7557 40.0264 13.4657 40.746 12.1757C41.0469 11.6655 41.225 11.7569 41.6149 12.0866C42.2743 12.657 42.515 13.2274 42.2141 14.0963C41.7063 15.7449 41.3164 17.4248 40.8664 19.1047ZM44.6161 41.7184C44.6161 44.207 44.6161 44.207 42.1275 43.9976C40.9289 43.9085 39.6991 43.7882 38.4981 43.6967C38.1973 43.6679 37.959 43.6366 37.8676 43.278C37.7785 42.917 38.1082 42.8881 38.3176 42.7677C40.2069 41.7184 42.0673 40.6691 43.9253 39.5884C44.4957 39.2587 44.6762 39.4079 44.6161 40.0385C44.5848 40.6089 44.6161 41.148 44.6161 41.7184ZM33.7881 49.3044C32.7677 48.5535 31.598 47.9856 30.4283 47.2948C31.509 46.6955 32.4981 46.1251 33.5186 45.5259C33.6943 45.3911 33.9446 45.4176 34.089 45.586C35.4079 46.9049 36.7581 48.2262 38.1371 49.6053C37.9566 49.7545 37.9277 49.7858 37.9277 49.7858C36.4572 50.4452 35.1094 50.3249 33.7881 49.3044ZM35.018 50.5656C33.4584 50.9555 32.0794 51.3454 30.7003 51.7064C30.3706 51.7954 30.2502 51.7064 30.2502 51.3454V47.7473C31.8989 48.7052 33.3694 49.574 35.018 50.5656ZM19.7833 49.0951C19.3646 48.9747 19.5739 48.734 19.6943 48.5247C20.4741 47.1745 21.2827 45.8243 22.1227 44.3562C22.9915 46.1853 23.8026 47.8652 24.5824 49.5451C24.8832 50.1444 24.5824 50.3538 24.1034 50.2359C22.6618 49.9061 21.2226 49.485 19.7833 49.0951ZM23.7424 50.6257C21.7641 51.9446 21.7039 51.9158 19.9638 49.6053C21.2514 49.9639 22.4524 50.2647 23.7424 50.6257ZM19.1961 41.6269C19.225 41.4777 19.3164 41.3261 19.4969 41.4464C20.1275 41.8363 20.876 42.0168 21.326 42.6763C21.7761 43.3357 21.9566 43.9952 21.3862 44.775C20.7027 45.7786 20.0914 46.8327 19.5571 47.923C19.107 48.7918 18.7484 48.7316 18.2382 48.0433C18.0288 47.7425 17.6076 47.5933 17.6991 47.1143C18.1925 45.2876 18.6738 43.4561 19.1961 41.6269ZM15.4945 12.9555C15.4897 12.9314 15.4849 12.9049 15.4849 12.8809C15.4584 12.5511 15.7063 12.2623 16.036 12.2359C16.6955 12.1155 17.3549 11.935 18.0144 11.7569C18.0938 11.7425 18.1756 11.7425 18.2551 11.7569C18.1997 11.793 18.1564 11.846 18.1347 11.9061C17.2948 12.7148 16.4548 13.5548 15.4945 14.4862C15.4945 13.9158 15.5234 13.4368 15.4945 12.9555ZM15.7039 15.0566C16.7845 13.9158 17.894 12.8063 19.0926 11.5764C20.0216 13.1961 20.8327 14.6354 21.793 16.2551C19.663 16.1059 17.7135 15.9856 15.7954 15.7762C15.225 15.716 15.4632 15.2948 15.7039 15.0566ZM25.9301 10.8279C27.0396 11.6967 28.3585 12.3273 29.7087 13.1071C28.6281 13.7377 27.6702 14.2768 26.7099 14.8472C26.4693 14.9964 26.2912 15.0878 26.0505 14.8472C24.7316 13.497 23.3814 12.1781 21.9711 10.7677C23.4127 10.1974 24.6112 9.80746 25.9301 10.8279ZM25.1215 9.86763C26.6522 9.44886 27.9999 9.08784 29.379 8.72683C29.7087 8.63778 29.8892 8.66667 29.8892 9.08784V12.657C28.2695 11.7256 26.7701 10.8279 25.1215 9.86763ZM28.7629 22.4332C28.462 22.0722 27.9831 22.4621 27.6221 22.5535C26.1227 22.9146 26.1516 22.9434 25.3718 21.5933C24.7123 20.3947 24.0529 19.1937 23.3333 18.0241C23.0637 17.5451 23.0926 17.3044 23.6028 17.0951C23.9037 16.9747 24.1732 16.8255 24.4428 16.7052C25.0733 16.4356 25.6413 15.716 26.243 15.8363C26.9338 15.9856 27.3525 16.7966 27.8916 17.3069C29.5595 18.9868 31.2081 20.6955 32.9193 22.3153C33.5643 22.9073 33.9614 23.7208 34.0288 24.5945C32.0914 24.2647 30.1901 23.9639 28.3128 23.6053C28.3128 23.5451 28.2839 23.485 28.3128 23.4248C28.4019 23.0638 29.0926 22.852 28.7629 22.4332ZM15.5234 18.6233L15.5354 18.3225C15.5354 16.1925 15.5354 16.1925 17.6052 16.3442C18.9241 16.4332 20.2743 16.5848 21.5932 16.6739C21.894 16.7028 22.1516 16.7028 22.2406 17.0638C22.3297 17.4248 21.9999 17.4537 21.8218 17.574L16.154 20.8135C15.5547 21.1745 15.4945 20.9025 15.5234 20.3947C15.5547 19.793 15.5234 19.225 15.5234 18.6233ZM17.4127 20.633C19.0011 19.8532 20.4717 18.9531 21.9711 18.0529C22.5415 17.6919 22.7508 17.8724 23.0204 18.3827C23.74 19.7617 24.5198 21.1119 25.3309 22.4308C25.6606 22.9699 25.5715 23.1215 24.9699 23.2708C22.1203 23.9904 19.2707 24.7702 16.4235 25.5499C15.793 25.7304 15.5547 25.6703 15.6437 24.9795C15.6726 24.5608 15.6437 24.1107 15.6437 23.42C15.1335 22.0144 16.0649 21.2635 17.4127 20.633ZM15.5547 29.3309C15.5836 28.941 15.6437 28.5223 15.6437 28.1324C15.6726 26.2431 15.6726 26.2431 17.444 25.7641C19.7544 25.1649 22.0625 24.5656 24.373 23.9037C25.302 23.6342 26.2021 23.5138 27.1913 23.9928C25.9326 25.4922 24.7027 26.9916 23.5017 28.491C23.083 28.1901 23.2611 27.4103 22.7508 27.4705C22.3008 27.5307 22.4211 28.1901 22.2719 28.58C22.1636 28.8712 22.0842 29.1721 22.0312 29.4801C22.0312 29.4874 22.0288 29.497 22.0288 29.5042C21.9735 29.8436 21.6534 30.0746 21.3116 30.0193C19.6028 29.9904 17.8916 29.9591 16.1828 29.9904C15.6437 29.9904 15.4945 29.781 15.5547 29.3309ZM21.9422 10.2262C21.6365 10.3369 21.2972 10.1925 21.1624 9.89651C20.953 9.56679 21.2827 9.44645 21.4319 9.29723C22.1516 8.51745 22.1828 8.51745 23.8315 9.716C23.1407 9.89651 22.5126 10.0168 21.9422 10.2262ZM21.2635 8.75812C20.8736 9.32852 20.5126 9.3574 20.0048 8.787C19.2538 7.94705 18.4163 7.16727 17.6052 6.3586C17.6341 6.29844 17.6654 6.20939 17.6943 6.14922C19.0926 6.68833 20.2623 7.64861 21.533 8.27918C21.5643 8.54633 21.3549 8.6065 21.2635 8.75812ZM22.3922 11.846C23.533 12.9555 24.6425 14.065 25.8724 15.2659C25.3116 15.6366 24.7316 15.9783 24.1323 16.2864C23.2948 16.6643 22.308 16.3225 21.882 15.5066C21.1022 14.1276 20.3224 12.7774 19.5427 11.3983C21.2514 10.7076 21.2514 10.7365 22.3922 11.846ZM15.4632 31.16C15.4632 30.5896 15.5523 30.3514 16.2141 30.3803C17.8339 30.4404 19.4536 30.4091 21.0733 30.4091C21.4921 30.4091 21.7328 30.4693 21.5836 30.9795C20.7147 34.1276 19.8748 37.278 19.0035 40.5174C18.4644 40.1877 18.0144 39.947 17.5932 39.7088C15.3742 38.4501 15.3742 38.4501 15.4344 35.9302C15.4945 34.3393 15.4945 32.7509 15.4632 31.16ZM22.6329 44.2671C22.4837 43.9976 22.3922 43.7569 22.6618 43.5162C22.8712 43.3069 23.0517 43.5162 23.2322 43.6053C25.302 44.8038 27.3405 46.0337 29.4993 47.2948C28.2093 48.0457 27.0396 48.7341 25.9013 49.4248C25.5114 49.6943 25.2418 49.7858 25.0011 49.2154C24.2526 47.5668 23.4416 45.9158 22.6329 44.2671ZM22.0625 42.3177C21.8218 42.1685 21.6125 41.988 21.3718 41.8387C20.7412 41.3887 19.6919 41.2996 19.5427 40.58C19.3934 39.9206 19.8435 39.1095 20.0529 38.361C20.6522 36.2022 21.2827 34.0722 21.793 31.8821C21.9687 30.9603 22.4957 30.1444 23.2635 29.6029C23.8628 31.2515 24.4332 32.8712 25.0926 34.4019C25.2731 34.941 25.2418 35.1528 24.6137 35.0325C24.4043 35.0036 24.1347 34.9121 24.0144 35.1528C23.894 35.3935 24.1636 35.5138 24.2839 35.6919C24.7027 36.2623 25.663 36.5921 25.6028 37.3405C25.5427 37.9711 24.9723 38.5704 24.6137 39.201C24.0433 40.1612 23.4729 41.1215 22.9338 42.1107C22.6931 42.5584 22.4524 42.6161 22.0625 42.3177ZM25.6004 34.7605C24.9699 33.0517 24.3417 31.3117 23.7111 29.6029C23.5451 29.2948 23.6076 28.9146 23.8603 28.6739C25.0902 27.2635 26.2887 25.8243 27.4584 24.3851C27.6341 24.1179 27.9614 23.9952 28.2671 24.0842C30.0673 24.414 31.8964 24.7437 33.6943 25.0445C34.0986 25.083 34.4356 25.3718 34.5342 25.7641C35.1335 27.4128 35.7328 29.0927 36.3634 30.7437C36.5487 31.1047 36.4741 31.5427 36.1828 31.8243C35.0132 33.1745 33.8724 34.5824 32.7027 35.9639C32.4933 36.2046 32.3417 36.503 32.012 36.3538C30.0336 36.0241 28.1419 35.6943 26.2238 35.3646C25.8411 35.2996 25.7208 35.059 25.6004 34.7605ZM31.8387 36.799C31.8387 37.3093 31.03 37.5499 31.3597 37.9398C31.6895 38.3297 32.2599 37.9687 32.6498 37.7906C33.6991 37.3117 34.2382 37.7016 34.7196 38.6594C35.3188 39.9182 36.0697 41.1191 36.7893 42.3177C37.0902 42.8279 37.03 43.0975 36.4885 43.3069C36.1395 43.4489 35.8002 43.6077 35.468 43.7858C33.8194 44.6859 33.8194 44.6859 32.5294 43.3959C30.8206 41.6871 29.1407 39.9759 27.4319 38.2984C26.7725 37.639 26.1419 36.9795 26.1419 35.8099C28.0601 36.1396 29.9494 36.4693 31.8387 36.799ZM38.1684 50.2046C38.4765 50.089 38.8206 50.2166 38.9771 50.5054C39.1576 50.8063 38.8279 50.9242 38.6762 51.1047C37.9566 51.8845 37.9566 51.8845 36.308 50.6859C36.9987 50.5054 37.598 50.3851 38.1684 50.2046ZM37.7785 48.7365C36.8182 47.6269 35.74 46.6378 34.6883 45.6173C34.2695 45.1986 34.2984 45.018 34.8375 44.7774C35.4969 44.4765 36.0072 43.8773 36.8471 44.0578C37.5667 43.8773 37.9277 44.2984 38.2575 44.9266C38.9169 46.1564 39.6076 47.355 40.3273 48.556C40.5366 48.9458 40.5078 49.0951 40.0577 49.2756C39.1576 49.6342 38.4668 49.5451 37.7785 48.7365ZM42.7075 39.7689C41.148 40.5487 39.6486 41.4777 38.1492 42.349C37.6702 42.6185 37.4295 42.6498 37.1287 42.1083C36.3778 40.6691 35.5691 39.2587 34.7292 37.8797C34.4283 37.4007 34.6088 37.2491 35.0589 37.1288C37.9975 36.3778 40.9073 35.6294 43.817 34.8183C44.3874 34.6691 44.5679 34.7581 44.5078 35.3285C44.4789 35.7786 44.5078 36.2575 44.5078 36.9771H44.4957C45.006 38.3875 44.0866 39.1384 42.7075 39.7689ZM44.5848 31.1913C44.5559 31.5523 44.4957 31.9422 44.4957 32.3008C44.4668 34.1901 44.4668 34.1612 42.6064 34.6691C40.3561 35.2683 38.1082 35.8676 35.8579 36.4982C34.8977 36.7677 33.9374 36.9771 32.9482 36.4091L36.6666 31.9711C37.0854 32.2407 36.876 33.0517 37.3862 32.9603C37.8965 32.8712 37.805 32.1805 37.9253 31.7617C38.3152 30.4115 38.3152 30.4115 39.6943 30.4115C41.0733 30.4115 42.4837 30.4404 43.894 30.4115C44.4957 30.4115 44.6449 30.6498 44.5848 31.1913ZM38.2863 28.8809C38.077 29.7208 37.6269 30.2599 36.9073 30.8303C36.2165 28.9699 35.5884 27.201 34.9289 25.432C35.3477 25.1312 35.9903 25.6727 36.1275 25.1625C36.2767 24.7726 35.6774 24.503 35.3766 24.2022C34.3874 23.1817 34.3874 23.213 35.107 21.9519C35.7978 20.7822 36.5174 19.6727 37.1167 18.4717C37.4777 17.7521 37.8363 17.8123 38.3754 18.231C38.5487 18.3706 38.7292 18.5006 38.9145 18.6209C39.4536 19.0397 40.4452 19.16 40.5944 19.7906C40.7436 20.4212 40.3248 21.1697 40.1443 21.8604C39.5475 24.2022 38.8567 26.5415 38.2863 28.8809ZM40.3561 11.3357C40.746 11.4248 40.5655 11.6967 40.4452 11.9061C39.6654 13.2563 38.8856 14.6065 38.0168 16.0746C37.1167 14.2455 36.3369 12.5367 35.5571 10.8857C35.2875 10.3153 35.5282 10.077 36.036 10.1949C37.4777 10.5271 38.9169 10.9458 40.3561 11.3357ZM36.4283 9.77617C38.5872 8.45728 37.7472 8.15644 40.2671 10.8255C38.8567 10.4669 37.6871 10.1372 36.4283 9.77617ZM37.5066 16.0746C37.6269 16.3153 37.7761 16.5848 37.5354 16.8544C37.2346 17.1841 37.0252 16.8544 36.8158 16.7341C34.7773 15.5644 32.7677 14.3658 30.6377 13.1047C31.9879 12.3249 33.2466 11.6053 34.4476 10.8857C34.8375 10.645 34.9867 10.7966 35.1383 11.1264C35.9181 12.775 36.7268 14.426 37.5066 16.0746ZM41.7954 11.2467C41.3766 11.2467 41.5547 10.917 41.675 10.7076C42.4259 9.41757 43.1744 8.15884 43.9253 6.86883C44.0072 6.87364 44.089 6.89531 44.166 6.929C43.7881 8.33935 43.4464 9.80746 42.9674 11.2178C42.7557 11.9061 42.2165 11.2467 41.7954 11.2467ZM43.2948 7.01805C42.5751 8.27677 41.8242 9.5379 41.1046 10.7966C40.296 9.95668 39.5739 9.17689 38.7942 8.36823C40.5029 7.37906 42.243 6.20939 44.1034 5.30927C44.0745 5.99759 43.5956 6.47894 43.2948 7.01805ZM37.9398 6.53911C39.5282 6.08905 41.1191 5.69916 42.7388 5.28038L42.8279 5.46089H42.8158C41.3886 6.26955 39.9662 7.20096 38.5102 7.94946C37.9109 8.2503 37.521 7.47052 37.2803 6.98917C37.0396 6.50782 37.6991 6.59687 37.9398 6.53911ZM36.2478 6.929C36.9073 7.13839 37.237 7.76895 37.7183 8.15884C37.7424 8.24308 37.7183 8.33454 37.6582 8.39952C37.0228 8.82792 36.3489 9.19855 35.6486 9.50902C35.1383 9.68953 33.9085 8.19013 34.0601 7.64861C34.0601 7.55957 34.2093 7.46811 34.3008 7.43923C34.9289 7.25872 35.5571 7.1071 36.2478 6.929ZM35.8579 6.47894C35.8411 6.49338 35.8291 6.51504 35.8291 6.53911C33.8507 7.22984 33.8194 7.22984 32.9193 5.34055C32.4404 4.3201 31.959 3.33093 31.4488 2.22142C32.1997 2.51986 35.379 5.63899 35.8579 6.47894ZM30.3706 1.6799C30.4596 1.6799 30.5198 1.65102 30.6112 1.65102C31.4199 3.35981 32.231 5.071 33.0396 6.71961C33.1889 7.02046 33.2202 7.19855 32.8303 7.35018C30.4909 8.27918 30.3706 8.21901 30.3706 5.76173V1.6799ZM30.9097 8.75812C31.959 9.08784 33.0084 9.3574 34.0577 9.62695C34.2984 9.68712 34.5366 9.74729 34.5968 10.0457C34.6257 10.2262 34.5078 10.3153 34.3561 10.4067C33.0372 11.1576 31.7472 11.9374 30.308 12.775V9.20818C30.2791 8.72683 30.4596 8.6065 30.9097 8.75812ZM30.8327 13.7353C32.7532 14.9049 34.6714 16.0457 36.6209 17.1552C37.0998 17.4248 37.1311 17.6342 36.8615 18.0842C35.9927 19.4633 35.2129 20.8736 34.4019 22.284C34.1925 22.6739 34.0409 22.8544 33.6221 22.4332C31.3116 20.154 29.0035 17.9037 26.5751 15.5355H26.5631C27.7617 14.8448 28.7532 14.3057 29.7232 13.7064C30.0601 13.4753 30.5078 13.4874 30.8327 13.7353ZM24.5944 6.14922C26.2912 4.40914 27.9711 2.66907 29.651 0.931408C29.74 0.991576 29.8002 1.05174 29.8916 1.11191L29.9037 7.43923C29.9037 7.88929 29.7232 8.00963 29.3333 7.88929C27.7135 7.43923 26.0649 6.98917 24.3537 6.51023C24.4235 6.38026 24.5029 6.25993 24.5944 6.14922ZM24.2214 7.01805C25.7208 7.40794 27.2514 7.79783 28.7508 8.21661V8.42599C27.5523 8.75571 26.3224 9.08544 25.0926 9.44645C24.0721 9.68712 23.4729 8.81588 22.6931 8.45728C22.6329 8.4284 22.604 8.27677 22.604 8.21661C22.6329 7.88688 23.8916 6.929 24.2214 7.01805ZM23.172 6.65704C22.2719 8.12756 22.1828 8.15644 20.8928 7.37665C19.7833 6.68592 18.5535 6.11793 17.533 5.27798C19.4945 5.51865 21.2948 6.29843 23.172 6.65704ZM17.0228 6.3586C18.0433 7.37906 19.0926 8.39711 20.0529 9.47774C20.5631 10.077 19.7232 10.1974 19.5427 10.5271C19.3934 10.7966 19.1816 10.8279 19.0035 10.4982C18.2526 9.1793 17.5041 7.88929 16.7532 6.5704C16.8447 6.50782 16.9338 6.41877 17.0228 6.3586ZM15.4945 9.3574C15.4344 8.09867 15.4656 6.86883 15.4656 5.6077C15.5282 5.60048 15.5908 5.58123 15.6461 5.54753C16.6064 7.22744 17.5667 8.90734 18.5246 10.6161C18.734 10.9458 18.6738 11.1264 18.2839 11.1865C18.2551 11.1865 18.2238 11.2154 18.1949 11.2154C17.3549 11.4248 16.3056 12.0554 15.7352 11.7545C15.0733 11.3959 15.5234 10.1974 15.4945 9.3574ZM15.3742 43.9663C15.5234 42.4067 15.4031 40.8183 15.4031 39.0469C16.5727 39.7377 17.5619 40.3056 18.5511 40.876C18.8808 41.0854 18.7918 41.3261 18.7003 41.5957C18.2214 43.3357 17.7713 45.0758 17.2611 46.994C16.3946 46.0361 15.225 45.5259 15.3742 43.9663ZM15.4945 45.947C15.9735 46.426 16.4235 46.876 16.8736 47.2972C17.1431 47.5379 17.0541 47.7762 16.9626 48.0481C16.8423 48.4669 16.5439 48.1685 16.3634 48.1372C15.225 47.8965 15.1046 47.6558 15.4945 45.947ZM15.4031 53.805C15.3742 53.805 15.3429 53.7762 15.314 53.7762C15.314 52.0072 15.314 50.2671 15.2851 48.5271C15.3742 48.4982 15.4344 48.438 15.4656 48.438C16.7845 48.7076 16.7557 48.7389 16.4259 49.9976C16.0938 51.2539 15.7352 52.5439 15.4031 53.805ZM15.9446 53.5644C16.3345 52.154 16.6955 50.7148 17.1143 49.3069C17.3549 48.438 17.9542 49.1576 18.3128 49.1865C18.9121 49.2756 18.4933 49.6655 18.373 49.8772C17.7424 50.9868 17.1143 52.0674 16.4524 53.1769C16.3345 53.355 16.3032 53.5933 15.9446 53.5644ZM15.9735 55.0325C16.9939 53.2322 18.012 51.4031 19.0324 49.574C19.9614 50.3249 20.6522 51.1624 21.4608 52.0024C19.6004 53.0517 17.8916 54.1925 16.0336 55.0927L15.9735 55.0325ZM17.3236 55.0927C18.6137 54.0433 20.0818 53.2924 21.5234 52.5439C22.3032 52.1829 22.4837 53.2346 23.2635 53.6534C21.0733 54.1637 19.2731 54.8544 17.3236 55.0927ZM23.9518 53.4729C23.651 53.444 22.4211 52.3923 22.4211 52.1829C22.4019 52.1227 22.4115 52.0553 22.45 52.0024C22.5703 51.7617 24.4596 50.8616 24.7292 50.8929C25.7183 51.0132 25.6582 52.0024 26.0794 52.6017C26.1997 52.7822 26.0505 52.9314 25.8989 52.9627C25.2418 53.1432 24.5824 53.3237 23.9518 53.4729ZM26.0505 51.2539C27.0709 51.5235 27.9398 51.7641 28.9001 52.0048C26.9506 52.994 26.592 52.9049 26.0505 51.2539ZM24.5511 54.4043C24.1323 54.0433 24.1612 53.8941 24.7316 53.7449C26.3802 53.2948 26.3802 53.2659 27.0998 54.7942C27.6702 56.0241 28.2695 57.2539 28.8399 58.4837C27.4007 57.0734 25.9614 55.7232 24.5511 54.4043ZM29.7087 56.7437V58.7822C29.6486 58.7822 29.6197 58.8111 29.5595 58.8111C28.7508 57.1312 27.9398 55.4224 27.0998 53.7425C26.8904 53.2924 26.9506 53.1432 27.4608 52.9916C29.74 52.3321 29.74 52.3008 29.74 54.7004C29.74 55.3935 29.7087 56.0529 29.7087 56.7437ZM29.8291 49.6943C29.8291 51.8243 29.8291 51.8243 27.7906 51.2828C27.1913 51.1336 26.592 50.9531 25.9903 50.8038C25.7496 50.7437 25.5715 50.6233 25.5402 50.3851C25.5114 50.1444 25.7208 50.0842 25.87 49.9952C26.9795 49.3357 28.1203 48.7052 29.2298 48.0168C29.8002 47.6558 29.8603 47.9278 29.8291 48.4067V49.6943ZM29.3622 46.6667C27.4127 45.497 25.4632 44.3562 23.4849 43.2178C23.1239 43.0084 23.006 42.8279 23.2442 42.438C24.2045 40.8496 25.1046 39.2587 26.0938 37.5788C28.4933 39.9783 30.7893 42.2864 33.1407 44.5969C33.4103 44.8664 33.4416 44.9868 33.0806 45.1961C32.1804 45.6751 31.3116 46.2166 30.4115 46.7268C30.0818 46.917 29.6678 46.8953 29.3622 46.6667ZM35.4079 54.373C33.7881 56.0818 32.1395 57.7617 30.5198 59.4705L30.2502 59.29C30.2502 57.16 30.2502 55.0325 30.2214 52.8712C30.2214 52.4525 30.4307 52.4212 30.7605 52.5102C32.2912 52.929 33.8194 53.3791 35.3501 53.7689C35.9783 53.923 35.6173 54.1637 35.4079 54.373ZM35.7978 53.4152C34.3273 53.0253 32.8279 52.6065 31.3597 52.2166C31.3838 52.1492 31.3934 52.077 31.3886 52.0072C32.6185 51.6775 33.8892 51.2876 35.1383 51.018C36.0986 50.8087 36.669 51.6486 37.4488 52.0072C37.4873 52.0818 37.5066 52.1636 37.509 52.2479C37.4464 52.6354 36.1877 53.5042 35.7978 53.4152ZM42.3056 55.1528C40.5366 54.6739 38.7677 54.2238 36.9963 53.7425C37.6269 52.3923 37.9855 52.272 39.1865 52.9916L42.4259 54.8809C42.373 54.9675 42.3345 55.059 42.3056 55.1528ZM42.5583 54.4645C41.2081 53.6558 39.8892 52.8448 38.3898 51.9759C38.6474 51.7665 38.8279 51.6751 38.9289 51.5259C39.3188 50.9868 39.6197 51.0469 40.0697 51.5259C40.7292 52.2768 41.4801 52.9362 42.1684 53.6558C42.3778 53.8628 42.7075 54.0144 42.5583 54.4645ZM43.0854 53.9831C42.0649 52.994 41.107 52.0048 40.1756 51.0132C39.6052 50.3538 40.4163 50.2046 40.6546 49.9037C40.9843 49.3935 41.1335 49.9326 41.2538 50.1444L42.9626 53.1143C43.1816 53.3526 43.2298 53.6967 43.0854 53.9831ZM44.6449 54.7942C44.5848 54.8231 44.5559 54.8231 44.4957 54.8544C43.5354 53.2058 42.5872 51.5259 41.6173 49.846C41.4079 49.485 41.4368 49.3069 41.8868 49.2154C42.7869 49.006 43.6871 48.7365 44.6449 48.4958V54.7942ZM42.3658 48.5247C43.1167 47.805 43.9253 47.0253 44.6449 46.3056C44.7364 48.2864 44.5246 48.4958 42.3658 48.5247ZM44.4043 45.4368C43.3549 46.5776 42.2743 47.7473 41.1046 49.006C40.1155 47.2659 39.3044 45.7978 38.3465 44.1781C40.4452 44.3586 42.3658 44.4789 44.2551 44.657C44.9145 44.7172 44.6762 45.136 44.4043 45.4368ZM44.6883 22.7028C44.6594 24.8616 44.6594 26.9916 44.6594 29.1504C44.6883 29.781 44.5391 30.0794 43.7906 30.0505C42.2021 29.9615 40.6113 30.0217 39.0228 30.0217C38.6329 30.0217 38.4235 29.9928 38.5439 29.5114C39.4127 26.3345 40.2815 23.1576 41.1504 19.9206C42.2262 20.5174 43.2129 21.0854 44.1804 21.7136C44.5342 21.9085 44.7364 22.3008 44.6883 22.7028ZM44.7653 16.8857C44.5848 18.296 44.7364 19.7353 44.7364 21.355C43.5667 20.6955 42.5896 20.0963 41.5884 19.5548C41.5884 19.5548 41.586 19.5548 41.586 19.5523C41.379 19.4609 41.2875 19.2202 41.379 19.0132C41.8892 17.213 42.3682 15.3839 42.8784 13.4657C44.0144 14.3947 44.9747 15.2347 44.7653 16.8857ZM44.5848 14.6955C44.0866 14.0963 43.7159 13.6149 43.2948 13.1649C43.095 12.9675 43.0469 12.6643 43.1744 12.414C43.3236 12.0529 43.5932 12.2335 43.805 12.2647C44.9145 12.4765 45.006 12.7461 44.5848 14.6955ZM44.3874 11.9374C44.0577 11.7882 43.2779 12.0866 43.4873 11.2467C43.8772 9.74729 44.296 8.27677 44.6859 6.77738H44.823C44.823 8.33694 44.823 9.86763 44.8062 11.4248C44.8062 11.6967 44.9265 12.207 44.3874 11.9374ZM57.7809 28.6426C57.7521 28.6715 57.7521 28.7316 57.7208 28.7629C56.3417 27.9831 54.9314 27.2924 53.6413 26.4236C52.9819 25.9446 53.7906 25.2539 53.7906 24.6835C55.1431 26.0024 56.462 27.3213 57.7809 28.6426ZM45.2153 31.6101C45.6341 30.7413 46.2358 30.1107 47.4344 30.5006C48.5872 30.5006 49.8026 30.5295 51.0637 30.5006C51.5427 30.5006 51.6341 30.6811 51.5427 31.1312C51.3622 31.9711 51.0926 32.5415 50.0721 32.7196C48.6329 32.9892 47.1937 33.4392 45.7545 33.8604C45.2442 34.0096 44.9747 33.9206 45.0637 33.3502C45.1552 32.7798 44.9145 32.1805 45.2153 31.6101ZM45.1552 15.8941C46.385 17.0927 47.4945 18.1444 48.6353 19.2539C47.6461 19.8243 46.6859 20.3634 45.7256 20.9025C45.3357 21.1119 45.1552 21.083 45.1552 20.6017V15.8941ZM48.4837 19.8845C48.8447 19.6751 48.9338 19.7954 49.0228 20.154C49.2924 21.2347 49.6221 22.3129 49.8916 23.3935C49.9975 23.6318 49.935 23.9109 49.7424 24.0842C49.5018 24.2334 49.3525 23.9952 49.172 23.9037C47.9133 23.213 46.6522 22.4934 45.302 21.7136C46.4452 21.0541 47.4656 20.4838 48.4837 19.8845ZM51.5547 18.1757C52.604 17.5764 53.6534 17.006 54.7027 16.4067C54.7629 16.3779 54.8231 16.4067 55.0926 16.4067H55.0806C53.9398 18.0554 52.8904 19.586 51.8844 21.0854C51.675 21.4152 51.5547 21.4152 51.2539 21.1456C49.367 19.4031 49.3357 19.4344 51.5547 18.1757ZM50.373 25.3718C50.7918 26.7822 51.1528 28.1901 51.5138 29.6005C51.663 30.0794 51.3044 30.0193 51.0348 30.0193H46.2671C47.4656 28.3105 48.5174 26.7798 49.5066 25.2202C49.894 24.6835 50.2238 24.8929 50.373 25.3718ZM51.0637 34.9386C51.0348 34.2479 51.3333 33.6486 51.4825 33.0493C51.5427 32.7798 51.7833 32.6883 52.0529 32.6594C52.4139 32.6306 52.4139 32.929 52.4717 33.1384C52.8327 34.1588 52.6522 34.3995 51.0637 34.9386ZM45.1552 34.7605C45.6654 33.8315 47.2538 34.0096 48.3634 33.651C49.2033 33.3815 50.0433 33.201 51.0036 32.9603C50.7942 33.7401 50.6137 34.3706 50.4644 35.0301C50.3922 35.3357 50.1805 35.5908 49.8941 35.7208C49.2033 36.0818 48.5439 36.4717 47.8555 36.8616C46.9867 37.3718 46.0866 37.8508 45.1263 38.3923L45.1552 34.7605ZM50.1636 36.1083C49.7448 37.6967 49.3549 39.1071 48.965 40.5174C48.8447 40.9362 48.5752 40.6979 48.3946 40.5776C47.4344 40.0385 46.5054 39.4681 45.3958 38.8087C47.0156 37.8797 48.4837 37.0397 50.1636 36.1083ZM50.5848 36.349C50.7051 35.87 52.2647 34.6691 52.6835 34.7004C52.7653 34.7172 52.8375 34.7581 52.8928 34.8207C53.3429 35.3309 53.2827 36.6209 52.8038 37.0999C51.9638 37.9398 51.1239 38.7798 50.2839 39.5884C50.1034 39.7377 49.9542 39.9783 49.5932 39.8893C49.9229 38.6594 50.2527 37.4898 50.5848 36.349ZM53.0252 33.4103C52.9963 33.0806 52.5752 32.5704 53.1143 32.3899C54.4909 31.9711 55.8652 31.5523 57.3598 31.4898C56.0409 32.2094 54.7508 32.9579 53.444 33.6775C53.1456 33.8604 53.0541 33.6197 53.0252 33.4103ZM53.0421 31.8797C52.2912 32.0602 52.503 31.2804 52.3826 30.9194C52.2021 30.4091 52.6835 30.5006 52.953 30.5006H57.7809C57.7882 30.5463 57.8098 30.5872 57.8411 30.6209C56.2527 31.0397 54.6618 31.4898 53.0421 31.8797ZM51.9326 29.3309C51.5715 27.9519 51.2731 26.8111 50.9121 25.4922C52.953 26.5415 52.953 26.5415 51.9326 29.3309ZM52.592 25.8821C52.0048 25.5981 51.444 25.2683 50.9121 24.8929C50.888 24.8761 50.8664 24.8592 50.8447 24.8399C50.4644 24.5199 50.4139 23.9543 50.734 23.5716C50.9145 23.302 51.095 23.0614 51.2442 22.7918C51.5138 22.2214 51.7833 22.3418 52.1131 22.7316C52.5318 23.2419 53.1022 23.6318 53.432 24.142C53.2827 24.7124 53.1624 25.1913 53.0132 25.7304C52.953 25.9422 52.8038 26.0024 52.592 25.8821ZM53.6125 23.4224C53.5234 23.3935 53.4319 23.3935 53.4031 23.3622C51.8146 21.923 51.8146 21.923 53.0132 20.1829C53.6726 19.2539 54.3032 18.3225 54.9626 17.3935C55.0517 17.4224 55.1431 17.4825 55.2322 17.5138C54.6931 19.4633 54.1829 21.444 53.6125 23.4224ZM55.4729 15.4152C53.2827 16.645 51.2731 17.7834 49.2057 18.9531C48.6955 17.0927 48.2165 15.2635 47.7063 13.3141C50.3128 14.0048 52.7725 14.6955 55.4729 15.4152ZM47.3742 13.9759C47.7352 15.3261 48.0938 16.7052 48.4548 18.0842C48.4091 18.1203 48.3585 18.1516 48.3056 18.1733C47.3453 17.213 46.385 16.2527 45.4271 15.3237C45.2178 15.083 45.0974 13.1336 45.2779 12.8953C45.3236 12.8231 45.4031 12.7774 45.4873 12.775C46.1756 12.6257 47.1937 13.2852 47.3742 13.9759ZM45.1961 11.006C45.3164 9.50662 45.225 8.00722 45.225 6.50782H45.3934C45.9037 8.36823 46.3826 10.2262 46.876 12.0866C46.9963 12.5367 46.8471 12.5969 46.3971 12.5054C45.5282 12.3562 45.107 12.0265 45.1961 11.006ZM45.0661 29.3309V26.9916L45.1263 22.8833C45.1263 22.373 45.2466 22.1925 45.7569 22.4934C46.7773 23.1239 47.8267 23.7232 48.9049 24.2936C49.3236 24.503 49.3236 24.7124 49.0854 25.0734C48.036 26.5728 46.9867 28.0722 45.9662 29.6029C45.7857 29.9037 45.5475 30.0818 45.2153 29.9639C44.8856 29.8412 45.0661 29.5403 45.0661 29.3309ZM45.0348 43.6077V39.1384C46.1877 39.7978 47.1335 40.3971 48.1251 40.9675C48.4861 41.1769 48.515 41.3574 48.2141 41.6582C47.4344 42.4091 46.6546 43.1889 45.9037 43.9687C45.7472 44.1709 45.4969 44.2744 45.2442 44.2383C44.8856 44.1179 45.0348 43.8171 45.0348 43.6077ZM48.4235 42.077C47.8844 44.8664 48.0625 44.5367 46.385 44.2359C46.9554 43.4272 47.675 42.8568 48.4235 42.077ZM45.3044 53.923C45.2442 53.923 45.1552 53.8941 45.095 53.8941C45.095 52.3634 45.1239 50.8038 45.0661 49.2756C45.0372 48.5848 45.2153 48.2262 45.935 48.1661C46.2695 48.1083 46.6016 48.0289 46.9241 47.9254C46.3537 49.9952 45.8459 51.9735 45.3044 53.923ZM46.4452 47.5668C44.8567 47.9567 45.1263 48.0168 45.095 46.5463C45.095 45.136 45.3357 44.7172 46.2647 44.8063C46.7436 44.8351 47.4344 44.5367 47.675 45.136C47.9133 45.7353 46.9843 47.4152 46.4452 47.5668ZM54.2117 45.5259C52.0529 46.0963 49.9229 46.6667 47.6437 47.2948C47.8242 46.5752 47.9735 45.9446 48.1227 45.3454C48.243 44.8664 48.6329 44.9843 48.9626 45.0156C50.7027 45.136 52.4115 45.2563 54.1516 45.4055C54.1829 45.4368 54.1829 45.497 54.2117 45.5259ZM49.083 44.5656C48.604 44.5367 48.3922 44.4164 48.5439 43.8147C49.1431 41.5355 49.1143 41.5355 51.1528 42.734L54.7508 44.9843C52.7725 44.8375 50.9145 44.6859 49.083 44.5656ZM55.5932 44.8375C53.4344 43.5475 51.4536 42.3778 49.5643 41.2683C50.9145 39.9182 52.2045 38.5993 53.5836 37.2804C54.2117 39.7088 54.8712 42.1685 55.5932 44.8375ZM53.7617 35.8989C53.7256 35.8628 53.6967 35.8219 53.6726 35.7786C53.2226 34.3081 53.1937 34.3081 54.5727 33.5596C55.6221 32.9892 56.7027 32.4188 57.7521 31.8508L57.8724 31.9398C56.4909 33.2611 55.1431 34.58 53.7617 35.8989ZM58.592 30.0217H52.953C52.5342 30.0217 52.2936 29.9928 52.4741 29.4513C52.7147 28.7004 52.8928 27.9519 53.0733 27.201C53.1624 26.8399 53.2827 26.722 53.6437 26.9314C55.3236 27.9206 57.0036 28.852 58.681 29.8099C58.657 29.8821 58.6257 29.9543 58.592 30.0217Z" fill="#52706E"/>
<path d="M33.9977 9.05655C33.0687 9.02767 32.2576 8.63778 31.3575 8.42599C32.9195 7.31889 33.6679 7.52827 33.9977 9.05655ZM49.745 20.4549C49.9255 20.6041 50.1349 20.7557 50.3154 20.9338C51.3358 21.9543 51.3358 21.9543 50.4044 23.1528C50.0747 22.7918 50.1036 22.3129 49.9544 21.923C49.8268 21.4801 49.7257 21.0301 49.6535 20.5728C49.6776 20.5295 49.7065 20.4886 49.745 20.4549ZM15.8966 55.1528C15.9255 55.1239 15.9568 55.0638 15.9856 55.0325L16.0458 55.0927M4.72692 16.0457C4.69804 15.9567 4.69804 15.8965 4.66675 15.805C4.7558 15.805 4.81597 15.8339 4.90742 15.8339C4.84725 15.8941 4.79912 15.9856 4.72692 16.0457Z" fill="#52706E"/>
</g>
<defs>
<clipPath id="clip0_325_470">
<rect width="60" height="60.1612" fill="white"/>
</clipPath>
</defs>
</svg>
