<svg width="22" height="22" viewBox="0 0 22 22" fill="none" xmlns="http://www.w3.org/2000/svg">
<path d="M19.0695 11.2698V8.19246C19.0695 7.78439 18.9074 7.39302 18.6189 7.10447C18.3303 6.81592 17.939 6.65381 17.5309 6.65381H2.91366C2.50558 6.65381 2.11422 6.81592 1.82566 7.10447C1.53711 7.39302 1.375 7.78439 1.375 8.19246V18.9631C1.375 19.3711 1.53711 19.7625 1.82566 20.051C2.11422 20.3396 2.50558 20.5017 2.91366 20.5017H17.5309C17.939 20.5017 18.3303 20.3396 18.6189 20.051C18.9074 19.7625 19.0695 19.3711 19.0695 18.9631V15.1164" stroke="#52706E" stroke-linecap="round" stroke-linejoin="round"/>
<path d="M6.51428 2.80717L15.2385 0.529964C15.3365 0.502342 15.4391 0.49487 15.5401 0.507999C15.6411 0.521127 15.7384 0.554584 15.8261 0.60635C15.9138 0.658117 15.9901 0.727118 16.0505 0.809192C16.1108 0.891265 16.1538 0.984707 16.177 1.08388L16.6079 2.80717" stroke="#52706E" stroke-linecap="round" stroke-linejoin="round"/>
<path d="M20.6082 11.2698H16.7615C16.3366 11.2698 15.9922 11.6142 15.9922 12.0391V14.3471C15.9922 14.772 16.3366 15.1164 16.7615 15.1164H20.6082C21.033 15.1164 21.3775 14.772 21.3775 14.3471V12.0391C21.3775 11.6142 21.033 11.2698 20.6082 11.2698Z" stroke="#52706E" stroke-linecap="round" stroke-linejoin="round"/>
</svg>
