<svg width="60" height="46" viewBox="0 0 60 46" fill="none" xmlns="http://www.w3.org/2000/svg">
<path d="M58.6 14.2923C58.6 13.1172 58.1332 11.9902 57.3023 11.1593C56.4713 10.3284 55.3443 9.86154 54.1692 9.86154H45.3077L38.6615 1H20.9385L14.2923 9.86154H5.43077C4.25566 9.86154 3.12867 10.3284 2.29774 11.1593C1.46681 11.9902 1 13.1172 1 14.2923V40.8769C1 42.052 1.46681 43.179 2.29774 44.01C3.12867 44.8409 4.25566 45.3077 5.43077 45.3077H54.1692C55.3443 45.3077 56.4713 44.8409 57.3023 44.01C58.1332 43.179 58.6 42.052 58.6 40.8769V14.2923Z" stroke="#52706E" stroke-linecap="round" stroke-linejoin="round"/>
<path d="M29.8 35.3384C35.3059 35.3384 39.7693 30.875 39.7693 25.3691C39.7693 19.8633 35.3059 15.3999 29.8 15.3999C24.2942 15.3999 19.8308 19.8633 19.8308 25.3691C19.8308 30.875 24.2942 35.3384 29.8 35.3384Z" stroke="#52706E" stroke-linecap="round" stroke-linejoin="round"/>
</svg>
