<svg width="22" height="22" viewBox="0 0 22 22" fill="none" xmlns="http://www.w3.org/2000/svg">
<path d="M19.4615 5.61539H2.53846C1.68879 5.61539 1 6.30418 1 7.15385V19.4615C1 20.3112 1.68879 21 2.53846 21H19.4615C20.3112 21 21 20.3112 21 19.4615V7.15385C21 6.30418 20.3112 5.61539 19.4615 5.61539Z" stroke="#52706E" stroke-linecap="round" stroke-linejoin="round"/>
<path d="M7.92307 1H14.0769C14.4849 1 14.8763 1.16209 15.1648 1.4506C15.4533 1.73912 15.6154 2.13044 15.6154 2.53846V5.61538H6.38461V2.53846C6.38461 2.13044 6.5467 1.73912 6.83522 1.4506C7.12374 1.16209 7.51505 1 7.92307 1Z" stroke="#52706E" stroke-linecap="round" stroke-linejoin="round"/>
<path d="M5.61539 11H16.3846" stroke="#52706E" stroke-linecap="round" stroke-linejoin="round"/>
<path d="M5.61539 15.6154H16.3846" stroke="#52706E" stroke-linecap="round" stroke-linejoin="round"/>
</svg>
