<svg width="22" height="20" viewBox="0 0 22 20" fill="none" xmlns="http://www.w3.org/2000/svg">
<path d="M7.92309 7.92309C9.83485 7.92309 11.3846 6.3733 11.3846 4.46155C11.3846 2.54979 9.83485 1 7.92309 1C6.01133 1 4.46155 2.54979 4.46155 4.46155C4.46155 6.3733 6.01133 7.92309 7.92309 7.92309Z" stroke="#52706E" stroke-linecap="round" stroke-linejoin="round"/>
<path d="M14.8462 19.4616H1V17.9231C1 16.087 1.7294 14.3261 3.02773 13.0277C4.32606 11.7294 6.08697 11 7.92309 11C9.75921 11 11.5201 11.7294 12.8185 13.0277C14.1168 14.3261 14.8462 16.087 14.8462 17.9231V19.4616Z" stroke="#52706E" stroke-linecap="round" stroke-linejoin="round"/>
<path d="M14.0769 1C14.995 1 15.8755 1.3647 16.5246 2.01386C17.1738 2.66303 17.5385 3.54349 17.5385 4.46155C17.5385 5.3796 17.1738 6.26006 16.5246 6.90923C15.8755 7.55839 14.995 7.92309 14.0769 7.92309" stroke="#52706E" stroke-linecap="round" stroke-linejoin="round"/>
<path d="M16.5385 11.2922C17.849 11.7908 18.9772 12.6755 19.7739 13.8293C20.5706 14.9831 20.9981 16.3517 21 17.7538V19.4615H18.6923" stroke="#52706E" stroke-linecap="round" stroke-linejoin="round"/>
</svg>
