<svg width="41" height="42" viewBox="0 0 41 42" fill="none" xmlns="http://www.w3.org/2000/svg">
<path d="M31.2692 1H9.73077C4.63276 1 0.5 5.13276 0.5 10.2308V31.7692C0.5 36.8672 4.63276 41 9.73077 41H31.2692C36.3672 41 40.5 36.8672 40.5 31.7692V10.2308C40.5 5.13276 36.3672 1 31.2692 1Z" stroke="#52706E" stroke-linecap="round" stroke-linejoin="round"/>
<path d="M11.2693 24.077L17.577 29.1231C17.7464 29.2626 17.9447 29.3626 18.1576 29.4159C18.3705 29.4691 18.5926 29.4742 18.8077 29.4308C19.0249 29.3901 19.2308 29.303 19.4113 29.1756C19.5918 29.0482 19.7428 28.8834 19.8539 28.6924L29.7308 11.7693" stroke="#52706E" stroke-linecap="round" stroke-linejoin="round"/>
</svg>
