<svg width="22" height="22" viewBox="0 0 22 22" fill="none" xmlns="http://www.w3.org/2000/svg">
<path d="M11.7538 16.3846H14.8307" stroke="#52706E" stroke-linecap="round" stroke-linejoin="round"/>
<path d="M17.9077 16.3846H20.9846" stroke="#52706E" stroke-linecap="round" stroke-linejoin="round"/>
<path d="M3.59991 7.81543L12.523 12.9385" stroke="#52706E" stroke-linecap="round" stroke-linejoin="round"/>
<path d="M4.46154 7.92308C6.37329 7.92308 7.92308 6.37329 7.92308 4.46154C7.92308 2.54978 6.37329 1 4.46154 1C2.54978 1 1 2.54978 1 4.46154C1 6.37329 2.54978 7.92308 4.46154 7.92308Z" stroke="#52706E" stroke-linecap="round" stroke-linejoin="round"/>
<path d="M3.59991 14.1846L20.9999 4.15381" stroke="#52706E" stroke-linecap="round" stroke-linejoin="round"/>
<path d="M4.46154 21C6.37329 21 7.92308 19.4502 7.92308 17.5384C7.92308 15.6267 6.37329 14.0769 4.46154 14.0769C2.54978 14.0769 1 15.6267 1 17.5384C1 19.4502 2.54978 21 4.46154 21Z" stroke="#52706E" stroke-linecap="round" stroke-linejoin="round"/>
</svg>
