<svg width="27" height="17" viewBox="0 0 27 17" fill="none" xmlns="http://www.w3.org/2000/svg">
<path d="M25.5036 7.41605C25.8231 7.77009 26 8.23005 26 8.70696C26 9.18388 25.8231 9.64384 25.5036 9.99788C23.4805 12.1751 18.8756 16.4139 13.5 16.4139C8.12439 16.4139 3.51948 12.1751 1.4964 9.99788C1.17687 9.64384 1 9.18388 1 8.70696C1 8.23005 1.17687 7.77009 1.4964 7.41605C3.51948 5.23883 8.12439 1 13.5 1C18.8756 1 23.4805 5.23883 25.5036 7.41605Z" stroke="#52706E" stroke-linecap="round" stroke-linejoin="round"/>
<path d="M13.4997 12.5605C15.6279 12.5605 17.3532 10.8352 17.3532 8.707C17.3532 6.57878 15.6279 4.85352 13.4997 4.85352C11.3715 4.85352 9.64624 6.57878 9.64624 8.707C9.64624 10.8352 11.3715 12.5605 13.4997 12.5605Z" stroke="#52706E" stroke-linecap="round" stroke-linejoin="round"/>
</svg>
