<svg width="32" height="20" viewBox="0 0 32 20" fill="none" xmlns="http://www.w3.org/2000/svg">
<path d="M30.4043 8.69926C30.7878 9.12411 31 9.67606 31 10.2484C31 10.8207 30.7878 11.3726 30.4043 11.7975C27.9766 14.4101 22.4507 19.4967 16 19.4967C9.54927 19.4967 4.02338 14.4101 1.59568 11.7975C1.21225 11.3726 1 10.8207 1 10.2484C1 9.67606 1.21225 9.12411 1.59568 8.69926C4.02338 6.0866 9.54927 1 16 1C22.4507 1 27.9766 6.0866 30.4043 8.69926Z" stroke="#7DA4A1" stroke-linecap="round" stroke-linejoin="round"/>
<path d="M15.9997 14.8725C18.5535 14.8725 20.6238 12.8022 20.6238 10.2483C20.6238 7.69446 18.5535 5.62415 15.9997 5.62415C13.4458 5.62415 11.3755 7.69446 11.3755 10.2483C11.3755 12.8022 13.4458 14.8725 15.9997 14.8725Z" stroke="#7DA4A1" stroke-linecap="round" stroke-linejoin="round"/>
</svg>
