<svg width="40" height="40" viewBox="0 0 40 40" fill="none" xmlns="http://www.w3.org/2000/svg">
<path d="M40 20.8174C40 15.4768 38.0381 10.4632 34.4414 6.53951C32.5886 4.57766 30.5177 2.94278 28.1199 1.74387L27.5749 2.6158C28.8828 3.37875 30.0817 4.35967 31.1717 5.44959C34.8774 9.26431 36.9482 14.2779 37.0572 19.6185C37.0572 20.3815 37.0572 21.6894 36.9482 22.7793C36.2943 20.4905 35.0954 18.4196 33.4605 16.6758C32.9155 16.0218 32.3706 15.4768 31.6076 15.1499C31.4986 16.7847 31.1717 18.4196 30.7357 20.0545C31.3896 20.4905 31.9346 21.0354 32.4796 21.5804C33.8965 22.8883 34.7684 24.7411 34.8774 26.703C34.8774 27.6839 34.4414 28.6649 33.6785 29.3188C32.5886 30.1907 31.2807 30.6267 29.8638 30.6267C27.7929 30.5177 25.7221 29.8638 23.9782 28.6649C26.703 25.9401 28.6649 22.5613 29.5368 18.8556C29.9728 17.2207 30.1907 15.5858 30.1907 13.842C30.1907 11.0082 29.5368 8.17439 28.1199 5.66758C26.267 2.17984 22.6703 0 18.7466 0C13.842 0.108992 9.15531 2.28883 5.88556 5.88556C2.17984 9.48229 0 14.4959 0 19.7275C0 20.5995 0 21.4714 0.108992 22.3433H1.08992C1.08992 17.1117 3.16076 12.2071 6.97548 8.61036C8.93733 6.75749 11.1172 5.12262 13.624 4.0327C11.8801 5.66758 10.6812 7.84741 10.0272 10.1362C9.80926 10.8992 9.70027 11.6621 9.70027 12.4251C11.2262 11.6621 12.752 11.1172 14.3869 10.7902C14.6049 8.50136 15.5858 6.43052 17.1117 4.68665C17.8747 3.92371 18.8556 3.37875 19.9455 3.37875C21.6894 3.48774 23.2153 4.57766 23.9782 6.10354C24.9591 7.9564 25.3951 10.1362 25.1771 12.2071C21.4714 11.0082 17.5477 11.0082 13.842 12.2071C10.6812 12.97 7.84741 14.6049 5.55858 16.8937C3.16076 19.1826 1.74387 22.2343 1.52589 25.5041C1.63488 28.7738 3.05177 31.8256 5.44959 34.0055C9.3733 37.7112 14.4959 39.891 19.9455 39.782C24.1962 39.782 28.2289 38.4741 31.7166 36.0763L31.4986 35.4223C28.7738 36.9482 25.7221 37.7112 22.5613 37.7112C17.7657 37.8202 13.188 36.2943 9.3733 33.4605C10.3542 33.7875 11.4441 34.0055 12.5341 34.0055C14.6049 34.0055 16.6757 33.5695 18.5286 32.6976C17.1117 31.7166 15.8038 30.6267 14.7139 29.4278C13.297 29.9728 11.6621 30.4087 10.1362 30.4087C8.61035 30.5177 7.19346 29.9728 6.10354 28.9918C5.44959 28.3379 5.12262 27.4659 5.12262 26.485C5.23161 24.6322 6.10354 22.7793 7.52044 21.5804C8.39237 20.5995 9.48229 19.8365 10.6812 19.2916C11.6621 22.9973 13.624 26.485 16.3488 29.2098C19.5095 32.4796 23.8692 34.4414 28.4469 34.6594C31.3896 34.7684 34.2234 33.6785 36.2943 31.7166C38.6921 28.6649 40 24.7411 40 20.8174ZM24.8501 17.5477C23.8692 20.5995 22.1253 23.3243 19.8365 25.6131C17.6567 23.2153 16.2398 20.3815 15.4768 17.2207C16.7847 16.8937 18.0926 16.7847 19.4005 16.7847C21.2534 16.7847 23.1063 17.1117 24.8501 17.5477Z" fill="#00937B"/>
</svg>
