<svg width="68" height="91" viewBox="0 0 68 91" fill="none" xmlns="http://www.w3.org/2000/svg">
<path d="M62.2115 57.8121C63.6375 59.2499 64.8043 60.8056 65.641 62.4909C68.2809 67.8415 67.3028 73.7459 62.0583 78.8961C56.0478 84.8006 45.8063 88.4304 33.9149 88.4304C22.0235 88.4304 11.7821 84.8006 5.77154 78.8961C0.527065 73.7459 -0.439333 67.8415 2.1888 62.4909C3.01377 60.8174 4.16873 59.2617 5.60654 57.8121C3.92124 59.4385 2.60128 60.8763 1.39918 63.2805C-1.17002 68.4189 -0.34505 75.773 5.0762 81.1C11.2399 87.1576 20.8921 90.7993 34.021 90.7993C47.1852 90.7993 56.8374 87.0398 62.7418 81.1C68.5402 75.278 68.7641 67.6882 66.3835 63.1155C65.3818 61.2181 64.0618 59.4621 62.2115 57.8121Z" fill="url(#paint0_linear_509_477)"/>
<path d="M52.5587 51.625C46.9843 49.3151 40.5023 48.1248 33.9143 48.1248C27.3263 48.1248 20.8326 49.3151 15.2699 51.625C9.17691 54.1588 4.45099 57.9066 2.1882 62.4911C-0.439925 67.8416 0.526473 73.7461 5.77095 78.8963C11.7815 84.8007 22.0229 88.4306 33.9143 88.4306C45.8057 88.4306 56.0472 84.8007 62.0577 78.8963C67.3022 73.7461 68.2686 67.8416 65.6404 62.4911C63.3777 57.9066 58.6517 54.1471 52.5587 51.625Z" fill="#F47920"/>
<path d="M35.0221 54.1942C33.9261 51.9432 34.15 49.9043 34.3739 48.1248C34.2207 48.1248 34.0675 48.1248 33.9143 48.1248C27.3263 48.1248 20.8326 49.3151 15.2699 51.625C9.17691 54.1588 4.45099 57.9066 2.1882 62.4911C-0.439925 67.8416 0.526473 73.7461 5.77095 78.8963C6.14808 79.2616 6.52521 79.6152 6.92591 79.9569C29.0588 78.6606 40.632 65.7085 35.0221 54.1942Z" fill="url(#paint1_linear_509_477)"/>
<path d="M19.6436 54.5829C23.7567 55.6318 27.6694 56.8693 31.6529 58.3424C32.4425 55.9736 33.2792 53.6283 34.2339 51.3184C35.1885 53.6283 36.0252 55.9736 36.8148 58.3424C40.7983 56.8693 44.6403 55.6789 48.7534 54.63C45.8542 56.445 43.2968 58.3188 40.6215 60.4284C46.0663 61.1238 51.1576 62.0194 56.5081 63.1862C51.1694 63.0683 46.137 63.2569 40.8101 63.5987C44.5696 66.7807 47.787 69.8685 51.2872 73.3334C46.4906 70.5992 42.0004 68.301 37.0034 65.944C36.037 70.116 35.1178 74.3115 34.2339 78.4953C33.35 74.2998 32.5368 70.3163 31.5704 66.1443C26.5734 68.5014 22.036 70.7524 17.0862 73.3687C20.5864 69.9038 23.8981 66.8868 27.6576 63.7047C22.3189 63.363 17.2158 63.2923 11.7474 63.2098C17.0626 62.0548 22.4367 61.1355 27.8344 60.452C25.1709 58.3542 22.5428 56.3978 19.6436 54.5829ZM34.2456 61.878V52.6501C33.3146 55.2193 32.4896 57.8121 31.7118 60.4284C32.5485 60.9116 33.3971 61.3948 34.2456 61.878ZM22.0478 55.5964C25.3477 57.046 28.5533 58.6842 31.7 60.4402C30.9222 60.5227 30.1326 60.6052 29.3547 60.6877C26.9859 58.8963 24.5581 57.1875 22.0478 55.5964ZM34.2456 61.878C40.5979 61.8898 46.9384 62.208 53.2554 62.8326C47.7045 61.8309 42.3186 61.0648 36.7559 60.4166C35.9192 60.8998 35.0824 61.383 34.2456 61.878ZM46.4317 55.5964C43.1318 57.046 39.9144 58.6842 36.7677 60.4284C36.6381 59.9924 36.5084 59.5681 36.3788 59.132C39.6787 57.8239 43.0257 56.6218 46.4317 55.5964ZM33.9039 61.8898C34.0335 66.3447 34.1985 71.0706 34.2456 75.384C35.0706 71.4006 35.9309 67.4171 36.8502 63.4455C35.9899 62.9151 34.7878 62.3966 33.9039 61.8898ZM48.2348 71.0706C44.5342 68.3953 40.7394 65.8379 36.8502 63.4455C37.6516 63.3865 38.4412 63.3276 39.2426 63.2687C42.3304 65.7554 45.3238 68.3717 48.2348 71.0706ZM34.2456 61.878C27.8462 61.9723 22.861 62.2551 16.6266 62.7973C22.0125 62.8091 26.1845 63.0212 31.6529 63.4455C32.5132 62.9151 33.3735 62.3966 34.2456 61.878ZM20.2564 71.0706C23.9688 68.3953 27.7637 65.8497 31.6529 63.4455C31.7707 63.9404 31.8768 64.4354 31.9946 64.9304C28.0112 66.8514 24.0985 68.9021 20.2564 71.0706Z" fill="white"/>
<path d="M34.2338 51.4716C35.1884 53.7816 36.0252 56.1268 36.8148 58.4957C40.5979 57.105 44.4399 55.9029 48.3408 54.9012C48.4823 54.8187 48.6119 54.7244 48.7533 54.6419C44.711 55.6672 40.7275 56.9047 36.8148 58.3543C36.0252 55.9854 35.1884 53.6401 34.2338 51.3302C33.2792 53.6401 32.4424 55.9854 31.6528 58.3543C27.6694 56.8811 23.7566 55.6436 19.6436 54.5947C19.785 54.6772 19.9146 54.7715 20.056 54.854C24.0277 55.8793 27.8108 57.0814 31.6528 58.5075C32.4424 56.1268 33.2792 53.7816 34.2338 51.4716Z" fill="#C9252C"/>
<path d="M27.6569 63.7168C23.9564 66.8635 20.5386 69.963 17.0973 73.3808L17.6512 73.0744C21.0336 69.7391 24.0271 67.0285 27.6687 63.9525L27.6569 63.7168Z" fill="#CB4D2C"/>
<path d="M34.1039 61.9602L33.9743 62.0427C33.1965 62.5023 32.4186 62.9737 31.6526 63.4569L31.6879 63.6101C32.5365 63.0916 33.385 62.5848 34.2454 62.078V61.8777L34.1039 61.9602Z" fill="#C4161C"/>
<path d="M31.699 60.4406L31.4633 60.4641C30.7562 60.5349 30.0609 60.6056 29.3538 60.6881C26.9849 58.8967 24.5571 57.1878 22.0469 55.5968V55.7854C24.5571 57.3764 26.9849 59.0853 29.3538 60.8766C30.1316 60.7941 30.9212 60.6999 31.699 60.6291C32.4651 61.0534 33.184 61.4541 33.9383 61.8902H34.2447C33.3961 61.3952 32.5476 60.912 31.699 60.4406ZM20.2555 71.2831C24.0975 69.1146 28.0102 67.0639 31.9937 65.1547V64.9426C28.0102 66.8636 24.0975 68.9024 20.2555 71.0709V71.2831Z" fill="#CB4D2C"/>
<path d="M36.8494 63.4336C35.942 67.3581 35.0581 71.424 34.2449 75.3721V75.5253C35.0698 71.5419 35.9302 67.582 36.8494 63.6104C39.5011 65.2485 43.3549 67.7706 48.2459 71.2944V71.0587C44.5335 68.3952 40.7386 65.8378 36.8494 63.4336ZM40.9861 63.7518L40.8211 63.6104V63.8579C44.451 66.9338 47.3502 69.6798 50.7326 73.0269C50.8504 73.0976 51.1804 73.2861 51.31 73.3568C47.7391 69.8095 44.557 66.7924 40.9861 63.7518Z" fill="#A71C20"/>
<path d="M27.6798 60.4877C22.341 61.1712 17.0259 62.0787 11.7578 63.2219C12.0171 63.2219 12.3353 63.2337 12.5946 63.2337C17.6387 62.1612 22.73 61.3009 27.8448 60.6527V60.4641L27.6798 60.4877ZM31.6515 63.4458C26.6427 63.0097 21.6575 62.7623 16.6369 62.8094V62.9626C21.5868 62.9272 26.5131 63.163 31.4511 63.5872L31.6515 63.4458Z" fill="#CB4D2C"/>
<path d="M40.6206 60.4288C46.0654 61.1241 51.1567 62.0198 56.5072 63.1866C56.2362 63.1748 55.8826 63.1748 55.6116 63.1748C50.5085 62.0905 45.7826 61.2773 40.6206 60.6291V60.4288ZM34.2448 61.8784C40.597 61.8902 46.9376 62.2084 53.2545 62.833V62.998C47.0318 62.3734 40.7856 62.0552 34.5276 62.0316C34.4805 62.008 34.4215 61.9727 34.3744 61.9373L34.2448 61.8784H34.504H34.2448ZM36.755 60.4288C36.8375 60.4406 36.9082 60.4524 36.9789 60.4524C40.0549 58.7553 43.1898 57.1642 46.4072 55.75V55.5968C43.1191 57.0464 39.9135 58.6728 36.755 60.4288Z" fill="#A71C20"/>
<path d="M36.7559 60.4282C36.6262 59.9922 36.4966 59.5679 36.3669 59.1318V59.285C36.4848 59.674 36.6026 60.0629 36.7087 60.44C36.7323 60.44 36.7441 60.44 36.7559 60.4282Z" fill="#C4161C"/>
<path d="M34.8698 87.2046C34.6812 87.346 34.4219 87.4875 34.2452 87.6289C34.0566 87.4875 33.7973 87.346 33.6087 87.2046C33.6087 85.4722 33.6087 83.7515 33.6087 82.0191C33.7973 81.8894 34.0684 81.7598 34.2452 81.6419C34.4337 81.7716 34.6812 81.9012 34.858 82.0191L34.8698 87.2046ZM4.11005 74.665L3.80363 75.2543C3.9922 75.325 4.35754 75.4429 4.52254 75.5136C6.33748 74.5472 8.12885 73.5808 9.90844 72.6497C9.97915 72.3787 10.0145 72.2255 10.097 72.0133C9.90844 71.9662 9.73166 71.919 9.54309 71.8719C7.71636 72.7794 5.90142 73.7104 4.11005 74.665ZM2.77831 64.0346C2.61331 64.1643 2.44832 64.2939 2.28333 64.4353C2.37761 64.5532 2.47189 64.6946 2.55439 64.8125C4.23969 64.5768 5.93678 64.3646 7.63387 64.1879C7.78708 64.0346 7.98743 63.8461 8.12885 63.7047C8.03457 63.5986 7.9285 63.5043 7.83422 63.3982C6.14892 63.575 4.46361 63.7872 2.77831 64.0346ZM9.27203 55.4549L8.75347 55.6788C8.76526 55.7849 8.78883 55.9617 8.80061 56.0678C10.0499 56.2445 11.2873 56.4567 12.5366 56.6924C12.7016 56.5981 12.9137 56.4685 13.0669 56.386L12.9962 56.056C11.7705 55.8321 10.5213 55.6199 9.27203 55.4549ZM47.3858 50.1751C47.539 50.1751 47.704 50.1751 47.8572 50.1751L48.0458 50.3637C47.3976 50.7761 46.7494 51.2122 46.1248 51.6483C45.9598 51.6483 45.7948 51.6483 45.6298 51.6483L45.4412 51.4361C46.0776 51.0119 46.7258 50.5758 47.3858 50.1751ZM33.7973 48.3719L34.1509 48.2659L34.5162 48.3719L34.528 49.8922C34.3984 49.9394 34.2805 49.9747 34.1509 50.0219C34.033 49.9747 33.9034 49.9394 33.7855 49.8922L33.7973 48.3719ZM20.1499 50.399C20.2088 50.3401 20.3502 50.2222 20.4092 50.1633L20.8924 50.1515C21.5523 50.564 22.2005 50.9883 22.8369 51.4361L22.6484 51.6483C22.4834 51.6483 22.2477 51.6954 22.0827 51.6836C21.4463 51.2358 20.7981 50.8115 20.1499 50.399ZM16.1782 84.0344C15.919 84.0933 15.589 84.0933 15.3415 84.1522C15.2825 83.9754 15.1529 83.7869 15.1058 83.6101C16.3668 82.1016 17.6514 80.593 18.9478 79.1081C19.1953 79.0492 19.5253 79.002 19.7728 78.9431C19.8317 79.0963 19.9495 79.3674 20.0203 79.5088C18.7239 81.0173 17.4393 82.514 16.1782 84.0344ZM63.956 74.665C64.062 74.8536 64.1563 75.0539 64.2624 75.2543C64.0738 75.325 63.7085 75.4429 63.5435 75.5136C61.7285 74.5472 59.9372 73.5808 58.1576 72.6497C58.0869 72.3787 58.0515 72.2255 57.969 72.0133C58.1576 71.9662 58.3344 71.919 58.5229 71.8719C60.3379 72.7794 62.1528 73.7104 63.956 74.665ZM65.2877 64.0346C65.4527 64.1643 65.6177 64.2939 65.7827 64.4353C65.6884 64.5532 65.5941 64.6946 65.5116 64.8125C63.8263 64.5768 62.1292 64.3646 60.4322 64.1879C60.2789 64.0346 60.0786 63.8461 59.9372 63.7047C60.0315 63.5986 60.1375 63.5043 60.2318 63.3982C61.9171 63.575 63.6024 63.7872 65.2877 64.0346ZM58.7822 55.4549L59.3008 55.6788C59.289 55.7849 59.2654 55.9617 59.2536 56.0678C58.0044 56.2445 56.7669 56.4567 55.5177 56.6924C55.3527 56.5981 55.1405 56.4685 54.9873 56.386C55.0109 56.2799 55.0345 56.1738 55.058 56.056C56.2955 55.8321 57.533 55.6199 58.7822 55.4549ZM51.876 84.0344C52.0881 84.0697 52.4535 84.1169 52.7128 84.1522C52.7953 83.9754 52.8778 83.7987 52.9485 83.6101C51.6874 82.1016 50.4028 80.593 49.1065 79.1081C48.859 79.0492 48.529 79.002 48.2815 78.9431C48.2226 79.0963 48.1047 79.3674 48.034 79.5088C49.3304 81.0173 50.615 82.514 51.876 84.0344Z" fill="white"/>
<path d="M4.0863 74.9715C4.03916 75.0657 3.96845 75.2072 3.92131 75.2897C3.88595 75.2779 3.8506 75.2661 3.80346 75.2425C3.90952 75.0422 4.00381 74.8536 4.10987 74.6533C5.91303 73.6987 7.71619 72.7676 9.54291 71.8601C9.73148 71.9073 9.90826 71.9544 10.0968 72.0016C10.0615 72.1076 10.0261 72.2137 9.99076 72.308C9.84933 72.2608 9.64898 72.2373 9.49577 72.1901C7.68083 73.1094 5.88946 74.0169 4.0863 74.9715ZM2.82527 64.2704C2.73099 64.3411 2.4835 64.5179 2.38922 64.6004C2.34207 64.5414 2.33029 64.5179 2.27136 64.4354C2.43636 64.3057 2.60135 64.1643 2.76635 64.0347C4.45165 63.7872 6.13695 63.5868 7.82225 63.4101C7.91654 63.5161 8.0226 63.6104 8.11689 63.7165C8.08153 63.7518 8.04618 63.7872 8.01082 63.8225C7.96368 63.7754 7.8694 63.6929 7.83404 63.6575C6.17231 63.8225 4.49879 64.0229 2.82527 64.2704ZM8.78865 55.9382L8.7533 55.6789L9.27185 55.455C10.5211 55.6317 11.7586 55.8321 13.0078 56.0678L13.0785 56.3978C13.0549 56.4096 10.5329 55.9028 9.29542 55.7378L8.78865 55.9382Z" fill="#CC612C"/>
<path d="M47.857 50.4344L47.8806 50.458C47.9395 50.4226 47.9867 50.3873 48.0456 50.3519C47.9867 50.293 47.916 50.2223 47.857 50.1633H47.3856C46.7256 50.5758 46.0774 51.0001 45.441 51.4479L45.5825 51.6129C46.1717 51.2004 46.7728 50.8115 47.3856 50.4344C47.5388 50.4344 47.7038 50.4344 47.857 50.4344Z" fill="#A71C20"/>
<path d="M33.7971 48.6312L34.1507 48.5251L34.516 48.6312V48.3719C34.3982 48.3366 34.2685 48.3012 34.1507 48.2659L33.7971 48.3719V48.6312Z" fill="#B7161C"/>
<path d="M20.9033 50.3873C21.5161 50.7644 22.0936 51.1887 22.6829 51.6012L22.8361 51.4362C22.1997 50.9884 21.5515 50.5641 20.8915 50.1516C20.7265 50.1516 20.5733 50.1516 20.4083 50.1634C20.3494 50.2223 20.208 50.3402 20.149 50.3991L20.314 50.5052C20.3258 50.4934 20.4201 50.4109 20.4319 50.3991C20.5851 50.3873 20.7383 50.3873 20.9033 50.3873Z" fill="#CB4D2C"/>
<path d="M19.725 79.167C19.7957 79.2613 19.8782 79.4735 19.9489 79.5913L20.0196 79.5206C19.996 79.4499 19.8428 79.1081 19.7721 78.9549C19.5246 79.0138 19.1946 79.061 18.9471 79.1199C17.6507 80.6049 16.3661 82.1016 15.1051 83.6219C15.1287 83.6926 15.1758 83.7751 15.1994 83.834C16.0126 82.8676 17.7686 80.7699 19.0414 79.3085C19.2418 79.2495 19.5128 79.2142 19.725 79.167ZM63.9671 74.9715C64.0142 75.0657 64.0849 75.2072 64.1439 75.2897C64.1792 75.2779 64.2146 75.2661 64.2617 75.2425C64.1557 75.0422 64.0614 74.8536 63.9553 74.6533C62.1522 73.6987 60.349 72.7676 58.5223 71.8601C58.3337 71.9073 58.1569 71.9544 57.9684 72.0016C58.0037 72.1076 58.0391 72.2137 58.0626 72.308C58.2041 72.2608 58.4044 72.2373 58.5576 72.1901C60.3726 73.1094 62.1639 74.0169 63.9671 74.9715ZM65.2281 64.2704C65.3224 64.3411 65.5699 64.5179 65.6642 64.6004C65.7113 64.5414 65.7231 64.5179 65.782 64.4354C65.617 64.3057 65.452 64.1643 65.2871 64.0347C63.6018 63.7872 61.9165 63.5868 60.2312 63.4101C60.1369 63.5161 60.0308 63.6104 59.9365 63.7165C59.9719 63.7518 60.0072 63.7754 60.0426 63.8225C60.0897 63.7754 60.184 63.6929 60.2194 63.6575C61.8929 63.8225 63.5428 64.0229 65.2281 64.2704ZM59.2648 55.9382L59.3001 55.6789C59.1351 55.6082 58.9583 55.5257 58.7815 55.455C57.5323 55.6317 56.2948 55.8321 55.0456 56.0678L54.9749 56.3978C54.9985 56.4096 57.5205 55.9028 58.758 55.7378L59.2648 55.9382ZM48.328 79.167C48.2573 79.2613 48.1748 79.4735 48.104 79.5913C48.0805 79.5677 48.0569 79.5442 48.0333 79.5206C48.0569 79.4499 48.2101 79.1081 48.2808 78.9549C48.5283 79.0138 48.8583 79.061 49.1058 79.1199C50.4022 80.6049 51.6868 82.1134 52.9478 83.6219C52.9242 83.6926 52.8889 83.7633 52.8653 83.834C52.0521 82.8676 50.2843 80.7699 49.0115 79.3085C48.8112 79.2495 48.5401 79.2142 48.328 79.167ZM34.7513 82.2077L34.8691 87.2046L34.8573 82.0191C34.6688 81.8895 34.4213 81.7598 34.2445 81.642C34.0559 81.7716 33.7849 81.9012 33.6081 82.0191V87.2046L33.7259 82.2077C33.8791 82.1016 34.1031 82.0073 34.2445 81.9012C34.3859 82.0073 34.598 82.1016 34.7513 82.2077Z" fill="#A71C20"/>
<path d="M9.14161 63.481C11.3926 53.4163 25.3582 50.4229 34.1265 50.4229C42.8948 50.4229 56.8486 53.4163 59.1114 63.481C61.9163 76.0206 43.213 80.6876 34.1383 80.6876C25.0636 80.6876 6.3367 76.0206 9.14161 63.481ZM10.0491 63.4103C12.1704 53.6756 25.6764 50.8 34.1147 50.8C42.5412 50.8 56.059 53.6874 58.1804 63.4221C60.8085 75.4667 42.8359 79.9098 34.1147 79.9098C25.3936 79.898 7.43274 75.4549 10.0491 63.4103Z" fill="#CB4D2C"/>
<path d="M9.22533 63.7874C11.4763 53.7227 24.8645 50.6821 34.1985 50.6821C43.5089 50.6821 56.9206 53.7227 59.1834 63.7992C61.9883 76.327 43.2849 81.0058 34.2102 81.0058C25.1237 80.994 6.40864 76.327 9.22533 63.7874ZM10.1328 63.7167C12.2542 53.982 25.7602 51.1064 34.1985 51.1064C42.6368 51.1064 56.1427 53.9938 58.2641 63.7285C60.8922 75.7613 42.9314 80.2162 34.1985 80.2162C25.4773 80.2162 7.50467 75.7613 10.1328 63.7167Z" fill="white"/>
<path opacity="0.45" d="M64.0147 65.8734L59.9251 65.2488L59.383 65.1191C58.6995 64.9777 57.3795 64.2352 56.8138 63.3513C56.2363 62.4674 54.8692 60.9471 54.1032 60.0043C53.0543 58.6961 50.6737 57.494 50.3319 56.9519C49.9783 56.4098 49.4126 55.4669 49.2476 55.0898C49.0944 54.7127 48.7173 54.4063 48.1045 54.4416C47.4916 54.477 47.4327 54.6891 46.9024 54.7245C46.372 54.7598 45.6295 54.642 45.6295 54.642C45.3113 54.5713 45.0874 54.5359 44.8635 54.5359C44.5335 55.078 44.0385 55.408 42.8128 55.408C42.7303 55.408 42.6596 55.3962 42.6007 55.3845C42.7303 55.6555 43.8617 55.8205 44.0503 55.8087C44.2389 55.7969 45.3113 56.1034 45.5588 56.1387C46.0538 56.233 45.9595 56.0562 46.7491 56.5158C48.0573 57.2701 50.0137 59.3561 50.4026 61.1593C50.6147 62.161 52.3236 63.7874 52.5357 64.7067C50.2494 64.5417 47.197 63.0213 47.197 63.0213L46.8199 62.8328C46.8199 62.8328 45.4645 62.1492 43.3785 62.055C39.4422 61.7014 37.9455 61.1711 37.5566 61.0414C36.7434 60.7704 36.8613 60.6289 36.2013 60.5936C36.0716 60.5818 35.9538 60.5818 35.8477 60.5818C35.7652 60.7468 35.6474 60.9 35.5059 61.0296C34.7752 61.725 34.2685 62.2553 33.6556 63.1981C33.4906 63.4574 33.2078 63.6106 32.8778 63.7049C33.6321 63.5281 35.1052 63.1392 35.1052 63.1392C36.4959 62.9506 38.6055 63.5753 38.6055 63.5753C39.3833 63.7285 40.6797 64.2352 40.6797 64.2352C40.6797 64.2352 46.2895 65.9559 47.6684 66.9576C48.5759 67.6176 53.2311 69.3619 54.4685 69.7861C55.706 70.2104 58.723 71.8486 58.723 71.8486C59.5009 72.5085 64.0029 74.4767 65.2403 74.8892C66.8314 72.1314 67.3853 69.3147 66.9374 66.4627L64.0147 65.8734Z" fill="#4F264A"/>
<path opacity="0.45" d="M61.9523 61.2062C61.5516 61.2062 61.1038 61.3122 61.1038 61.3122L59.9842 61.9722C59.8427 62.2079 60.3495 62.5025 60.3495 62.5025C60.3495 62.5025 61.7637 62.5968 61.752 62.9622C62.7891 63.5161 65.0047 63.575 66.1243 63.6339C65.9711 63.245 65.8061 62.8679 65.6175 62.5025C65.4408 62.1372 65.2404 61.7836 65.0283 61.4301C64.9811 61.3947 64.1326 61.159 61.9523 61.2062ZM53.6201 74.9479C53.6201 74.9479 53.349 74.6061 51.923 74.6061C51.0155 74.6061 52.3119 76.751 52.3119 76.751C53.1251 77.3049 56.0714 78.1417 56.6961 78.2242C57.3089 78.3067 59.3713 78.9195 59.3713 78.9195C59.3713 78.9195 60.4438 79.0609 61.5398 79.3909C62.3412 78.6602 63.0955 77.8588 63.7673 77.0103C61.2805 76.9632 57.7449 76.916 55.0697 75.5136C54.8104 74.7004 53.6201 74.9479 53.6201 74.9479Z" fill="#4F264A"/>
<path d="M46.0779 35.8678C46.0779 35.8678 45.2529 35.1135 45.2411 35.0781C45.1822 34.8189 45.4768 34.4653 45.5475 34.0175C45.465 33.9821 45.3707 33.9467 45.3 33.9114C45.0997 33.1453 44.9347 31.7782 45.3 31.0358C45.4768 30.6822 45.6889 30.199 45.5711 29.7865C44.8875 27.453 43.544 25.4142 42.5894 23.1985C42.3301 22.5975 42.3773 22.1614 42.3419 21.5486C41.5994 20.7354 40.7509 18.614 40.3384 17.2941C39.4781 19.4626 38.9124 21.9611 38.9124 22.5385C38.9124 24.9781 41.3873 26.1684 40.527 30.2226C40.362 31.0122 40.0673 32.0965 39.7727 33.2043C40.2913 36.0328 40.2913 38.0834 41.0455 41.3715C42.1062 42.4204 42.9901 43.7639 43.4615 45.4728C43.7561 46.5335 44.64 49.0084 45.7832 49.3855C46.4903 49.6212 43.3908 50.1869 42.5069 49.0791C41.6584 48.0184 40.197 47.1699 39.5134 46.0503C38.9595 45.1546 38.111 43.2454 37.5688 42.3379L36.9089 45.8146C37.8163 49.527 37.2742 50.3519 36.4728 53.369C36.131 54.6771 33.4911 48.5841 33.4911 48.1009C33.4911 46.781 33.4086 46.286 33.1022 45.1192C32.5483 44.0468 32.6072 42.5265 32.6897 41.3597C32.8194 39.4269 32.7958 35.7735 32.8783 34.8071C32.2183 33.1807 30.5094 30.2344 30.3444 28.5726C30.0852 25.9916 30.5212 23.3753 30.1559 20.7943C29.708 22.0789 29.2366 23.7171 28.2349 24.707C26.7381 26.192 25.3475 27.8302 24.0039 29.4447C23.5207 30.1165 23.945 30.4347 23.1907 31.5072C22.4483 32.5561 22.849 32.0847 22.684 33.0864C22.6604 33.2278 22.6015 33.3575 22.5072 33.4518C22.1065 33.7817 21.6822 34.0764 21.1165 33.8289C20.0087 33.275 19.938 32.45 19.8555 31.4011C19.7141 29.3858 21.199 29.2915 22.0476 28.0659C23.7093 25.6734 24.5461 21.6546 26.3139 19.8397C26.4199 19.4861 26.8442 18.1898 27.6338 16.2687C27.6574 13.8881 28.2466 11.7667 30.698 10.7886C31.6997 10.3879 33.0197 10.2818 33.0668 8.90291C33.0786 8.73792 33.0433 8.31364 32.9372 8.16043C32.5365 7.83044 32.2537 7.83044 32.0533 7.59474C31.6526 7.08797 31.3226 3.81165 31.3698 3.59951C31.9355 0.853527 33.2672 -0.0775139 34.9525 0.00498342C36.9442 0.0992661 38.5235 1.06566 38.441 3.74093C38.3702 5.89765 36.1428 8.65542 39.4781 9.70431C40.7509 10.105 40.9866 9.82217 42.0826 10.93C43.3083 12.1557 43.6029 14.3477 43.8151 16.3748L45.0643 19.274C47.3507 23.1278 46.5257 24.3535 47.3742 28.278C47.5864 29.2915 47.9635 30.1872 48.046 32.4147C48.0696 33.4753 47.2328 35.8324 46.0779 35.8678Z" fill="#FBB257"/>
<path d="M22.1889 32.9689C22.2949 31.9436 22.1417 32.0261 22.8017 31.0715C23.4145 30.1876 23.1199 29.7397 23.6503 28.9737C24.9702 27.3237 26.2195 25.6502 27.7044 24.1535C28.6944 23.1399 30.0497 19.7575 30.3679 18.5554C30.4268 18.3787 30.5211 18.2962 30.5682 18.4494C30.7804 20.7239 31.0986 22.6214 31.0161 24.8488C30.8511 29.5394 30.9689 29.0444 32.9253 33.4285C33.0903 31.6725 33.5146 29.1151 34.5399 28.243C33.3378 32.8039 33.2671 39.3212 33.1374 41.3247C33.0785 42.3382 32.7957 43.9528 33.2789 44.8839C33.4439 45.5203 33.4556 46.4749 33.4674 47.2056C33.4674 47.6534 33.5028 55.2196 33.5028 55.2196L32.7957 58.7316C32.5482 59.7452 31.24 61.4541 30.2736 61.9844C29.9672 62.1494 29.2483 62.5383 29.2483 62.8801C29.2483 63.434 32.8192 64.4711 33.6442 63.2101C34.257 62.2672 34.7638 61.7369 35.4945 61.0416C36.6259 59.9573 35.3767 58.8495 35.5181 57.3881C35.7774 54.8425 36.8734 52.6386 37.227 50.2344C37.4391 48.7848 37.4037 47.512 36.7438 45.862L37.2152 41.2658C37.7455 42.0554 38.2405 43.3164 38.7355 44.3653C39.6312 46.2274 39.6429 46.4042 41.1868 47.9363C41.7054 48.4548 42.2475 49.0559 42.6364 49.6805C43.3671 50.8355 43.8621 51.9786 43.8032 53.3575C43.2728 54.3239 43.0371 54.265 42.3536 54.8543C42.3771 54.8896 42.165 55.42 42.8132 55.42C45.1349 55.42 44.8521 54.2061 45.736 52.6268C46.3017 51.6133 47.9398 50.0576 46.1485 49.5273C45.5828 49.3623 45.0642 49.0205 44.7342 48.4784C43.4968 46.4042 43.4496 46.4631 42.8014 44.5539C42.4125 43.3989 41.6111 42.4679 40.6801 41.7018C40.1026 40.4054 39.8787 39.4744 39.6901 38.0955C39.4426 36.2216 39.2658 34.8781 38.9476 32.9571C39.8551 29.3508 40.3265 28.5965 38.7826 25.1316C38.4173 24.3185 38.2287 23.4346 38.2287 22.5507C38.2287 21.3957 38.8651 18.8147 39.478 17.4712C39.6901 16.9291 39.9965 16.4105 40.4208 16.2455C40.7979 17.648 42.0825 20.5118 42.8368 21.2189C42.8839 21.7846 42.8603 22.3503 43.0843 22.8807C44.0271 25.1434 45.3824 27.2059 46.066 29.5865C46.3017 30.4115 45.9835 30.8004 45.7595 31.4604C45.6888 31.7786 45.6653 32.6978 45.8067 33.3814L46.1249 33.5582C46.066 33.7703 45.9245 34.3478 45.8067 34.6071C45.8538 34.9253 46.2427 35.1138 46.2427 35.1138C46.7613 34.996 47.5038 33.1221 47.4802 32.3678C47.3977 30.0697 46.9145 29.0444 46.7849 28.3608C46.0188 24.4599 46.4667 23.3992 44.2864 19.6279L43.0489 16.5637C42.8957 14.9963 42.2711 11.4135 40.2558 10.7653C39.914 10.6593 39.5722 10.6357 39.0655 10.4707C36.4373 9.62215 36.4373 7.59507 37.1562 5.39121C37.7927 3.42306 37.8752 1.11314 34.9877 0.865644C33.1964 0.712435 32.6542 2.12668 32.2771 3.74127C32.2889 3.91805 32.3832 6.55796 32.7721 7.12366C33.5381 7.68935 33.9624 7.52436 33.9153 8.95038C33.8799 10.1407 33.1139 10.8478 32.0768 11.2132C30.3915 11.8024 29.5429 12.156 28.9654 13.8884C28.7887 14.4306 28.6354 15.2202 28.6354 16.3869V16.4694C28.1522 17.6597 27.5512 19.0268 27.1859 20.2997C25.1116 22.3739 24.0863 27.0998 22.0003 29.0915C20.6096 30.4115 20.1854 30.5058 20.6921 32.5446C20.7393 32.7568 21.411 33.2871 21.5525 33.3578C21.6467 33.405 22.2007 33.0868 22.1889 32.9689Z" fill="url(#paint2_linear_509_477)"/>
<defs>
<linearGradient id="paint0_linear_509_477" x1="-0.0106394" y1="74.2999" x2="67.7984" y2="74.2999" gradientUnits="userSpaceOnUse">
<stop stop-color="#CC612C"/>
<stop offset="1" stop-color="#743237"/>
</linearGradient>
<linearGradient id="paint1_linear_509_477" x1="-5.60404" y1="68.4012" x2="36.3044" y2="61.0115" gradientUnits="userSpaceOnUse">
<stop stop-color="#FFDD7F"/>
<stop offset="1" stop-color="#F47920"/>
</linearGradient>
<linearGradient id="paint2_linear_509_477" x1="22.9946" y1="22.221" x2="47.2609" y2="46.4877" gradientUnits="userSpaceOnUse">
<stop stop-color="#2A3795"/>
<stop offset="1" stop-color="#222A7E"/>
</linearGradient>
</defs>
</svg>
