<svg width="40" height="26" viewBox="0 0 40 26" fill="none" xmlns="http://www.w3.org/2000/svg">
<path d="M0.959508 25.8227H30.2221L31.5266 23.6129L32.3322 19.185L30.7892 14.3864L28.7458 11.4341L27.7045 11.0981L26.8639 11.4668L26.5294 12.8091L22.5 13.4128L20.3884 11.8362L18.5078 7.13777L17.3684 3.88225L17.132 2.54133L16.5953 1.90286L13.6749 1.43312L11.8978 2.305L9.74975 1.43312L7.87067 1.36621L7.16741 2.54133L6.73046 3.37981L6.1261 4.89016L5.62366 7.07097L5.99239 10.5607L6.19522 13.1452L6.0592 14.654L6.69706 17.1373L6.0258 19.1501L4.9859 21.8022L4.31403 22.1382L3.34113 21.7011L2.30123 22.2719L1.19373 22.7083L0.522461 23.7147L0.622868 25.2577L0.959508 25.8227ZM31.3793 5.96497L30.5781 5.25879L28.5118 4.80464L28.4166 4.04806L29.8296 3.64441L30.7186 4.34978L31.5191 4.5014L31.9413 4.5512L33.2592 6.21619L31.3793 5.96497Z" fill="white"/>
<path d="M14.1856 9.88578V9.48133H13.4445L13.3784 9.61514L14.1856 9.88578ZM10.4194 9.48133C10.218 9.28001 9.95037 9.48133 9.61363 9.41372C9.61363 9.48143 9.54673 9.68356 9.74744 9.81667C10.0173 9.61524 10.3503 9.48143 10.4194 9.48143V9.48133ZM15.0582 5.64821C15.0582 5.64821 15.192 5.64821 15.0582 5.5806L13.5114 5.44609C13.31 5.5806 13.041 5.58061 12.9741 5.78353L12.8396 5.85044C12.9741 6.3893 12.9741 6.99366 12.9741 7.59792C13.2431 7.66553 13.5784 7.86776 13.5784 8.2713C13.8482 8.40592 14.1856 8.47202 14.3855 8.67424C14.52 8.60734 14.6547 8.40592 14.7216 8.2044C14.3855 7.86776 13.7799 8.06988 13.7799 7.46492L13.3784 7.2634C13.3784 6.85764 13.3784 6.4555 13.2431 6.18637L13.3784 6.05186C13.3784 6.18637 13.4445 6.25328 13.5784 6.3893C13.8482 6.3893 14.1856 6.4555 14.3855 6.25328C14.52 6.18637 14.5201 5.85044 14.7216 5.85044C14.7892 5.85044 14.9906 5.85044 15.0582 5.64821ZM10.9575 5.78353C10.9575 5.64832 10.823 5.5137 10.6208 5.44609H8.94025C8.94025 5.64831 9.14248 5.85054 9.34379 5.85054C9.34379 6.05186 9.54673 6.18637 9.68054 6.25328C9.81435 6.3893 9.95037 6.3893 10.1511 6.25328C10.3503 6.3893 10.4194 6.05186 10.487 6.25328C10.487 6.65692 10.487 6.85764 10.4194 7.19498C10.3503 7.66553 9.88196 7.59793 9.61363 7.86776C9.54672 8.00076 9.3438 8.40592 9.54673 8.60724C9.74744 8.47202 9.95037 8.40592 10.218 8.2713C10.218 8.06988 10.487 7.86776 10.7546 7.66564C10.7546 7.06057 10.9575 6.4555 10.9575 5.78353ZM11.5625 4.16986C11.3618 4.03384 10.9575 4.23606 10.7546 4.37128C10.487 4.43818 10.218 4.6389 10.218 4.84183H11.0244C11.1582 4.6389 11.3618 4.37128 11.5626 4.16986H11.5625ZM13.9151 4.84183C13.9151 4.6389 13.8482 4.6389 13.7798 4.5735C13.4445 4.5735 13.4445 4.03384 13.1762 4.16986C12.974 4.16986 12.8396 4.03384 12.7065 4.16986C12.6381 4.23606 12.7065 4.23606 12.7734 4.23606C13.1762 4.23606 12.9741 4.77422 13.2432 4.84173L13.9151 4.84183ZM16.2675 4.43818C16.4036 4.03384 16.4713 3.42958 16.2006 3.02663C15.9992 2.82531 15.6626 2.62309 15.3265 2.42096L14.7892 2.62309C14.5201 2.82531 14.3855 3.02673 14.3855 3.42957C14.8568 3.6318 15.395 4.16986 15.5957 4.6389H15.7971C15.9993 4.43818 16.2006 4.6389 16.2675 4.43818ZM10.0173 3.42957C9.95037 2.7569 9.14238 2.62309 8.74034 2.42096H8.53811C7.93305 2.55548 7.79784 3.15974 7.73093 3.6317C7.93316 4.23606 8.33589 3.83241 8.67112 4.23606C8.94025 4.03383 9.68054 3.56409 10.0173 3.42957ZM1.74879 24.006C1.68118 24.006 1.47905 23.8038 1.27904 23.8038C1.07541 24.2067 1.27904 24.5442 1.27904 25.0131C1.27904 25.1491 1.21143 25.4198 1.21143 25.4198C1.07541 25.4198 0.806984 25.0807 0.673274 24.8801V23.7377L1.34444 22.9298C1.74889 23.198 1.8827 23.6024 1.74889 24.006H1.74879ZM3.63079 23.1981C3.63079 23.5333 3.56389 23.8038 3.36176 24.006C3.29486 23.7377 3.09343 23.4002 2.75669 23.4002C2.48837 23.9369 2.42006 24.1383 2.68909 25.0131C2.48837 25.1491 2.28544 25.2176 2.08332 25.4198C1.95021 25.0807 1.8826 24.6103 1.8826 24.342C1.8826 23.8715 2.0157 23.4002 2.15022 22.9966C2.28544 22.7298 2.48837 22.3923 2.68909 22.1887L3.42937 22.1233C3.16034 22.1887 3.16034 22.5276 3.16034 22.7298C3.29486 22.7952 3.63079 22.8614 3.63079 23.198V23.1981ZM6.05025 23.6025C6.05025 24.2067 5.17615 25.0131 5.17615 25.0131C5.17615 24.6103 5.31137 24.2067 5.37838 23.8038C5.37838 23.8038 5.10925 23.5333 4.77331 23.5333C4.57179 23.6024 4.57179 23.8039 4.50489 24.006C4.30276 24.4097 3.89922 24.8103 3.76611 25.2176C3.69991 25.2176 3.69991 25.1491 3.69991 25.1491C3.69991 24.5442 3.76611 23.2649 4.23586 22.7952C4.64031 22.3923 4.84012 22.3923 5.24376 22.3239L5.64811 22.3923L5.37828 22.7952C5.64811 22.9297 6.05025 23.198 6.05025 23.6024V23.6025ZM17.4114 23.8038L17.2106 24.006C17.0085 23.8038 17.1415 23.1981 16.8064 23.1304C16.4712 23.1304 16.2005 22.7952 16.0668 22.7298L16.2674 22.5938C16.2674 22.5938 16.4712 22.5276 16.6042 22.5938C16.7395 22.7298 16.8732 22.7952 16.8732 22.9966C17.0085 23.1304 17.2106 22.9966 17.3438 23.1304C17.4114 23.3326 17.4783 23.6024 17.4114 23.8038ZM19.8322 22.7952C19.7638 22.9966 19.697 23.3325 19.6294 23.6024C19.4287 23.198 19.2934 22.5938 18.8229 22.5938C18.756 22.3239 18.6891 22.1232 18.4193 21.9872L17.815 21.9204C17.8819 22.1232 18.2855 22.1887 18.0848 22.5938C18.2855 22.7952 18.5538 22.7952 18.6891 23.1304C18.8229 23.3326 18.6891 23.6024 18.756 23.8038L18.2855 24.006C18.2855 23.6024 18.4193 22.9966 17.8819 22.7952C17.4783 22.9297 17.4114 22.3923 17.1415 22.1887C17.0085 22.1233 17.0085 21.7858 16.8064 21.9872C16.4712 22.1887 15.9991 21.9872 15.6625 22.1887L15.9991 21.5843C16.2674 21.3829 16.6042 21.5167 16.8732 21.3829L17.4115 21.3153C18.0171 21.3153 18.487 21.5843 19.0258 21.7858C19.2935 21.9872 19.4287 22.1887 19.4287 22.5276C19.6294 22.5938 19.8999 22.5938 19.8322 22.7952ZM30.7192 22.7298C30.5847 22.9297 30.523 22.9966 30.4532 23.1304C30.4532 22.7952 30.0487 22.5938 29.7827 21.9872L30.0488 21.5167C30.3201 21.5843 30.523 21.7858 30.523 22.1232C30.523 22.1886 30.4532 22.3923 30.523 22.5277C30.523 22.5938 30.7192 22.5938 30.7192 22.7298ZM7.99986 22.9297L7.79763 23.6024L7.32799 22.3923C6.72292 21.7858 6.11866 21.7189 5.71421 21.5167C5.51279 21.3829 5.51279 21.5843 5.31137 21.5167C5.31137 21.3153 5.37828 21.1139 5.5805 20.9125H5.98334L6.38618 21.1139C6.65531 21.3153 7.12576 21.3153 7.12576 21.7189C7.12576 21.8542 7.05966 21.9204 7.19418 22.1233L7.93295 22.3923L7.99986 22.9297ZM28.5705 22.1887C28.5705 22.2571 28.4367 22.3923 28.4367 22.3923C28.1021 22.1887 27.833 22.0563 27.4279 22.0563C27.4279 21.8542 27.2941 21.5167 27.1596 21.5167C26.6891 21.5167 26.7553 21.719 26.4207 21.719L27.0266 21.1139C27.0912 20.9801 27.1596 20.9801 27.2942 20.9801C27.4948 21.1139 27.5618 21.1815 27.7647 21.1815C27.7647 21.3153 27.7647 21.3829 27.6993 21.5843C27.8331 21.7189 28.0337 21.5843 28.1675 21.7189C28.3697 21.7858 28.5704 21.9204 28.5704 22.1887H28.5705ZM20.638 22.5938H20.5718C20.4366 22.3923 20.3712 22.1887 20.2352 22.1887C20.4366 21.3829 20.0338 20.7772 19.8999 20.1045L19.8322 19.9046C20.0991 20.2398 20.638 20.5756 20.5718 20.9801C20.638 21.5843 20.7064 22.1232 20.638 22.5938ZM9.07537 21.9204L8.60492 22.3922C8.47181 22.1887 8.60492 21.7858 8.33579 21.5843C8.33579 21.5167 8.53801 21.3829 8.47181 21.3153C8.33579 21.1815 7.53011 20.9125 7.53011 20.9125C7.19407 20.7103 6.92434 20.508 6.65531 20.1729C6.32008 20.1045 6.11866 20.3081 5.78112 20.3743C5.71431 20.3081 5.71431 20.1729 5.71431 20.1729C5.91714 19.97 5.91714 19.5685 6.31998 19.5685C6.5215 19.5685 6.79053 19.5685 6.99124 19.7685C7.26108 19.7685 7.3963 20.0391 7.59551 20.1045C7.93295 20.5081 8.20208 20.5757 8.47181 20.7772C8.40269 20.9801 8.53802 21.1139 8.67102 21.1815C9.07547 21.1815 8.94015 21.5843 9.07547 21.9204H9.07537ZM31.1935 20.8449C31.1935 21.2491 31.1934 21.3829 30.992 21.7189L30.523 21.1139C30.7192 20.9125 30.7192 20.5756 30.9244 20.3081C30.992 20.3081 31.1935 20.7772 31.1935 20.8448V20.8449ZM19.2273 21.3153C18.8912 21.1139 18.4869 21.1139 18.2856 20.7772C18.0848 20.7103 17.815 20.7103 17.4783 20.7103C17.2107 20.7772 16.8732 20.7772 16.6042 20.7772C16.5373 20.7772 16.6042 20.7103 16.4712 20.5757C16.0667 20.7772 15.5956 20.7772 15.1919 21.1815L15.5287 20.3743C15.797 20.3743 15.9991 20.1729 16.2005 20.1729C16.4035 20.1045 16.6718 20.1045 16.8732 20.1045V20.1729C17.6812 20.1729 18.5538 20.1045 19.1596 20.7772L19.2273 21.3153ZM29.3122 20.7103C29.3122 20.9801 29.2453 21.0455 29.1783 21.3829C28.6381 21.3153 28.7079 20.7773 28.5704 20.7103C28.3013 20.3081 27.7647 20.5757 27.361 20.5757C27.2941 20.1729 27.4948 20.1729 27.4948 19.97C27.6993 19.97 27.8999 19.7685 28.1021 19.9046C28.4366 19.7685 28.638 20.1045 28.9754 20.1045C29.1092 20.3081 29.2452 20.5757 29.3122 20.7103ZM9.41141 19.7023C9.41141 19.9046 9.3437 20.7772 9.3437 20.7772C9.20918 20.2398 8.87325 19.7685 8.47181 19.7685C8.20208 19.5685 7.99996 19.3656 7.93295 19.1642C7.73073 18.9628 7.53011 19.0966 7.26108 18.9628C6.99125 18.9628 6.65531 18.9628 6.32008 19.0966V18.9628L6.79053 18.3563C7.32798 18.4908 7.93295 18.3563 8.13517 18.7598C8.40279 18.9628 8.74024 19.0966 8.87325 19.2965V19.5002C9.00857 19.5686 9.2776 19.6354 9.41141 19.7024V19.7023ZM12.3696 19.5686C12.0999 19.7685 11.8308 19.7685 11.5624 19.7024L11.1581 19.0966C11.4264 19.1642 11.8308 19.1642 12.1682 19.0966L12.3696 19.5686ZM24.1367 19.9046C24.1367 20.2398 23.6631 20.7103 23.5316 20.9801C23.6631 20.5756 23.7316 19.9046 23.5316 19.9046C23.3956 19.8362 23.1243 19.97 23.1243 19.7685C23.1243 19.5685 23.1927 19.2965 23.1927 19.0966C23.1927 18.8959 22.9913 18.7598 22.9913 18.5599C22.9913 18.1549 23.4617 18.088 23.597 17.8188C23.7315 18.088 23.6631 18.4239 23.6631 18.6929C23.7316 18.8959 23.8647 19.2966 23.7316 19.6354C23.7316 19.8362 24.1367 19.7023 24.1367 19.9046ZM19.0257 19.9046C18.6891 19.9046 18.4193 19.9046 18.2186 19.5685C18.1501 19.5685 18.0171 19.3656 17.8819 19.5001C17.6136 19.7685 17.2106 19.2965 16.8064 19.3656C16.6042 19.5685 16.3343 19.7023 16.0668 19.7685L15.9991 19.7023C15.9991 19.5001 16.2005 19.2965 16.4036 19.0967C16.8732 19.2965 17.2106 18.3562 17.6812 18.8959C17.815 18.9628 18.0848 18.9628 18.2186 18.9628C18.6891 19.0966 18.8229 19.5685 19.0258 19.9045L19.0257 19.9046ZM14.2516 19.5002H14.1855C14.0495 19.5002 13.5782 19.2965 13.4444 19.0966C13.3783 18.9628 13.3783 18.7598 13.3783 18.7598C13.5782 18.7598 13.7143 18.6929 13.915 18.6929L14.2516 19.5002ZM29.5129 19.9046C29.0416 19.9046 29.3122 18.9629 28.3013 18.9629C28.0337 18.9629 27.8999 19.2965 27.6309 19.3656C27.6309 19.2965 27.6993 18.8959 27.6993 18.8959C27.6993 18.6929 27.7647 18.4908 28.0337 18.2902C28.5704 18.2902 28.4366 18.4908 28.8402 18.6253C29.1092 18.6929 29.2453 18.896 29.5129 18.896V19.9046ZM22.4531 19.1642C22.4531 19.5686 22.2524 19.97 22.1833 20.3743C22.1833 19.9045 22.051 19.5685 21.7811 19.2965C21.7811 19.1642 21.9827 19.0966 21.8488 18.9628C21.8488 18.9628 21.4452 18.7598 21.4452 18.4908C21.4452 18.1548 21.7143 17.9519 21.8488 17.7497C21.8488 17.6843 22.1165 17.8873 22.1165 18.2901C22.1165 18.4239 22.1165 18.5599 22.0511 18.7599C21.9827 18.9628 22.4531 18.9628 22.4531 19.1642ZM25.7481 17.8188C25.7481 18.088 25.6128 18.2901 25.682 18.5599C25.479 18.1549 25.2746 17.7497 25.0754 17.3484C25.0078 17.3484 24.9424 17.3484 24.9424 17.2815L25.1401 17.147C25.2746 17.147 25.479 17.147 25.479 17.2815C25.6128 17.4168 25.7481 17.6167 25.7481 17.8188ZM29.8489 18.3563C29.6445 18.2901 29.1783 18.221 29.1783 18.0211C29.1783 17.7497 29.0416 17.6843 28.7079 17.6843C28.3696 17.6843 28.1675 17.7497 27.7647 17.8873C27.7647 17.8873 27.5618 17.6166 27.4948 17.3484C27.6309 17.2815 28.1675 17.0777 28.4366 17.0777C28.91 17.0777 29.4445 17.0777 29.4445 17.3484C29.4445 17.5498 29.8489 17.6844 29.8489 18.3563ZM12.2336 16.9455C12.1682 17.3484 11.966 17.4822 11.6293 17.9519C11.3617 18.088 10.9574 18.1549 10.5538 18.3563C10.6207 18.1549 10.8229 18.088 10.9574 17.8873C11.1581 17.6843 11.3618 17.3484 11.4264 17.0779C11.7655 16.9455 11.9661 16.9455 12.2336 16.9455ZM24.741 17.8873C24.741 18.2901 24.6718 18.829 24.6718 19.2965C24.4711 19.2965 24.4711 19.0966 24.4711 18.8959C24.3373 18.4908 24.2697 18.088 24.1367 17.6843C23.933 17.0779 23.597 16.6095 23.3287 16.0022C23.2611 15.6671 22.9229 15.5318 22.656 15.3304C22.9913 15.3304 23.3287 15.3973 23.597 15.6002C23.597 15.8016 23.6631 15.8692 23.8647 16.0715C24.3373 16.0715 24.2697 16.6749 24.6718 17.0125C24.6718 17.0779 24.5395 17.0779 24.4711 17.2153C24.3373 17.2153 24.2697 17.4822 24.2697 17.4822C24.4711 17.6167 24.6718 17.6844 24.741 17.8873ZM10.9575 16.3398C10.7545 16.7441 10.5538 17.147 10.151 17.3484C9.88186 17.3484 9.54662 17.4822 9.14227 17.3484C9.34369 17.147 9.54673 17.0777 9.81425 16.9455L10.4193 16.3398H10.9575ZM14.9905 17.3484C14.7891 17.4822 14.3854 17.5498 14.1855 17.5498C13.6459 17.2815 13.6459 16.7441 13.1761 16.5419C13.1077 16.4735 13.0409 16.3397 13.0409 16.2729L14.1855 16.4735C14.1171 16.6749 14.2516 16.7441 14.3854 16.7441C14.5877 16.9455 14.7891 17.147 14.9905 17.3484ZM22.9228 17.3484C22.8575 17.4822 22.7214 17.5498 22.656 17.5498C22.656 17.5498 22.3186 17.2153 22.2524 16.9455C22.1833 16.6095 22.3862 16.1383 22.3862 16.1383C22.4531 16.1383 22.52 16.2729 22.656 16.2729C22.7214 16.3398 22.656 16.5419 22.7214 16.7441C22.8575 16.9455 23.0589 17.147 22.9228 17.3484ZM9.07537 16.1383L8.74024 17.147C8.4027 17.4822 7.93295 17.3484 7.53011 17.3484C8.13518 17.147 8.53802 16.5419 8.74024 16.1383C8.87325 16.0715 8.94015 16.1383 9.07537 16.1383ZM17.4114 16.9455H17.2106C16.4035 17.147 15.797 16.6749 15.1919 16.2729C15.5956 16.1383 15.9322 16.1383 16.2005 16.0715H16.4035L16.6718 16.4735C16.8732 16.5419 17.2106 16.7441 17.4114 16.9455ZM30.4532 16.8778C29.9856 16.8778 29.5129 16.6749 29.4445 16.4735C29.3122 16.3397 29.3791 16.0715 29.1092 16.0715C28.91 16.0715 28.774 16.2729 28.774 16.2729C28.5704 16.3398 28.1675 16.0715 28.1675 16.2729C28.1675 16.6095 27.833 16.7441 27.5618 16.7441C27.361 16.7441 27.2941 16.7441 27.0912 16.6749V16.0022C28.0337 16.0022 27.9661 15.6671 28.3696 15.6671C28.638 15.6671 28.8402 15.8693 29.1092 15.8693C29.4445 15.8693 29.2453 15.7355 29.5805 15.7355C29.9187 15.7355 30.0488 16.0022 30.3201 16.0715C30.3201 16.2729 30.4532 16.5419 30.4532 16.8778ZM8.13517 15.2635C8.13517 15.5318 7.93295 15.9361 7.59551 16.2729C7.53011 16.3398 7.32788 16.4735 7.32788 16.4735C7.32788 16.0715 7.53011 15.6671 7.53011 15.3304C7.73083 15.2635 7.93295 15.1281 8.13517 15.2635ZM18.6229 16.1383C18.2855 16.1383 17.815 16.1383 17.5474 15.936C17.1415 15.6671 17.0085 15.5318 16.8064 15.3304C17.0769 15.1281 17.4114 15.1281 17.6136 15.062C17.815 15.3304 18.1502 15.8692 18.6229 16.1383ZM21.9827 15.8016C21.9827 16.0022 21.8488 16.0715 21.7143 16.2052C21.7143 16.2052 21.4452 15.8692 21.4452 15.6671C21.4452 15.4649 21.4452 15.2635 21.5121 15.062C21.7143 15.2635 21.9827 15.5318 21.9827 15.8015V15.8016ZM25.0754 15.9361C24.4711 15.5317 24.0683 14.9267 23.5316 14.3232C24.0683 14.3232 24.2697 14.8591 24.6718 14.9268C24.8079 15.062 24.9424 15.1281 25.0754 15.3303V15.9361ZM12.5703 14.2549C12.5703 14.7267 12.5027 15.3304 12.0344 15.5318L11.8308 14.8591C12.0999 14.7268 12.3027 14.5246 12.5703 14.2549ZM11.092 15.3304C10.6883 14.9267 10.3502 14.5246 10.3502 14.1217C10.5538 14.1217 10.7545 14.1217 10.9574 14.3232C10.9574 14.6592 11.1581 14.9268 11.092 15.3303V15.3304ZM30.3201 15.2635C29.7144 14.9944 28.8401 14.7268 28.3696 14.7268C28.102 14.7268 27.2941 15.062 26.9589 15.3973L26.8251 14.7268C27.2941 14.6592 27.2941 14.3232 27.5618 14.3232C27.7647 14.3232 28.0337 14.2547 28.2373 14.2547C28.4366 14.2547 28.5704 14.0534 28.7079 14.0534C28.9755 14.0534 28.8402 14.4563 29.1093 14.4563C29.3122 14.4563 29.3791 14.3232 29.5805 14.3232C29.9187 14.3232 30.2524 14.8591 30.3201 15.2635ZM14.1171 15.3304C13.7797 15.1281 13.1761 15.062 13.243 14.6592C13.4444 14.3232 13.6459 14.2547 13.7797 14.0534C13.8481 14.5246 13.915 14.9267 14.1171 15.3304ZM20.3028 14.9267L19.9667 15.062C19.2273 15.062 18.8228 14.8591 18.4869 14.5246C18.756 14.5246 19.1596 14.2549 19.1596 14.2549C19.4963 14.5246 19.9668 14.8591 20.3028 14.9267ZM7.19418 14.2549C6.92434 14.5246 6.5876 14.7267 6.38628 15.1281C6.38628 14.9267 6.32008 14.7267 6.25247 14.5246C6.32008 14.3232 6.5215 14.1217 6.65531 14.0534C6.79053 14.1218 6.99125 14.1218 7.19418 14.2549ZM15.797 15.062C15.5287 15.1281 15.0581 15.2635 14.8567 14.9267C14.4523 14.3232 14.7215 13.7167 14.9236 13.2484C15.0581 13.6505 15.1258 14.0534 15.1919 14.4563C15.2603 14.7268 15.6625 14.8591 15.797 15.0619V15.062ZM21.1085 13.9188C20.8394 14.0534 20.3028 14.1217 19.8999 13.8512L20.4366 13.516C20.638 13.7167 20.9078 13.8512 21.1085 13.9188ZM28.7079 13.7166C28.3013 13.7166 28.1675 13.6505 27.833 13.6505C27.5618 13.6505 27.1596 13.8512 26.8906 14.1217C26.7553 13.9188 26.8252 13.7167 26.8906 13.5161C27.0912 13.313 27.4279 13.0455 27.7647 13.0455C28.2373 13.0455 28.7079 13.4484 28.7079 13.7166ZM8.87325 14.4563C8.4027 14.3232 7.93295 13.9188 7.73083 13.516C7.59551 13.2484 7.53011 12.9102 7.53011 12.6404C7.79773 12.7081 7.99995 12.9102 8.13517 13.0455V13.1109C8.40279 13.516 8.80634 13.9188 8.87325 14.4563ZM9.74734 13.313L9.61353 14.2547C9.3437 13.8512 9.14228 13.4484 9.07537 12.9102L9.74734 13.313ZM16.6718 14.1217C16.2674 14.2548 15.9991 13.9188 15.7301 13.7167C15.5287 13.313 15.5287 12.9102 15.3949 12.6404C15.7301 12.9102 16.2674 12.9102 16.2005 13.516C16.2005 13.7167 16.4712 13.9188 16.6718 14.1217ZM18.2856 13.313C17.8819 13.313 17.4114 13.516 17.2106 13.1108C17.3438 13.0454 17.4783 12.844 17.6812 12.7081L18.2856 13.313ZM28.7741 12.6404C28.3012 12.5074 27.9661 12.372 27.5618 12.372C27.361 12.372 26.7553 12.5074 26.6891 12.6404C26.4854 12.4389 26.8251 11.8362 27.0912 11.7009C27.361 11.5664 27.5618 11.634 27.6993 11.7009C27.6993 12.1045 28.1675 11.9031 28.4366 12.0361C28.5704 12.2368 28.7079 12.4389 28.774 12.6404H28.7741ZM19.5639 12.3051C19.4287 12.5074 19.2273 12.3051 19.092 12.3051H18.4869C18.4193 12.1045 18.3524 12.0361 18.2855 11.903C18.6229 11.8362 18.8229 11.7008 19.0258 11.8362C19.2273 12.0361 19.2935 12.3051 19.5639 12.3051ZM13.7797 11.2303C13.7143 11.634 13.5782 12.3051 13.1761 12.5074C13.1761 12.3051 12.9739 12.1045 12.8395 11.903C12.7733 11.903 12.8395 12.1045 12.7733 12.1045C12.7733 12.3051 12.7064 12.5074 12.7064 12.844C12.5027 12.9102 12.2336 13.0455 11.9661 12.9102V12.708C11.8308 12.5074 11.8308 12.3051 11.8308 12.1045L11.7654 12.0361C11.6293 12.1045 11.6293 12.3051 11.6293 12.4389C11.5624 12.5074 11.3617 12.7081 11.3617 12.9102C11.1581 12.9102 10.9574 12.844 10.7545 12.708V12.0361C10.7545 11.903 10.7545 11.903 10.6883 11.903L10.3502 12.3051C10.0848 12.0361 10.0172 11.4987 10.0172 11.0943C11.1581 10.49 12.5027 10.6915 13.3783 11.0297C13.5113 11.0943 13.646 11.0943 13.7798 11.2303H13.7797ZM19.0258 10.6915C18.6229 10.6915 18.4193 10.49 18.2186 10.0865C18.2186 9.88578 18.1501 9.61524 18.2186 9.28001C18.2855 9.48143 18.3524 9.68356 18.4869 9.81667C18.756 9.68356 18.756 10.0181 18.8229 10.0865C18.8913 10.2886 19.0258 10.49 19.0258 10.6915ZM17.5474 7.3957C17.5474 7.46492 17.4114 8.00076 17.4114 8.00076L16.8732 8.2044L17.2106 6.65692C17.3438 6.92525 17.5474 7.19508 17.5474 7.3957ZM6.85824 6.25328L6.5877 6.65692C6.65541 7.3957 6.32008 7.86776 6.32008 8.47202L5.98344 7.3957C6.05035 7.06057 6.11876 6.79144 6.32018 6.4555L6.85824 6.25328ZM17.4115 10.49C16.6043 10.0181 15.6626 9.68356 14.6547 9.61524C14.6547 9.81667 14.6547 10.0181 14.5878 10.0865C15.3949 10.49 16.2006 10.8929 16.8733 11.4987V12.1045C16.2006 11.4317 15.395 10.6915 14.4524 10.49C14.3855 10.6246 14.1856 10.8261 14.0496 11.0297C13.5783 10.6915 13.041 10.4231 12.4374 10.2886C12.2337 10.2886 12.1683 10.018 12.1683 9.81667L12.0999 9.48143C12.4374 9.41372 12.7066 9.14469 12.7734 8.80946C12.8396 8.87637 12.9741 8.87637 13.1079 8.87637C13.2431 8.80946 13.2431 8.67414 13.2431 8.47202C13.2431 8.06988 12.3698 8.06988 11.9662 8.06988C11.4956 8.06988 11.1583 8.00077 10.823 8.2713C10.6884 8.2713 10.7545 8.47202 10.7545 8.60734C10.7545 8.67424 10.9575 8.80956 10.9575 8.80956C11.1582 8.80956 11.2266 8.67424 11.3619 8.67424C11.2927 9.07779 11.4957 9.34612 11.8309 9.48143L11.7655 10.0865C11.5625 10.2886 11.2266 10.1533 10.9576 10.2886C10.5539 10.49 10.1511 10.6915 9.74744 10.8929C9.54673 10.6915 9.41141 10.49 9.2776 10.2886C8.60502 10.49 8.20208 10.8929 7.53021 11.2972C7.32798 11.4317 6.99135 11.7009 6.99135 11.7009C6.92444 11.634 6.99135 11.4317 6.99135 11.2303C7.59561 10.6247 8.4029 10.4231 9.07547 10.018V9.48143C8.80644 9.41372 8.53812 9.48143 8.20218 9.48143C7.59561 9.61524 6.99135 9.88578 6.5216 10.2202C6.5216 10.018 6.38628 9.81667 6.5877 9.68356C7.32809 9.28001 8.20218 9.01088 9.14238 9.07789V8.80946C9.07547 8.67424 9.07547 8.47202 8.94015 8.47202C8.53812 8.00076 8.13528 7.46492 8.13528 6.99366L8.33589 6.85764C8.20208 6.4555 8.13528 5.44609 8.33589 4.97634C7.93305 4.84183 7.53021 4.43818 7.3964 4.16986C7.26118 3.83242 7.12586 3.6317 7.05976 3.22815C7.19428 2.82531 7.3964 2.62309 7.59561 2.21944C7.73093 2.21944 7.93305 2.15264 8.00006 2.01722C8.33589 1.95042 8.60502 1.61378 9.00867 1.8159C9.27769 1.8159 9.54673 1.95041 9.74744 2.01732C9.74744 2.15264 9.74745 2.21955 9.95037 2.35406C10.3503 2.42097 10.3503 2.82531 10.5539 3.15974C10.7546 3.22815 10.9575 3.22815 11.1582 3.22815C11.5626 3.36197 11.8309 3.36196 12.0345 3.56419C12.5704 3.22815 13.1762 3.15974 13.7798 3.22815C13.8482 2.95902 13.9834 2.7569 14.0496 2.42096C14.1856 2.55548 14.1172 2.35406 14.2518 2.35406C14.5878 2.15264 14.9237 1.8158 15.395 1.95041C15.7302 2.15264 16.2006 2.01732 16.4036 2.42096C16.6719 2.62309 16.8065 3.02663 17.0086 3.42957C16.8064 3.83242 17.0086 4.43818 16.6043 4.6389L16.2006 5.04395C16.0668 5.04395 15.9992 5.17706 15.7971 5.17706C15.9993 5.64832 15.8647 6.3894 15.6626 6.85764C15.7971 6.79144 15.9992 6.79144 16.0669 6.59002C16.1338 6.65693 16.0669 6.79144 16.0669 6.85764C15.9992 6.99366 15.9992 7.06057 15.9992 7.06057C16.0669 7.46492 15.797 7.79935 15.5288 8.06988C15.395 8.47202 15.0582 9.01088 14.5878 9.07779V9.28001C15.5957 9.28001 16.4712 9.48143 17.4115 10.0181V10.49ZM32.5359 6.05186C32.3337 5.85044 32.133 5.64831 31.864 5.64831C31.664 5.37918 31.3972 5.04395 31.1236 5.04395C31.3274 4.97634 31.5957 4.84173 31.9316 4.84173C32.133 5.17706 32.3338 5.44609 32.4022 5.64831L32.5359 6.05186ZM6.72302 5.24537L6.25247 5.44609L6.32018 5.04395C6.45399 4.84173 6.5216 4.6389 6.72302 4.43829V5.24537ZM30.3878 4.5735C30.1187 4.5735 29.9188 4.6389 29.6446 4.5735C29.513 4.43818 29.3123 4.5735 29.1784 4.6389C29.0417 4.6389 28.9101 4.5735 28.708 4.43818C29.1094 4.43818 29.3123 4.16986 29.6446 4.03383C29.9188 4.23606 30.1841 4.37128 30.3878 4.5735ZM15.5288 24.006C15.5288 23.7377 15.3265 23.6024 15.0582 23.6024C14.8568 23.6024 14.5878 23.8715 14.5878 24.006C14.5878 24.2759 14.3855 25.8211 14.3855 25.8211H14.9238C15.1259 25.1491 15.5288 24.342 15.5288 24.006ZM13.9834 23.9369H13.915L13.3784 23.4002H13.31C13.1762 23.5333 13.1078 23.7377 12.974 23.9369C12.974 24.5442 13.1762 25.2177 13.31 25.8211H13.9151C13.9151 25.1491 13.9835 24.5442 13.9835 23.9369H13.9834ZM24.808 23.1304L24.1368 23.198C24.3374 23.4002 24.3374 23.6693 24.3374 23.8038C24.3374 24.006 24.2698 24.2067 24.1368 24.3421C23.9331 24.2067 23.9331 24.006 23.7977 23.8038C23.6632 23.8038 23.5971 24.1383 23.5971 24.2759C23.5971 24.9477 23.8648 25.4198 24.0684 25.8212H24.7411C24.6719 25.2176 24.5396 24.7448 24.5396 24.1383C24.5396 23.8038 24.7411 23.4002 24.808 23.1304ZM40 16.6749C40 13.8512 39.0598 10.826 36.5036 8.2713C36.0962 7.86776 35.564 7.3957 35.0237 7.06057C34.015 6.3893 33.0771 5.44609 32.5359 4.43818C32.1999 4.03384 31.9316 3.83252 31.5266 3.6317C31.5957 3.83242 31.728 4.03383 31.7956 4.23606H31.728C31.3274 4.23606 30.9921 4.03383 30.7193 3.83241L30.9921 3.56409C30.9244 3.42957 30.7193 3.42957 30.5848 3.42957C29.3792 3.22815 28.3697 3.83241 27.2942 4.03383V4.16986C27.9662 4.43818 28.1021 5.24537 28.5029 5.64831H28.9101C29.1093 5.64831 29.3123 5.85054 29.4446 5.78353C29.4446 5.64832 29.3123 5.44609 29.3123 5.37918C29.4446 5.24537 29.5806 5.24537 29.7144 5.37918C30.0489 5.5806 30.5848 5.24537 30.8531 5.78363C30.4533 5.78363 30.0489 5.85044 29.7144 5.98425C29.7144 6.05186 29.9188 6.25328 29.8489 6.3893C29.5129 6.25328 29.1094 6.3893 28.9102 6.05186L28.8403 6.18637C29.3123 6.65692 29.9188 7.06057 30.5231 7.2634C31.4618 7.46492 32.2684 6.99367 33.1432 7.19498C34.1526 7.66553 34.9575 8.2713 35.6302 8.94398C37.849 11.2972 38.6576 13.7836 38.6576 16.0022C38.6576 18.7599 37.849 20.7103 36.6396 21.9204C35.8979 22.6622 34.9576 23.3325 33.8143 23.3325C33.5467 23.3325 33.0071 23.2649 32.6719 22.9966C32.8726 22.1887 33.0071 21.3153 33.0071 20.0391C33.0071 19.2966 33.0071 17.3484 32.0676 15.0619C31.864 14.5915 31.1236 13.1109 30.1842 12.1045C29.4446 11.3641 28.5705 10.6915 27.6994 10.6915C27.2942 10.6915 26.8907 10.7592 26.5531 11.0297C26.2187 11.3641 26.0165 11.903 26.0849 12.3051C25.4791 12.6404 24.6043 12.9102 23.8648 12.9102C22.9914 12.9102 22.0511 12.439 21.2424 11.9031V10.893C20.7719 10.6915 20.6381 10.49 20.5719 10.0865L20.6381 10.0181C20.8395 10.0865 20.9763 10.2203 21.1086 10.2886C21.0418 9.81666 20.9763 9.28001 20.7065 8.87637C20.5043 8.87637 20.3029 8.80946 20.0992 8.67414C19.8323 8.47202 19.6971 8.2044 19.6971 7.86776C19.9 8.2044 20.2353 8.06998 20.4366 8.2713C20.0992 7.46492 20.2353 7.06057 19.6295 5.78353C19.4288 5.17706 18.823 4.84183 18.4194 4.43818C18.2187 4.23596 18.1503 4.03383 17.8151 4.03383C17.6137 3.96623 17.6137 3.6317 17.5475 3.42957C17.6813 3.42957 17.8151 3.56409 17.9496 3.6318C17.6136 2.62309 17.2777 1.61367 16.3344 1.00871L16.2006 1.14393C15.7971 1.20933 15.395 1.20933 15.0582 1.20933C15.192 1.00871 15.4612 0.941705 15.7302 0.807894C15.4612 0.60577 15.2603 0.538261 14.8569 0.538261C14.7216 0.60577 14.3855 0.807894 14.1172 0.807894H14.0496C14.0496 0.60577 13.9834 0.335231 14.3856 0.202225C13.9834 0.133811 13.646 0.133811 13.1763 0.202225C13.1079 0.538261 12.8396 0.740385 12.8396 1.00871C12.6381 1.20933 12.5704 1.41155 12.3697 1.61367C12.3697 1.14393 12.5704 0.740385 12.6381 0.335231C12.3697 0.402941 12.0345 0.60587 11.8309 0.60587C11.2927 0.335231 10.6208 0 10.3503 0C10.7546 0.335231 10.5539 0.807894 10.6208 1.20933L10.3502 1.00871C10.218 0.740385 9.95037 0.53816 9.81435 0.202225C9.4115 0.202225 9.14238 0.335231 8.80645 0.538261L8.74034 0.605769C9.00867 0.605769 9.2776 0.807995 9.41141 1.00871C8.94026 1.00871 8.60502 0.807995 8.13528 0.807995C8.13528 0.807995 8.13527 0.740385 7.99995 0.740385C7.79773 0.807995 7.59561 1.00871 7.46109 1.14393C6.99125 1.54607 6.65541 1.95041 6.38628 2.55548C6.5216 2.55548 6.72302 2.55548 6.79073 2.62309C6.5877 2.7569 6.38628 3.02673 6.11866 3.15974V4.16986C5.91724 4.43818 5.64821 4.6389 5.51299 4.97634C5.17625 6.18637 5.10935 7.46492 5.10935 8.87637C4.97483 9.07779 4.84022 9.14469 4.70792 9.21311V10.4231C4.70792 10.4231 5.17626 9.95188 5.37838 9.81667C5.37838 10.0865 5.31147 10.49 5.31147 10.7592C5.10925 10.7592 4.84021 11.0297 4.84021 11.2972C4.84021 11.5664 4.90712 11.8362 4.90712 12.1045C4.90712 12.2368 4.90712 12.3051 4.97483 12.4389C5.04244 12.3051 5.17625 12.1045 5.31147 12.0361C5.37838 12.0361 5.51289 11.903 5.71441 11.903C5.5806 12.1045 5.51289 12.4389 5.37838 12.7081L5.17615 12.9102C5.17615 12.9102 5.10935 13.0455 5.10935 13.1109C5.31157 14.5246 5.78122 15.8692 6.32018 17.2815C5.84893 18.221 5.37848 19.2311 5.17625 19.97C4.97483 20.5081 4.70792 21.5843 4.70792 21.5843C4.37128 21.2491 3.89921 21.1815 3.49557 21.1815C3.02593 21.2491 2.62228 21.3829 2.28554 21.7858C1.8827 21.5843 1.34454 21.6513 1.07552 21.9872C0.471255 22.5276 0.471251 22.7952 0.471251 23.198C0.269026 23.4002 0 23.7377 0 24.2067C0 24.8801 0.135215 25.2814 0.471251 25.8211H11.1582C11.0244 25.6197 10.8892 25.3507 10.7546 25.1491C10.5539 24.7448 10.6884 24.2067 10.6884 23.8038C10.8892 23.4002 11.1583 22.9966 11.3618 22.5938C11.4265 22.3923 11.3618 22.3923 11.4956 22.3239L11.9662 22.1232C12.2338 22.1232 12.4374 21.9872 12.7734 21.9872C13.041 22.3239 13.041 21.7189 13.3784 21.5843C14.1856 21.5167 14.8568 21.5843 15.2604 22.1887C15.2604 22.3239 15.395 22.3239 15.395 22.3923H15.0582C14.6547 22.1887 14.1172 21.9872 13.646 22.1887C13.646 22.3923 13.5784 22.3923 13.5784 22.5938V22.9298C13.8482 22.9966 14.0496 23.198 14.3186 23.4002C14.4524 23.1304 14.8569 22.9297 15.192 22.9297C15.5288 22.9297 16.0669 23.1304 16.0669 23.7376C16.0669 24.006 15.9992 24.2759 15.9992 24.5442C16.2675 24.7448 16.6719 24.8103 17.0086 25.0131C16.8733 25.2176 16.6719 25.2176 16.4713 25.2176H15.8647C15.7971 25.1491 15.6625 25.1491 15.6625 25.0131C15.4612 25.2176 15.3265 25.5521 15.192 25.8211H23.3957C23.2612 25.5521 23.1244 25.3507 23.059 25.1491C22.8576 24.7448 22.923 24.2067 22.8576 23.8038L23.6632 22.7298C24.0684 22.7298 24.4712 22.5938 25.2101 22.5276C25.3431 22.3239 25.2101 22.1887 25.8137 22.1232C26.351 22.1232 26.6892 22.3239 26.8252 22.3923C26.8906 22.5276 26.8906 22.5276 26.8252 22.6622C26.6892 22.7952 26.4208 22.5276 26.2187 22.5938C26.0849 22.7298 26.2863 22.7952 26.2863 22.9298C26.4208 23.0636 25.6821 22.7952 25.6821 22.7952C25.6821 22.7952 25.4791 23.198 25.4122 23.4002C25.4122 23.4002 25.7483 23.6025 25.8137 23.8038C25.9497 24.006 25.6821 24.2067 25.6821 24.4097C25.4791 24.342 25.2747 24.1383 25.2101 24.2067C25.0755 24.7448 25.2101 25.2176 25.1402 25.8211H25.882L26.0165 24.6103C26.0849 23.9369 26.8907 22.6622 27.3611 22.6622C27.6994 22.6622 27.8331 22.7952 28.1022 22.9966C28.3014 23.198 28.5705 23.4002 28.5705 23.5333C28.5705 23.6024 28.3697 23.7377 28.0338 23.7377C27.9 23.7377 27.8331 23.5333 27.6994 23.4002L27.2942 23.8038C27.2942 23.8038 27.7648 24.2067 27.7648 24.5442C27.7648 24.8103 27.6994 25.0131 27.428 25.1491L27.0266 24.342C26.8252 24.342 26.4855 24.7448 26.4855 25.0131C26.4855 25.2814 26.351 25.4198 26.351 25.8211H30.7193C31.1936 25.8211 31.5956 25.6851 32.0676 25.4197H32.9402C34.1526 25.4197 35.6986 25.2176 37.3093 23.6693C39.8648 21.2491 40 17.9519 40 16.6749ZM12.7734 25.8211C12.4373 25.1491 12.3697 24.2067 12.3697 24.006C12.3697 23.6024 12.3697 23.1304 12.5704 22.7952L11.7656 22.9966C11.6294 23.198 11.5625 23.4002 11.5625 23.5333L11.8309 23.4002C11.9662 23.4002 12.0345 23.5333 12.1 23.6025C12.0346 24.0059 11.6294 24.0059 11.4265 24.1383C11.2266 24.8103 11.831 25.2176 11.9662 25.8211H12.7734Z" fill="#EB6606"/>
</svg>
