<svg width="41" height="40" viewBox="0 0 41 40" fill="none" xmlns="http://www.w3.org/2000/svg">
<rect width="39.79" height="39.79" rx="10" fill="url(#paint0_linear_509_502)"/>
<path d="M11.4261 8.20496V17.0732H20.7747V8.20496H25.8739V31.3363H20.7747V21.3595H11.4261V31.3363H6.32684V8.20496H11.4261ZM30.0111 17.0732C30.4915 16.3711 31.0827 15.7799 31.8217 15.3365C32.5607 14.8931 33.3737 14.5975 34.2974 14.4127C35.2212 14.228 36.145 14.1541 37.0688 14.1541C37.9186 14.1541 38.7685 14.228 39.6184 14.3388C40.4682 14.4497 39.79 14.5897 39.914 15.2528C39.914 15.3539 39.914 15.4739 39.914 15.6949C39.914 16.502 39.914 16.0755 39.914 17.0732V18.2926V20.3371C39.914 21.2213 39.914 21.3964 39.914 22.3266V25.3411C39.914 26.1859 39.914 26.9688 39.914 28.0741C39.877 27.8154 39.9509 30.043 39.914 29.7474C39.175 30.4864 38.3251 31.0407 37.3274 31.3363C36.3297 31.6319 35.3321 31.7797 34.2974 31.7797C33.4845 31.7797 32.7455 31.6688 32.0804 31.4841C31.3783 31.2993 30.7871 31.0037 30.2698 30.5603C29.7525 30.1538 29.346 29.6365 29.0504 29.0084C28.7548 28.3802 28.607 27.6412 28.607 26.7543C28.607 25.7936 28.7917 25.0176 29.1243 24.3895C29.4569 23.7613 29.9003 23.281 30.4176 22.9114C30.9349 22.5419 31.5631 22.2833 32.2282 22.0985C32.8933 21.9138 33.5954 21.766 34.2974 21.6551C34.9995 21.5443 35.6646 21.4704 36.3297 21.3964C36.9949 21.3225 37.5861 21.2486 38.1034 21.1008C38.6207 20.953 39.0272 20.7683 39.3228 20.5466C39.6184 20.2879 39.7662 19.9184 39.7292 19.475C39.7292 18.9946 39.6553 18.5882 39.4706 18.2926C39.3228 17.997 39.1011 17.7753 38.8424 17.6275C38.5837 17.4797 38.2512 17.3688 37.9186 17.2949C37.5491 17.2579 37.1796 17.221 36.7731 17.221C35.8863 17.221 35.1473 17.4057 34.63 17.8122C34.1127 18.2187 33.8171 18.8468 33.7432 19.7706H29.1243C29.2721 18.6621 29.5308 17.7753 30.0111 17.0732ZM39.0641 23.5396C38.7685 23.6505 38.4729 23.7244 38.1403 23.7983C37.8078 23.8722 37.4383 23.9091 37.1057 23.9461C36.7362 23.983 36.3667 24.0569 35.9972 24.0939C35.6646 24.1678 35.2951 24.2417 34.9625 24.3525C34.63 24.4634 34.3344 24.6112 34.0757 24.7959C33.8171 24.9807 33.6323 25.2024 33.4845 25.498C33.3367 25.7936 33.2628 26.1262 33.2628 26.5696C33.2628 26.976 33.3367 27.3086 33.4845 27.6042C33.6323 27.8998 33.854 28.1215 34.1127 28.2693C34.3713 28.4171 34.6669 28.528 34.9995 28.6019C35.3321 28.6758 35.7016 28.7127 36.0711 28.7127C36.9579 28.7127 37.66 28.5649 38.1773 28.2693C38.6576 27.9737 39.0272 27.6042 39.2858 27.1978C39.5075 26.7913 39.6553 26.3479 39.7292 25.9045C39.7662 25.4611 39.8031 25.1285 39.8031 24.8698V23.1701C39.6184 23.3179 39.3597 23.4657 39.0641 23.5396Z" fill="white"/>
<defs>
<linearGradient id="paint0_linear_509_502" x1="36.4742" y1="14.1476" x2="9.72644" y2="28.7372" gradientUnits="userSpaceOnUse">
<stop stop-color="#008DC8"/>
<stop offset="1" stop-color="#0063A5"/>
</linearGradient>
</defs>
</svg>
